SplineFontDB: 3.0
FontName: DiplomataSC-Regular
FullName: Diplomata SC
FamilyName: Diplomata SC
Weight: Book
Copyright: Copyright (c) 2011, Eduardo Tunni (http://www.tipo.net.ar), with Reserved Font Name "Diplomata"
Version: 1.001
ItalicAngle: 0
UnderlinePosition: -50
UnderlineWidth: 50
Ascent: 800
Descent: 200
sfntRevision: 0x00010042
LayerCount: 2
Layer: 0 1 "Back"  1
Layer: 1 1 "Fore"  0
XUID: [1021 632 927602755 14822277]
FSType: 0
OS2Version: 2
OS2_WeightWidthSlopeOnly: 0
OS2_UseTypoMetrics: 1
CreationTime: 1327251445
ModificationTime: 1327255703
PfmFamily: 17
TTFWeight: 400
TTFWidth: 7
LineGap: 0
VLineGap: 0
Panose: 2 0 5 7 6 0 0 2 0 4
OS2TypoAscent: 130
OS2TypoAOffset: 1
OS2TypoDescent: -87
OS2TypoDOffset: 1
OS2TypoLinegap: 0
OS2WinAscent: 0
OS2WinAOffset: 1
OS2WinDescent: 63
OS2WinDOffset: 1
HheadAscent: 0
HheadAOffset: 1
HheadDescent: -63
HheadDOffset: 1
OS2SubXSize: 700
OS2SubYSize: 650
OS2SubXOff: 0
OS2SubYOff: 140
OS2SupXSize: 700
OS2SupYSize: 650
OS2SupXOff: 0
OS2SupYOff: 477
OS2StrikeYSize: 50
OS2StrikeYPos: 250
OS2Vendor: 'TIPO'
OS2CodePages: 20000001.00000000
OS2UnicodeRanges: 800000af.4000204b.00000000.00000000
Lookup: 258 0 0 "'kern' Horizontal Kerning in Latin lookup 0"  {"'kern' Horizontal Kerning in Latin lookup 0 subtable"  } ['kern' ('DFLT' <'dflt' > 'latn' <'dflt' > ) ]
DEI: 91125
TtTable: prep
PUSHW_1
 511
SCANCTRL
PUSHB_1
 4
SCANTYPE
EndTTInstrs
ShortTable: maxp 16
  1
  0
  246
  208
  13
  0
  0
  2
  0
  1
  1
  0
  64
  0
  0
  0
EndShort
LangName: 1033 "" "" "" "EduardoRodriguezTunni: Diplomata SC: 2011" "" "Version 1.001" "" "Diplomata is a trademark of Eduardo Rodriguez Tunni." "Eduardo Rodriguez Tunni" "Eduardo Rodriguez Tunni" "" "http://www.tipo.net.ar" "http://www.tipo.net.ar" "This Font Software is licensed under the SIL Open Font License, Version 1.1. This license is available with a FAQ at: http://scripts.sil.org/OFL" "http://scripts.sil.org/OFL" 
GaspTable: 1 65535 15 1
Encoding: UnicodeBmp
UnicodeInterp: none

StartChar: exclam
Encoding: 33 33 4
Width: 679
GlyphClass: 2
Flags: W
LayerCount: 2
Fore
SplineSet
568 113 m 128,-1,1
 568 55 568 55 501 14.5 c 128,-1,2
 434 -26 434 -26 338.5 -26 c 128,-1,3
 243 -26 243 -26 176 14.5 c 128,-1,4
 109 55 109 55 109 113 c 128,-1,5
 109 171 109 171 176 211.5 c 128,-1,6
 243 252 243 252 338.5 252 c 128,-1,7
 434 252 434 252 501 211.5 c 128,-1,0
 568 171 568 171 568 113 c 128,-1,1
538 682 m 0,8,9
 538 645 538 645 498.5 551 c 128,-1,10
 459 457 459 457 410.5 377 c 128,-1,11
 362 297 362 297 339.5 297 c 128,-1,12
 317 297 317 297 268 377 c 128,-1,13
 219 457 219 457 179.5 551 c 128,-1,14
 140 645 140 645 140 682 c 0,15,16
 140 740 140 740 191.5 770.5 c 128,-1,17
 243 801 243 801 338.5 801 c 128,-1,18
 434 801 434 801 486 770.5 c 128,-1,19
 538 740 538 740 538 682 c 0,8,9
207 695 m 0,20,21
 207 656 207 656 253 539 c 128,-1,22
 299 422 299 422 339 352 c 1,23,-1
 369 400 l 1,24,25
 329 480 329 480 292.5 576.5 c 128,-1,26
 256 673 256 673 255 706 c 0,27,28
 255 718 255 718 269 730.5 c 128,-1,29
 283 743 283 743 303 750 c 1,30,-1
 299 759 l 1,31,32
 259 752 259 752 233 735 c 128,-1,33
 207 718 207 718 207 695 c 0,20,21
237 113 m 128,-1,35
 237 167 237 167 277 205 c 1,36,-1
 274 210 l 1,37,38
 233 195 233 195 208 169 c 128,-1,39
 183 143 183 143 183 113 c 128,-1,40
 183 83 183 83 208 57 c 128,-1,41
 233 31 233 31 274 16 c 1,42,-1
 277 21 l 1,43,34
 237 59 237 59 237 113 c 128,-1,35
EndSplineSet
EndChar

StartChar: quotedbl
Encoding: 34 34 5
Width: 794
GlyphClass: 2
Flags: W
LayerCount: 2
Fore
SplineSet
361 594 m 0,0,1
 361 564 361 564 330 491 c 128,-1,2
 299 418 299 418 261 355.5 c 128,-1,3
 223 293 223 293 205 293 c 0,4,5
 179 293 179 293 114.5 420 c 128,-1,6
 50 547 50 547 50 593 c 128,-1,7
 50 639 50 639 90 663 c 128,-1,8
 130 687 130 687 205 687 c 128,-1,9
 280 687 280 687 320.5 663 c 128,-1,10
 361 639 361 639 361 594 c 0,0,1
102 604 m 0,11,12
 102 574 102 574 138 482 c 128,-1,13
 174 390 174 390 205 335 c 1,14,-1
 229 374 l 1,15,16
 198 436 198 436 169 511.5 c 128,-1,17
 140 587 140 587 139.5 611 c 128,-1,18
 139 635 139 635 159 651 c 1,19,-1
 157 657 l 1,20,21
 102 644 102 644 102 604 c 0,11,12
744 594 m 0,22,23
 744 564 744 564 713 491 c 128,-1,24
 682 418 682 418 644 355.5 c 128,-1,25
 606 293 606 293 588 293 c 0,26,27
 562 293 562 293 497.5 420 c 128,-1,28
 433 547 433 547 433 593 c 128,-1,29
 433 639 433 639 473 663 c 128,-1,30
 513 687 513 687 588 687 c 128,-1,31
 663 687 663 687 703.5 663 c 128,-1,32
 744 639 744 639 744 594 c 0,22,23
485 604 m 0,33,34
 485 574 485 574 521 482 c 128,-1,35
 557 390 557 390 588 335 c 1,36,-1
 612 374 l 1,37,38
 581 434 581 434 552 510.5 c 128,-1,39
 523 587 523 587 522.5 611 c 128,-1,40
 522 635 522 635 542 651 c 1,41,-1
 540 657 l 1,42,43
 485 644 485 644 485 604 c 0,33,34
EndSplineSet
EndChar

StartChar: numbersign
Encoding: 35 35 6
Width: 840
GlyphClass: 2
Flags: W
LayerCount: 2
Fore
SplineSet
140 495 m 1,0,-1
 275 495 l 1,1,-1
 330 700 l 1,2,-1
 410 700 l 1,3,-1
 355 495 l 1,4,-1
 575 495 l 1,5,-1
 630 700 l 1,6,-1
 710 700 l 1,7,-1
 655 495 l 1,8,-1
 790 495 l 1,9,-1
 769 415 l 1,10,-1
 633 415 l 1,11,-1
 585 235 l 1,12,-1
 720 235 l 1,13,-1
 699 155 l 1,14,-1
 564 155 l 1,15,-1
 509 -50 l 1,16,-1
 429 -50 l 1,17,-1
 484 155 l 1,18,-1
 264 155 l 1,19,-1
 209 -50 l 1,20,-1
 129 -50 l 1,21,-1
 184 155 l 1,22,-1
 50 155 l 1,23,-1
 71 235 l 1,24,-1
 205 235 l 1,25,-1
 253 415 l 1,26,-1
 119 415 l 1,27,-1
 140 495 l 1,0,-1
333 415 m 1,28,-1
 285 235 l 1,29,-1
 505 235 l 1,30,-1
 553 415 l 1,31,-1
 333 415 l 1,28,-1
EndSplineSet
EndChar

StartChar: dollar
Encoding: 36 36 7
Width: 1261
GlyphClass: 2
Flags: W
LayerCount: 2
Fore
SplineSet
115.5 377.5 m 128,-1,1
 96 410 96 410 96 451 c 128,-1,2
 96 492 96 492 113 528 c 128,-1,3
 130 564 130 564 155 587 c 128,-1,4
 180 610 180 610 222.5 626.5 c 128,-1,5
 265 643 265 643 301 651.5 c 128,-1,6
 337 660 337 660 392 664 c 0,7,8
 473 670 473 670 567 670 c 2,9,-1
 584 670 l 1,10,-1
 584 760 l 1,11,-1
 634 760 l 1,12,-1
 634 668 l 1,13,14
 840 656 840 656 1065 607 c 1,15,-1
 1083 650 l 1,16,-1
 1130 650 l 1,17,-1
 1130 439 l 1,18,-1
 1083 439 l 1,19,20
 1051 485 1051 485 907 544.5 c 128,-1,21
 763 604 763 604 634 623 c 1,22,-1
 634 486 l 1,23,24
 833 452 833 452 883 440 c 0,25,26
 1110 385 1110 385 1154 271 c 0,27,28
 1166 241 1166 241 1166 206 c 0,29,30
 1166 87 1166 87 1035 33 c 128,-1,31
 904 -21 904 -21 644 -21 c 2,32,-1
 634 -21 l 1,33,-1
 634 -110 l 1,34,-1
 584 -110 l 1,35,-1
 584 -20 l 1,36,37
 397 -13 397 -13 169 58 c 1,38,-1
 141 0 l 1,39,-1
 94 0 l 1,40,-1
 94 281 l 1,41,-1
 141 281 l 1,42,43
 171 213 171 213 301 133.5 c 128,-1,44
 431 54 431 54 584 29 c 1,45,-1
 584 178 l 1,46,47
 338 233 338 233 256 274 c 0,48,49
 216 293 216 293 175.5 319 c 128,-1,0
 135 345 135 345 115.5 377.5 c 128,-1,1
977 92 m 2,50,51
 977 150 977 150 933 183 c 0,52,53
 887 217 887 217 833.5 231.5 c 128,-1,54
 780 246 780 246 748 253.5 c 128,-1,55
 716 261 716 261 663.5 272 c 128,-1,56
 611 283 611 283 553.5 296.5 c 128,-1,57
 496 310 496 310 437 328.5 c 128,-1,58
 378 347 378 347 318 376 c 0,59,60
 195 434 195 434 177 529 c 1,61,-1
 170 530 l 1,62,63
 157 501 157 501 157 460 c 0,64,65
 157 391 157 391 240 341 c 0,66,67
 338 281 338 281 619 216 c 0,68,69
 681 201 681 201 716 193 c 128,-1,70
 751 185 751 185 791.5 174.5 c 128,-1,71
 832 164 832 164 855.5 155 c 128,-1,72
 879 146 879 146 903 133 c 0,73,74
 945 110 945 110 973 68 c 1,75,-1
 977 69 l 1,76,-1
 977 92 l 2,50,51
858 70 m 0,77,78
 858 98 858 98 802 119.5 c 128,-1,79
 746 141 746 141 634 167 c 1,80,-1
 634 22 l 1,81,82
 672 20 672 20 691 20 c 0,83,84
 858 20 858 20 858 70 c 0,77,78
584 628 m 1,85,-1
 558 629 l 1,86,87
 431 629 431 629 431 575 c 0,88,89
 431 546 431 546 470 528 c 128,-1,90
 509 510 509 510 584 495 c 1,91,-1
 584 628 l 1,85,-1
EndSplineSet
EndChar

StartChar: percent
Encoding: 37 37 8
Width: 1165
GlyphClass: 2
Flags: W
LayerCount: 2
Fore
SplineSet
402 -22 m 1,0,-1
 350 -22 l 1,1,-1
 744 670 l 1,2,-1
 796 670 l 1,3,-1
 402 -22 l 1,0,-1
489 633.5 m 128,-1,5
 564 579 564 579 564 498 c 128,-1,6
 564 417 564 417 484 361 c 128,-1,7
 404 305 404 305 291.5 305 c 128,-1,8
 179 305 179 305 99.5 361 c 128,-1,9
 20 417 20 417 20 497.5 c 128,-1,10
 20 578 20 578 95 633 c 128,-1,11
 170 688 170 688 292 688 c 128,-1,4
 414 688 414 688 489 633.5 c 128,-1,5
356 620 m 128,-1,13
 338 659 338 659 291.5 659 c 128,-1,14
 245 659 245 659 227.5 620 c 128,-1,15
 210 581 210 581 210 499 c 128,-1,16
 210 417 210 417 231.5 375 c 128,-1,17
 253 333 253 333 291.5 333 c 128,-1,18
 330 333 330 333 352 375 c 128,-1,19
 374 417 374 417 374 499 c 128,-1,12
 374 581 374 581 356 620 c 128,-1,13
100 497 m 128,-1,21
 100 537 100 537 126 582.5 c 128,-1,22
 152 628 152 628 197 657 c 1,23,-1
 196 660 l 1,24,25
 132 636 132 636 96 591.5 c 128,-1,26
 60 547 60 547 60 497 c 128,-1,27
 60 447 60 447 96 402.5 c 128,-1,28
 132 358 132 358 196 334 c 1,29,-1
 197 337 l 1,30,31
 152 366 152 366 126 411.5 c 128,-1,20
 100 457 100 457 100 497 c 128,-1,21
454 496 m 128,-1,33
 454 538 454 538 437 573.5 c 128,-1,34
 420 609 420 609 394 629 c 1,35,-1
 391 627 l 1,36,37
 414 578 414 578 414 496 c 128,-1,38
 414 414 414 414 391 365 c 1,39,-1
 394 363 l 1,40,41
 420 383 420 383 437 418.5 c 128,-1,32
 454 454 454 454 454 496 c 128,-1,33
1070 316.5 m 128,-1,43
 1145 262 1145 262 1145 181 c 128,-1,44
 1145 100 1145 100 1065 44 c 128,-1,45
 985 -12 985 -12 872.5 -12 c 128,-1,46
 760 -12 760 -12 680.5 44 c 128,-1,47
 601 100 601 100 601 180.5 c 128,-1,48
 601 261 601 261 676 316 c 128,-1,49
 751 371 751 371 873 371 c 128,-1,42
 995 371 995 371 1070 316.5 c 128,-1,43
937 303 m 128,-1,51
 919 342 919 342 872.5 342 c 128,-1,52
 826 342 826 342 808.5 303 c 128,-1,53
 791 264 791 264 791 182 c 128,-1,54
 791 100 791 100 812.5 58 c 128,-1,55
 834 16 834 16 872.5 16 c 128,-1,56
 911 16 911 16 933 58 c 128,-1,57
 955 100 955 100 955 182 c 128,-1,50
 955 264 955 264 937 303 c 128,-1,51
681 180 m 128,-1,59
 681 220 681 220 707 265.5 c 128,-1,60
 733 311 733 311 778 340 c 1,61,-1
 777 343 l 1,62,63
 713 319 713 319 677 274.5 c 128,-1,64
 641 230 641 230 641 180 c 128,-1,65
 641 130 641 130 677 85.5 c 128,-1,66
 713 41 713 41 777 17 c 1,67,-1
 778 20 l 1,68,69
 733 49 733 49 707 94.5 c 128,-1,58
 681 140 681 140 681 180 c 128,-1,59
1035 179 m 128,-1,71
 1035 221 1035 221 1018 256.5 c 128,-1,72
 1001 292 1001 292 975 312 c 1,73,-1
 972 310 l 1,74,75
 995 261 995 261 995 179 c 128,-1,76
 995 97 995 97 972 48 c 1,77,-1
 975 46 l 1,78,79
 1001 66 1001 66 1018 101.5 c 128,-1,70
 1035 137 1035 137 1035 179 c 128,-1,71
EndSplineSet
EndChar

StartChar: ampersand
Encoding: 38 38 9
Width: 1389
GlyphClass: 2
Flags: W
LayerCount: 2
Fore
SplineSet
960 356 m 1,0,-1
 1389 356 l 1,1,-1
 1389 313 l 1,2,-1
 1232 313 l 1,3,4
 1126 220 1126 220 991 143 c 1,5,6
 1120 43 1120 43 1264 43 c 2,7,-1
 1389 43 l 1,8,-1
 1389 0 l 1,9,-1
 830 0 l 2,10,11
 789 0 789 0 739 31 c 1,12,13
 570 -23 570 -23 412 -23 c 0,14,15
 209 -23 209 -23 104.5 32 c 128,-1,16
 0 87 0 87 0 175 c 0,17,18
 0 262 0 262 102 318 c 0,19,20
 216 381 216 381 474 383 c 1,21,22
 450 450 450 450 450 501 c 0,23,24
 450 541 450 541 572.5 568 c 128,-1,25
 695 595 695 595 820 595 c 0,26,27
 905 595 905 595 957 566.5 c 128,-1,28
 1009 538 1009 538 1009 498.5 c 128,-1,29
 1009 459 1009 459 961.5 423 c 128,-1,30
 914 387 914 387 804 365 c 1,31,32
 863 255 863 255 955 173 c 1,33,34
 1057 239 1057 239 1057 290 c 0,35,36
 1057 313 1057 313 1012 313 c 2,37,-1
 960 313 l 1,38,-1
 960 356 l 1,0,-1
510 33 m 0,39,40
 597 33 597 33 697 61 c 1,41,42
 638 110 638 110 582 186.5 c 128,-1,43
 526 263 526 263 491 342 c 1,44,45
 424 336 424 336 393 299 c 128,-1,46
 362 262 362 262 362 178 c 0,47,48
 362 33 362 33 510 33 c 0,39,40
757 505 m 0,49,50
 757 464 757 464 785 404 c 1,51,52
 938 433 938 433 938 498 c 0,53,54
 938 561 938 561 847.5 561 c 128,-1,55
 757 561 757 561 757 505 c 0,49,50
557 517 m 1,56,57
 543 516 543 516 530 509 c 128,-1,58
 517 502 517 502 513 496 c 1,59,60
 560 303 560 303 673.5 169.5 c 128,-1,61
 787 36 787 36 921 36 c 1,62,63
 843 71 843 71 777.5 130.5 c 128,-1,64
 712 190 712 190 669 260 c 0,65,66
 588 390 588 390 557 517 c 1,56,57
130 56 m 1,67,68
 98 105 98 105 98 175.5 c 128,-1,69
 98 246 98 246 130 295 c 1,70,-1
 126 299 l 1,71,72
 50 245 50 245 50 176 c 128,-1,73
 50 107 50 107 126 53 c 1,74,-1
 130 56 l 1,67,68
EndSplineSet
EndChar

StartChar: quotesingle
Encoding: 39 39 10
Width: 411
GlyphClass: 2
Flags: W
LayerCount: 2
Fore
SplineSet
361 594 m 0,0,1
 361 564 361 564 330 491 c 128,-1,2
 299 418 299 418 261 355.5 c 128,-1,3
 223 293 223 293 205 293 c 0,4,5
 179 293 179 293 114.5 420 c 128,-1,6
 50 547 50 547 50 593 c 128,-1,7
 50 639 50 639 90 663 c 128,-1,8
 130 687 130 687 205 687 c 128,-1,9
 280 687 280 687 320.5 663 c 128,-1,10
 361 639 361 639 361 594 c 0,0,1
102 604 m 0,11,12
 102 574 102 574 138 482 c 128,-1,13
 174 390 174 390 205 335 c 1,14,-1
 229 374 l 1,15,16
 198 434 198 434 169 510.5 c 128,-1,17
 140 587 140 587 139.5 611 c 128,-1,18
 139 635 139 635 159 651 c 1,19,-1
 157 657 l 1,20,21
 102 644 102 644 102 604 c 0,11,12
EndSplineSet
EndChar

StartChar: parenleft
Encoding: 40 40 11
Width: 805
GlyphClass: 2
Flags: W
LayerCount: 2
Fore
SplineSet
518 486 m 128,-1,1
 498 411 498 411 498 325 c 128,-1,2
 498 239 498 239 508.5 178.5 c 128,-1,3
 519 118 519 118 535 80.5 c 128,-1,4
 551 43 551 43 571 14 c 128,-1,5
 591 -15 591 -15 611 -29 c 0,6,7
 653 -59 653 -59 674 -62 c 2,8,-1
 684 -63 l 1,9,-1
 684 -117 l 1,10,11
 420 -77 420 -77 270 36 c 128,-1,12
 120 149 120 149 120 310 c 128,-1,13
 120 471 120 471 270 584 c 128,-1,14
 420 697 420 697 684 737 c 1,15,-1
 684 683 l 1,16,17
 676 682 676 682 663.5 679 c 128,-1,18
 651 676 651 676 619 654 c 128,-1,19
 587 632 587 632 562.5 596.5 c 128,-1,0
 538 561 538 561 518 486 c 128,-1,1
183 310 m 128,-1,21
 183 192 183 192 278.5 99.5 c 128,-1,22
 374 7 374 7 539 -49 c 1,23,-1
 542 -42 l 1,24,25
 414 16 414 16 335 106.5 c 128,-1,26
 256 197 256 197 256 310 c 128,-1,27
 256 423 256 423 335 513.5 c 128,-1,28
 414 604 414 604 542 662 c 1,29,-1
 539 669 l 1,30,31
 374 613 374 613 278.5 520.5 c 128,-1,20
 183 428 183 428 183 310 c 128,-1,21
EndSplineSet
EndChar

StartChar: parenright
Encoding: 41 41 12
Width: 800
GlyphClass: 2
Flags: W
LayerCount: 2
Fore
SplineSet
281 134 m 128,-1,1
 301 209 301 209 301 295 c 128,-1,2
 301 381 301 381 290.5 441.5 c 128,-1,3
 280 502 280 502 264 539.5 c 128,-1,4
 248 577 248 577 228 606 c 128,-1,5
 208 635 208 635 188 649 c 0,6,7
 146 679 146 679 126 682 c 1,8,-1
 115 683 l 1,9,-1
 115 737 l 1,10,11
 379 697 379 697 529 584 c 128,-1,12
 679 471 679 471 679 310 c 128,-1,13
 679 149 679 149 529 36 c 128,-1,14
 379 -77 379 -77 115 -117 c 1,15,-1
 115 -63 l 1,16,17
 123 -62 123 -62 135.5 -59 c 128,-1,18
 148 -56 148 -56 180 -34 c 128,-1,19
 212 -12 212 -12 236.5 23.5 c 128,-1,0
 261 59 261 59 281 134 c 128,-1,1
436 308 m 128,-1,21
 436 374 436 374 418.5 433 c 128,-1,22
 401 492 401 492 373 534 c 0,23,24
 321 611 321 611 268 647 c 1,25,-1
 261 641 l 1,26,27
 363 544 363 544 363 308 c 128,-1,28
 363 72 363 72 261 -25 c 1,29,-1
 268 -31 l 1,30,31
 321 5 321 5 373 82 c 0,32,33
 401 124 401 124 418.5 183 c 128,-1,20
 436 242 436 242 436 308 c 128,-1,21
EndSplineSet
EndChar

StartChar: asterisk
Encoding: 42 42 13
Width: 676
GlyphClass: 2
Flags: W
LayerCount: 2
Fore
SplineSet
442 740 m 0,0,1
 442 708 442 708 399.5 623.5 c 128,-1,2
 357 539 357 539 338.5 539 c 128,-1,3
 320 539 320 539 277.5 623.5 c 128,-1,4
 235 708 235 708 235 740 c 0,5,6
 235 801 235 801 338.5 801 c 128,-1,7
 442 801 442 801 442 740 c 0,0,1
310 522 m 0,8,9
 310 506 310 506 243 493 c 128,-1,10
 176 480 176 480 121 480 c 0,11,12
 50 480 50 480 50 542 c 0,13,14
 50 601 50 601 78.5 642 c 128,-1,15
 107 683 107 683 136 683 c 128,-1,16
 165 683 165 683 237.5 615 c 128,-1,17
 310 547 310 547 310 522 c 0,8,9
366 522 m 0,18,19
 366 547 366 547 438.5 615 c 128,-1,20
 511 683 511 683 540 683 c 128,-1,21
 569 683 569 683 597.5 642 c 128,-1,22
 626 601 626 601 626 542 c 0,23,24
 626 480 626 480 555 480 c 0,25,26
 500 480 500 480 433 493 c 128,-1,27
 366 506 366 506 366 522 c 0,18,19
315 487 m 0,28,29
 328 487 328 487 328 444.5 c 128,-1,30
 328 402 328 402 311.5 334.5 c 128,-1,31
 295 267 295 267 275 251 c 0,32,33
 266 243 266 243 241 243 c 128,-1,34
 216 243 216 243 182.5 261.5 c 128,-1,35
 149 280 149 280 124 315 c 0,36,37
 110 333 110 333 110 352 c 0,38,39
 110 393 110 393 195 440 c 128,-1,40
 280 487 280 487 315 487 c 0,28,29
364 488 m 0,41,42
 396 488 396 488 476 442.5 c 128,-1,43
 556 397 556 397 565 370 c 0,44,45
 567 362 567 362 567 358 c 0,46,47
 567 330 567 330 537 296 c 128,-1,48
 507 262 507 262 457 246 c 0,49,50
 446 242 446 242 434 242 c 0,51,52
 393 242 393 242 377 294 c 0,53,54
 349 380 349 380 349 453 c 0,55,56
 349 488 349 488 364 488 c 0,41,42
269 745 m 0,57,58
 269 724 269 724 292.5 665 c 128,-1,59
 316 606 316 606 338 567 c 1,60,-1
 358 598 l 1,61,62
 301 715 301 715 299 751 c 0,63,64
 299 765 299 765 313 775 c 1,65,-1
 310 784 l 1,66,67
 269 777 269 777 269 745 c 0,57,58
70 568 m 1,68,-1
 69 557 l 1,69,70
 69 512 69 512 141 512 c 128,-1,71
 213 512 213 512 284 528 c 1,72,-1
 261 556 l 1,73,74
 181 544 181 544 133.5 544 c 128,-1,75
 86 544 86 544 81 569 c 1,76,-1
 70 568 l 1,68,-1
161 323 m 0,77,78
 161 343 161 343 213.5 376.5 c 128,-1,79
 266 410 266 410 303 427 c 1,80,-1
 305 464 l 1,81,82
 221 421 221 421 179.5 391.5 c 128,-1,83
 138 362 138 362 138 342.5 c 128,-1,84
 138 323 138 323 154 307 c 1,85,-1
 164 310 l 1,86,87
 161 316 161 316 161 323 c 0,77,78
476 282 m 1,88,89
 450 282 450 282 432.5 331 c 128,-1,90
 415 380 415 380 406 451 c 1,91,-1
 372 464 l 1,92,93
 385 334 385 334 420 286 c 0,94,95
 434 266 434 266 450 266 c 128,-1,96
 466 266 466 266 476 272 c 1,97,-1
 476 282 l 1,88,89
596 570 m 1,98,99
 591 544 591 544 543 544 c 128,-1,100
 495 544 495 544 415 556 c 1,101,-1
 392 528 l 1,102,103
 463 512 463 512 519 512 c 128,-1,104
 575 512 575 512 591 521.5 c 128,-1,105
 607 531 607 531 607 555 c 0,106,107
 607 562 607 562 606 568 c 1,108,-1
 596 570 l 1,98,99
EndSplineSet
EndChar

StartChar: plus
Encoding: 43 43 14
Width: 740
GlyphClass: 2
Flags: W
LayerCount: 2
Fore
SplineSet
330 608 m 1,0,-1
 410 608 l 1,1,-1
 410 378 l 1,2,-1
 640 378 l 1,3,-1
 640 298 l 1,4,-1
 410 298 l 1,5,-1
 410 68 l 1,6,-1
 330 68 l 1,7,-1
 330 298 l 1,8,-1
 100 298 l 1,9,-1
 100 378 l 1,10,-1
 330 378 l 1,11,-1
 330 608 l 1,0,-1
EndSplineSet
EndChar

StartChar: comma
Encoding: 44 44 15
Width: 595
GlyphClass: 2
Flags: W
LayerCount: 2
Fore
SplineSet
181 103 m 128,-1,1
 181 152 181 152 218 187 c 1,2,-1
 215 191 l 1,3,4
 178 177 178 177 155 153.5 c 128,-1,5
 132 130 132 130 132 103 c 128,-1,6
 132 76 132 76 155 52.5 c 128,-1,7
 178 29 178 29 215 15 c 1,8,-1
 218 19 l 1,9,0
 181 54 181 54 181 103 c 128,-1,1
151.5 192 m 128,-1,11
 212 229 212 229 300 229 c 128,-1,12
 388 229 388 229 441.5 182.5 c 128,-1,13
 495 136 495 136 495 70 c 0,14,15
 495 -13 495 -13 408 -80 c 0,16,17
 366 -112 366 -112 293.5 -131.5 c 128,-1,18
 221 -151 221 -151 129 -151 c 1,19,-1
 129 -114 l 1,20,21
 206 -114 206 -114 267 -100 c 0,22,23
 382 -72 382 -72 396 -5 c 1,24,25
 345 -22 345 -22 297 -22 c 0,26,27
 212 -22 212 -22 151.5 14.5 c 128,-1,28
 91 51 91 51 91 103 c 128,-1,10
 91 155 91 155 151.5 192 c 128,-1,11
EndSplineSet
EndChar

StartChar: hyphen
Encoding: 45 45 16
Width: 740
GlyphClass: 2
Flags: W
LayerCount: 2
Fore
SplineSet
640 343 m 1,0,-1
 640 263 l 1,1,-1
 100 263 l 1,2,-1
 100 343 l 1,3,-1
 640 343 l 1,0,-1
EndSplineSet
EndChar

StartChar: period
Encoding: 46 46 17
Width: 594
GlyphClass: 2
Flags: W
LayerCount: 2
Fore
SplineSet
501 103 m 128,-1,1
 501 51 501 51 441 14.5 c 128,-1,2
 381 -22 381 -22 296 -22 c 128,-1,3
 211 -22 211 -22 151 14.5 c 128,-1,4
 91 51 91 51 91 103 c 128,-1,5
 91 155 91 155 151 192 c 128,-1,6
 211 229 211 229 296 229 c 128,-1,7
 381 229 381 229 441 192 c 128,-1,0
 501 155 501 155 501 103 c 128,-1,1
180 103 m 128,-1,9
 180 152 180 152 217 187 c 1,10,-1
 214 191 l 1,11,12
 177 177 177 177 154 153.5 c 128,-1,13
 131 130 131 130 131 103 c 128,-1,14
 131 76 131 76 154 52.5 c 128,-1,15
 177 29 177 29 214 15 c 1,16,-1
 217 19 l 1,17,8
 180 54 180 54 180 103 c 128,-1,9
EndSplineSet
EndChar

StartChar: slash
Encoding: 47 47 18
Width: 582
GlyphClass: 2
Flags: W
LayerCount: 2
Fore
SplineSet
132 -52 m 1,0,-1
 50 -52 l 1,1,-1
 450 670 l 1,2,-1
 532 670 l 1,3,-1
 132 -52 l 1,0,-1
EndSplineSet
EndChar

StartChar: zero
Encoding: 48 48 19
Width: 1038
GlyphClass: 2
Flags: W
LayerCount: 2
Fore
SplineSet
1011 326 m 0,0,1
 1011 231 1011 231 945 151 c 128,-1,2
 879 71 879 71 766 24.5 c 128,-1,3
 653 -22 653 -22 519 -22 c 128,-1,4
 385 -22 385 -22 272 24.5 c 128,-1,5
 159 71 159 71 93 151 c 128,-1,6
 27 231 27 231 27 326 c 0,7,8
 27 472 27 472 162.5 571 c 128,-1,9
 298 670 298 670 519 670 c 128,-1,10
 740 670 740 670 875.5 571 c 128,-1,11
 1011 472 1011 472 1011 326 c 0,0,1
519 629 m 128,-1,13
 430 629 430 629 396 556 c 128,-1,14
 362 483 362 483 362 329 c 128,-1,15
 362 175 362 175 403 97 c 128,-1,16
 444 19 444 19 518.5 19 c 128,-1,17
 593 19 593 19 634.5 97.5 c 128,-1,18
 676 176 676 176 676 329.5 c 128,-1,19
 676 483 676 483 642 556 c 128,-1,12
 608 629 608 629 519 629 c 128,-1,13
122 325 m 128,-1,21
 122 414 122 414 170.5 488 c 128,-1,22
 219 562 219 562 301 607 c 1,23,-1
 299 612 l 1,24,25
 193 569 193 569 130 493 c 128,-1,26
 67 417 67 417 67 325.5 c 128,-1,27
 67 234 67 234 130 158 c 128,-1,28
 193 82 193 82 299 39 c 1,29,-1
 301 44 l 1,30,31
 219 89 219 89 170.5 162.5 c 128,-1,20
 122 236 122 236 122 325 c 128,-1,21
765 171.5 m 128,-1,33
 794 247 794 247 794 325.5 c 128,-1,34
 794 404 794 404 765 479.5 c 128,-1,35
 736 555 736 555 693 601 c 1,36,-1
 688 598 l 1,37,38
 737 476 737 476 737 326 c 128,-1,39
 737 176 737 176 688 53 c 1,40,-1
 693 50 l 1,41,32
 736 96 736 96 765 171.5 c 128,-1,33
EndSplineSet
EndChar

StartChar: one
Encoding: 49 49 20
Width: 925
GlyphClass: 2
Flags: W
LayerCount: 2
Fore
SplineSet
868 607 m 1,0,-1
 790 607 l 2,1,2
 746 607 746 607 714 574.5 c 128,-1,3
 682 542 682 542 682 497 c 2,4,-1
 682 152 l 2,5,6
 682 96 682 96 712 69.5 c 128,-1,7
 742 43 742 43 790 43 c 2,8,-1
 868 43 l 1,9,-1
 868 0 l 1,10,-1
 151 0 l 1,11,-1
 151 43 l 1,12,-1
 229 43 l 2,13,14
 277 43 277 43 307 69.5 c 128,-1,15
 337 96 337 96 337 152 c 2,16,-1
 337 433 l 2,17,18
 337 513 337 513 353 562 c 2,19,-1
 358 578 l 1,20,-1
 99 399 l 1,21,-1
 57 450 l 1,22,-1
 377 650 l 1,23,-1
 868 650 l 1,24,-1
 868 607 l 1,0,-1
469 43 m 1,25,-1
 469 607 l 1,26,-1
 404 607 l 1,27,-1
 404 43 l 1,28,-1
 469 43 l 1,25,-1
EndSplineSet
EndChar

StartChar: two
Encoding: 50 50 21
Width: 1009
GlyphClass: 2
Flags: W
LayerCount: 2
Fore
SplineSet
913 230 m 1,0,-1
 948 230 l 1,1,-1
 948 0 l 1,2,-1
 50 0 l 1,3,-1
 50 66 l 1,4,5
 185 106 185 106 288.5 158 c 128,-1,6
 392 210 392 210 451.5 252.5 c 128,-1,7
 511 295 511 295 552 352 c 128,-1,8
 593 409 593 409 593 459 c 128,-1,9
 593 509 593 509 581 541 c 128,-1,10
 569 573 569 573 552 589.5 c 128,-1,11
 535 606 535 606 513 616 c 0,12,13
 479 630 479 630 450 630 c 0,14,15
 337 630 337 630 238 546 c 128,-1,16
 139 462 139 462 120 362 c 1,17,-1
 85 362 l 1,18,-1
 85 634 l 1,19,-1
 120 634 l 1,20,-1
 120 580 l 1,21,22
 276 670 276 670 491 670 c 0,23,24
 635 670 635 670 779 632 c 0,25,26
 855 612 855 612 903.5 571 c 128,-1,27
 952 530 952 530 952 474 c 128,-1,28
 952 418 952 418 890.5 361 c 128,-1,29
 829 304 829 304 738 259 c 128,-1,30
 647 214 647 214 524 171 c 0,31,32
 324 101 324 101 94 47 c 1,33,-1
 94 42 l 1,34,35
 562 43 562 43 913 148 c 1,36,-1
 913 230 l 1,0,-1
595 607 m 1,37,38
 648 554 648 554 648 467 c 0,39,40
 648 403 648 403 609 347.5 c 128,-1,41
 570 292 570 292 522 254 c 1,42,-1
 524 249 l 1,43,44
 549 256 549 256 581 275 c 128,-1,45
 613 294 613 294 635.5 316 c 128,-1,46
 658 338 658 338 676.5 377.5 c 128,-1,47
 695 417 695 417 695 453 c 128,-1,48
 695 489 695 489 685 513 c 128,-1,49
 675 537 675 537 660 554 c 0,50,51
 631 589 631 589 608 604 c 1,52,-1
 598 610 l 1,53,-1
 595 607 l 1,37,38
EndSplineSet
EndChar

StartChar: three
Encoding: 51 51 22
Width: 1025
GlyphClass: 2
Flags: W
LayerCount: 2
Fore
SplineSet
974 173 m 0,0,1
 974 120 974 120 908 75 c 128,-1,2
 842 30 842 30 728.5 4 c 128,-1,3
 615 -22 615 -22 481 -22 c 0,4,5
 251 -22 251 -22 87 49 c 1,6,-1
 87 6 l 1,7,-1
 52 6 l 1,8,-1
 52 213 l 1,9,-1
 87 213 l 1,10,11
 118 132 118 132 228.5 75 c 128,-1,12
 339 18 339 18 464 18 c 0,13,14
 543 18 543 18 590.5 63 c 128,-1,15
 638 108 638 108 638 177.5 c 128,-1,16
 638 247 638 247 591.5 290.5 c 128,-1,17
 545 334 545 334 470.5 334 c 128,-1,18
 396 334 396 334 349.5 309 c 128,-1,19
 303 284 303 284 303 236 c 1,20,-1
 269 236 l 1,21,-1
 269 459 l 1,22,-1
 303 459 l 1,23,24
 303 371 303 371 442 371 c 0,25,26
 514 371 514 371 556 406 c 128,-1,27
 598 441 598 441 598 497 c 128,-1,28
 598 553 598 553 559 591.5 c 128,-1,29
 520 630 520 630 433 630 c 128,-1,30
 346 630 346 630 256 579 c 128,-1,31
 166 528 166 528 120 434 c 1,32,-1
 85 434 l 1,33,-1
 85 625 l 1,34,-1
 120 625 l 1,35,-1
 120 583 l 1,36,37
 185 612 185 612 225 627 c 128,-1,38
 265 642 265 642 334.5 656 c 128,-1,39
 404 670 404 670 481 670 c 0,40,41
 668 670 668 670 786 618.5 c 128,-1,42
 904 567 904 567 904 499 c 0,43,44
 904 446 904 446 815.5 404.5 c 128,-1,45
 727 363 727 363 592 350 c 1,46,47
 769 338 769 338 871.5 290.5 c 128,-1,48
 974 243 974 243 974 173 c 0,0,1
735 170 m 0,49,50
 735 246 735 246 659 307 c 1,51,-1
 655 302 l 1,52,53
 687 248 687 248 687 169.5 c 128,-1,54
 687 91 687 91 655 37 c 1,55,-1
 659 33 l 1,56,57
 693 60 693 60 714 96.5 c 128,-1,58
 735 133 735 133 735 170 c 0,49,50
701 501 m 128,-1,60
 701 533 701 533 680 564.5 c 128,-1,61
 659 596 659 596 624 618 c 1,62,-1
 619 615 l 1,63,64
 652 557 652 557 652 501 c 128,-1,65
 652 445 652 445 619 387 c 1,66,-1
 624 384 l 1,67,68
 659 406 659 406 680 437.5 c 128,-1,59
 701 469 701 469 701 501 c 128,-1,60
EndSplineSet
EndChar

StartChar: four
Encoding: 52 52 23
Width: 1012
GlyphClass: 2
Flags: W
LayerCount: 2
Fore
SplineSet
956 178 m 1,0,-1
 769 178 l 1,1,-1
 769 151 l 2,2,3
 769 95 769 95 799 69 c 128,-1,4
 829 43 829 43 877 43 c 2,5,-1
 955 43 l 1,6,-1
 955 0 l 1,7,-1
 238 0 l 1,8,-1
 238 43 l 1,9,-1
 315 43 l 2,10,11
 364 43 364 43 394 69 c 128,-1,12
 424 95 424 95 424 151 c 2,13,-1
 424 178 l 1,14,-1
 57 178 l 1,15,-1
 57 220 l 1,16,-1
 464 650 l 1,17,-1
 955 650 l 1,18,-1
 955 607 l 1,19,-1
 877 607 l 2,20,21
 833 607 833 607 801 574.5 c 128,-1,22
 769 542 769 542 769 497 c 2,23,-1
 769 220 l 1,24,-1
 956 220 l 1,25,-1
 956 178 l 1,0,-1
424 220 m 1,26,-1
 424 425 l 2,27,28
 424 511 424 511 440 554 c 1,29,-1
 445 570 l 1,30,-1
 143 220 l 1,31,-1
 424 220 l 1,26,-1
556 42 m 1,32,-1
 556 607 l 1,33,-1
 491 607 l 1,34,-1
 491 42 l 1,35,-1
 556 42 l 1,32,-1
EndSplineSet
EndChar

StartChar: five
Encoding: 53 53 24
Width: 1020
GlyphClass: 2
Flags: W
LayerCount: 2
Fore
SplineSet
886 650 m 2,0,1
 933 650 933 650 948 663 c 1,2,-1
 971 650 l 1,3,-1
 718 525 l 1,4,-1
 287 525 l 1,5,-1
 166 370 l 1,6,7
 255 405 255 405 325 420.5 c 128,-1,8
 395 436 395 436 488 436 c 128,-1,9
 581 436 581 436 653 424.5 c 128,-1,10
 725 413 725 413 796.5 389 c 128,-1,11
 868 365 868 365 913 319 c 128,-1,12
 958 273 958 273 958 211 c 128,-1,13
 958 149 958 149 909.5 102 c 128,-1,14
 861 55 861 55 782 29 c 0,15,16
 627 -22 627 -22 442 -22 c 0,17,18
 349 -22 349 -22 260 -5.5 c 128,-1,19
 171 11 171 11 128 27 c 2,20,-1
 85 43 l 1,21,-1
 85 0 l 1,22,-1
 50 0 l 1,23,-1
 50 199 l 1,24,-1
 85 199 l 1,25,26
 117 161 117 161 144 135 c 128,-1,27
 171 109 171 109 214 79 c 0,28,29
 303 18 303 18 440 18 c 0,30,31
 496 18 496 18 534.5 36 c 128,-1,32
 573 54 573 54 590 84 c 0,33,34
 622 137 622 137 622 197 c 0,35,36
 622 383 622 383 370 383 c 0,37,38
 318 383 318 383 267.5 370.5 c 128,-1,39
 217 358 217 358 182 340 c 0,40,41
 112 305 112 305 80 276 c 2,42,-1
 66 263 l 1,43,-1
 49 279 l 1,44,-1
 351 663 l 1,45,-1
 371 663 l 1,46,47
 374 650 374 650 449 650 c 2,48,-1
 886 650 l 2,0,1
667 200 m 128,-1,50
 667 162 667 162 660.5 129.5 c 128,-1,51
 654 97 654 97 645 78 c 0,52,53
 626 38 626 38 612 27 c 2,54,-1
 605 22 l 1,55,-1
 606 18 l 1,56,57
 620 21 620 21 642 35 c 128,-1,58
 664 49 664 49 678.5 67.5 c 128,-1,59
 693 86 693 86 705 121.5 c 128,-1,60
 717 157 717 157 717 201.5 c 128,-1,61
 717 246 717 246 703.5 281.5 c 128,-1,62
 690 317 690 317 671 336 c 128,-1,63
 652 355 652 355 632.5 367 c 128,-1,64
 613 379 613 379 599.5 383.5 c 128,-1,65
 586 388 586 388 586 387 c 2,66,-1
 584 383 l 1,67,-1
 593 377 l 2,68,69
 599 373 599 373 613 358 c 128,-1,70
 627 343 627 343 638 324 c 128,-1,71
 649 305 649 305 658 271.5 c 128,-1,49
 667 238 667 238 667 200 c 128,-1,50
EndSplineSet
EndChar

StartChar: six
Encoding: 54 54 25
Width: 1097
GlyphClass: 2
Flags: W
LayerCount: 2
Fore
SplineSet
909 643 m 1,0,-1
 943 643 l 1,1,-1
 943 476 l 1,2,-1
 909 476 l 1,3,4
 888 497 888 497 848.5 526.5 c 128,-1,5
 809 556 809 556 774 576.5 c 128,-1,6
 739 597 739 597 691 613.5 c 128,-1,7
 643 630 643 630 600 630 c 0,8,9
 394 630 394 630 394 358 c 1,10,11
 445 382 445 382 531 401.5 c 128,-1,12
 617 421 617 421 694 421 c 128,-1,13
 771 421 771 421 849.5 399 c 128,-1,14
 928 377 928 377 984 329 c 128,-1,15
 1040 281 1040 281 1040 219 c 128,-1,16
 1040 157 1040 157 996.5 109.5 c 128,-1,17
 953 62 953 62 880 34 c 0,18,19
 730 -22 730 -22 541 -22 c 0,20,21
 420 -22 420 -22 310 19.5 c 128,-1,22
 200 61 200 61 128.5 141 c 128,-1,23
 57 221 57 221 57 321.5 c 128,-1,24
 57 422 57 422 128 503 c 128,-1,25
 199 584 199 584 315.5 627 c 128,-1,26
 432 670 432 670 570 670 c 0,27,28
 665 670 665 670 749.5 654 c 128,-1,29
 834 638 834 638 872 622 c 2,30,-1
 909 607 l 1,31,-1
 909 643 l 1,0,-1
393 277 m 2,32,33
 393 124 393 124 430 72 c 1,34,35
 445 49 445 49 475 33 c 128,-1,36
 505 17 505 17 549.5 17 c 128,-1,37
 594 17 594 17 626.5 32.5 c 128,-1,38
 659 48 659 48 674.5 67 c 128,-1,39
 690 86 690 86 699 116.5 c 128,-1,40
 708 147 708 147 709 164 c 128,-1,41
 710 181 710 181 710 206 c 0,42,43
 710 274 710 274 678.5 323.5 c 128,-1,44
 647 373 647 373 584 373 c 0,45,46
 544 373 544 373 496.5 359.5 c 128,-1,47
 449 346 449 346 421 332 c 2,48,-1
 393 318 l 1,49,-1
 393 277 l 2,32,33
112 322 m 128,-1,51
 112 267 112 267 131.5 219 c 128,-1,52
 151 171 151 171 178 142 c 0,53,54
 235 81 235 81 280 62 c 1,55,-1
 299 53 l 1,56,-1
 302 58 l 1,57,58
 297 62 297 62 287.5 69.5 c 128,-1,59
 278 77 278 77 255 102.5 c 128,-1,60
 232 128 232 128 214.5 156.5 c 128,-1,61
 197 185 197 185 182.5 230 c 128,-1,62
 168 275 168 275 168 322 c 128,-1,63
 168 369 168 369 184 413.5 c 128,-1,64
 200 458 200 458 222 488 c 0,65,66
 269 550 269 550 306 574 c 1,67,-1
 322 585 l 1,68,-1
 319 591 l 1,69,70
 289 580 289 580 250 555 c 128,-1,71
 211 530 211 530 184 502 c 128,-1,72
 157 474 157 474 134.5 425.5 c 128,-1,50
 112 377 112 377 112 322 c 128,-1,51
763 211 m 128,-1,74
 763 155 763 155 749.5 110 c 128,-1,75
 736 65 736 65 723 48 c 2,76,-1
 710 32 l 1,77,-1
 713 28 l 1,78,79
 777 60 777 60 800 137 c 0,80,81
 811 171 811 171 811 211 c 128,-1,82
 811 251 811 251 800.5 284 c 128,-1,83
 790 317 790 317 776 336 c 1,84,85
 746 373 746 373 722 384 c 1,86,-1
 711 388 l 1,87,-1
 709 384 l 1,88,89
 715 379 715 379 724 367.5 c 128,-1,90
 733 356 733 356 748 311.5 c 128,-1,73
 763 267 763 267 763 211 c 128,-1,74
EndSplineSet
EndChar

StartChar: seven
Encoding: 55 55 26
Width: 1106
GlyphClass: 2
Flags: W
LayerCount: 2
Fore
SplineSet
48 650 m 1,0,-1
 1049 650 l 1,1,-1
 1049 605 l 1,2,-1
 957 605 l 1,3,4
 935 594 935 594 899.5 568.5 c 128,-1,5
 864 543 864 543 835 516 c 128,-1,6
 806 489 806 489 770.5 445.5 c 128,-1,7
 735 402 735 402 710 355 c 1,8,-1
 859 355 l 1,9,-1
 859 311 l 1,10,-1
 690 311 l 1,11,12
 652 218 652 218 652 116 c 0,13,14
 652 86 652 86 657 43 c 1,15,-1
 805 43 l 1,16,-1
 805 0 l 1,17,-1
 322 0 l 1,18,19
 322 149 322 149 403 311 c 1,20,-1
 242 311 l 1,21,-1
 242 355 l 1,22,-1
 426 355 l 1,23,24
 465 425 465 425 515.5 491 c 128,-1,25
 566 557 566 557 596 588 c 2,26,-1
 627 619 l 1,27,28
 608 622 608 622 568 622 c 128,-1,29
 528 622 528 622 477.5 614 c 128,-1,30
 427 606 427 606 356.5 585.5 c 128,-1,31
 286 565 286 565 212 517 c 128,-1,32
 138 469 138 469 76 400 c 1,33,-1
 48 400 l 1,34,-1
 48 650 l 1,0,-1
139 605 m 1,35,-1
 98 605 l 1,36,-1
 98 490 l 1,37,-1
 139 521 l 1,38,-1
 139 605 l 1,35,-1
440 43 m 1,39,40
 440 130 440 130 471.5 221.5 c 128,-1,41
 503 313 503 313 548 382 c 0,42,43
 636 518 636 518 714 590 c 1,44,-1
 745 620 l 1,45,-1
 691 620 l 1,46,47
 679 609 679 609 658 589.5 c 128,-1,48
 637 570 637 570 584.5 507.5 c 128,-1,49
 532 445 532 445 492 380.5 c 128,-1,50
 452 316 452 316 419 223 c 128,-1,51
 386 130 386 130 386 43 c 1,52,-1
 440 43 l 1,39,40
EndSplineSet
EndChar

StartChar: eight
Encoding: 56 56 27
Width: 1098
GlyphClass: 2
Flags: W
LayerCount: 2
Fore
SplineSet
726 382 m 1,0,1
 804 434 804 434 804 507.5 c 128,-1,2
 804 581 804 581 727 633 c 1,3,-1
 723 629 l 1,4,5
 755 567 755 567 755 506.5 c 128,-1,6
 755 446 755 446 722 385 c 1,7,-1
 726 382 l 1,0,1
232 507 m 0,8,9
 232 545 232 545 266 578 c 128,-1,10
 300 611 300 611 359 633 c 1,11,-1
 358 637 l 1,12,13
 278 617 278 617 231 582 c 128,-1,14
 184 547 184 547 184 508 c 128,-1,15
 184 469 184 469 229.5 435.5 c 128,-1,16
 275 402 275 402 353 380 c 1,17,-1
 355 384 l 1,18,19
 232 432 232 432 232 507 c 0,8,9
393 505 m 0,20,21
 393 369 393 369 549.5 369 c 128,-1,22
 706 369 706 369 706 505 c 0,23,24
 706 578 706 578 672 611.5 c 128,-1,25
 638 645 638 645 549.5 645 c 128,-1,26
 461 645 461 645 427 611.5 c 128,-1,27
 393 578 393 578 393 505 c 0,20,21
168 174 m 128,-1,29
 168 220 168 220 209 259.5 c 128,-1,30
 250 299 250 299 321 324 c 1,31,-1
 319 328 l 1,32,33
 223 303 223 303 167.5 262.5 c 128,-1,34
 112 222 112 222 112 174 c 128,-1,35
 112 126 112 126 168.5 85 c 128,-1,36
 225 44 225 44 321 20 c 1,37,-1
 323 24 l 1,38,39
 252 49 252 49 210 88.5 c 128,-1,28
 168 128 168 128 168 174 c 128,-1,29
549 12 m 128,-1,41
 624 12 624 12 665 53.5 c 128,-1,42
 706 95 706 95 706 176 c 128,-1,43
 706 257 706 257 670 301 c 128,-1,44
 634 345 634 345 551 345 c 128,-1,45
 468 345 468 345 430 303.5 c 128,-1,46
 392 262 392 262 392 178.5 c 128,-1,47
 392 95 392 95 433 53.5 c 128,-1,40
 474 12 474 12 549 12 c 128,-1,41
732 25 m 1,48,49
 823 82 823 82 823 173.5 c 128,-1,50
 823 265 823 265 731 324 c 1,51,-1
 729 320 l 1,52,53
 768 248 768 248 768 173 c 128,-1,54
 768 98 768 98 728 28 c 1,55,-1
 732 25 l 1,48,49
972 507 m 0,56,57
 972 459 972 459 907 419.5 c 128,-1,58
 842 380 842 380 735 360 c 1,59,-1
 735 356 l 1,60,61
 878 335 878 335 959.5 286 c 128,-1,62
 1041 237 1041 237 1041 174 c 0,63,64
 1041 121 1041 121 975 76 c 128,-1,65
 909 31 909 31 796 4.5 c 128,-1,66
 683 -22 683 -22 549 -22 c 128,-1,67
 415 -22 415 -22 302 4.5 c 128,-1,68
 189 31 189 31 123 76 c 128,-1,69
 57 121 57 121 57 174 c 0,70,71
 57 237 57 237 139 286 c 128,-1,72
 221 335 221 335 364 356 c 1,73,-1
 364 360 l 1,74,75
 257 380 257 380 192 419.5 c 128,-1,76
 127 459 127 459 127 507 c 0,77,78
 127 576 127 576 243.5 623 c 128,-1,79
 360 670 360 670 549.5 670 c 128,-1,80
 739 670 739 670 855.5 623 c 128,-1,81
 972 576 972 576 972 507 c 0,56,57
EndSplineSet
EndChar

StartChar: nine
Encoding: 57 57 28
Width: 1087
GlyphClass: 2
Flags: W
LayerCount: 2
Fore
SplineSet
179 -7 m 1,0,-1
 144 -7 l 1,1,-1
 144 158 l 1,2,-1
 179 158 l 1,3,4
 196 141 196 141 237.5 113 c 128,-1,5
 279 85 279 85 313.5 66.5 c 128,-1,6
 348 48 348 48 396.5 33 c 128,-1,7
 445 18 445 18 488 18 c 0,8,9
 598 18 598 18 645.5 83 c 128,-1,10
 693 148 693 148 693 276 c 1,11,12
 678 269 678 269 651 258.5 c 128,-1,13
 624 248 624 248 547 231 c 128,-1,14
 470 214 470 214 403.5 214 c 128,-1,15
 337 214 337 214 279 225 c 128,-1,16
 221 236 221 236 169.5 259 c 128,-1,17
 118 282 118 282 87.5 323 c 128,-1,18
 57 364 57 364 57 418 c 0,19,20
 57 490 57 490 130 547.5 c 128,-1,21
 203 605 203 605 313.5 634.5 c 128,-1,22
 424 664 424 664 547 664 c 128,-1,23
 670 664 670 664 778.5 624 c 128,-1,24
 887 584 887 584 958.5 502 c 128,-1,25
 1030 420 1030 420 1030 316 c 128,-1,26
 1030 212 1030 212 959 134.5 c 128,-1,27
 888 57 888 57 772 17.5 c 128,-1,28
 656 -22 656 -22 518 -22 c 0,29,30
 423 -22 423 -22 338 -10 c 128,-1,31
 253 2 253 2 216 14 c 2,32,-1
 179 27 l 1,33,-1
 179 -7 l 1,0,-1
694 382 m 2,34,35
 694 435 694 435 690 470.5 c 128,-1,36
 686 506 686 506 672 545 c 0,37,38
 642 624 642 624 540 624 c 0,39,40
 377 624 377 624 377 436 c 0,41,42
 377 359 377 359 408.5 310.5 c 128,-1,43
 440 262 440 262 504 262 c 0,44,45
 544 262 544 262 591.5 276 c 128,-1,46
 639 290 639 290 666 304 c 2,47,-1
 694 318 l 1,48,-1
 694 382 l 2,34,35
814 312 m 128,-1,50
 814 367 814 367 803.5 417 c 128,-1,51
 793 467 793 467 778.5 499.5 c 128,-1,52
 764 532 764 532 749 555.5 c 128,-1,53
 734 579 734 579 724 590 c 128,-1,54
 714 601 714 601 713 600 c 2,55,-1
 710 598 l 1,56,57
 715 590 715 590 723 572.5 c 128,-1,58
 731 555 731 555 744.5 481.5 c 128,-1,59
 758 408 758 408 758 322.5 c 128,-1,60
 758 237 758 237 738 166 c 128,-1,61
 718 95 718 95 698 62 c 1,62,-1
 679 28 l 1,63,-1
 681 25 l 1,64,65
 686 29 686 29 695 36 c 128,-1,66
 704 43 704 43 727 69 c 128,-1,67
 750 95 750 95 767.5 125.5 c 128,-1,68
 785 156 785 156 799.5 206.5 c 128,-1,49
 814 257 814 257 814 312 c 128,-1,50
120 412 m 128,-1,70
 120 378 120 378 132 350.5 c 128,-1,71
 144 323 144 323 159 308 c 128,-1,72
 174 293 174 293 194 282 c 128,-1,73
 214 271 214 271 222 268.5 c 128,-1,74
 230 266 230 266 236 264 c 1,75,-1
 237 267 l 1,76,77
 192 297 192 297 174 357 c 0,78,79
 167 383 167 383 167 412 c 0,80,81
 167 503 167 503 235 563 c 1,82,-1
 234 566 l 1,83,84
 221 563 221 563 198 548.5 c 128,-1,85
 175 534 175 534 160 518.5 c 128,-1,86
 145 503 145 503 132.5 474.5 c 128,-1,69
 120 446 120 446 120 412 c 128,-1,70
EndSplineSet
EndChar

StartChar: colon
Encoding: 58 58 29
Width: 594
GlyphClass: 2
Flags: W
LayerCount: 2
Fore
SplineSet
501 508 m 128,-1,1
 501 456 501 456 441 419.5 c 128,-1,2
 381 383 381 383 296 383 c 128,-1,3
 211 383 211 383 151 419.5 c 128,-1,4
 91 456 91 456 91 508 c 128,-1,5
 91 560 91 560 151 597 c 128,-1,6
 211 634 211 634 296 634 c 128,-1,7
 381 634 381 634 441 597 c 128,-1,0
 501 560 501 560 501 508 c 128,-1,1
180 508 m 128,-1,9
 180 557 180 557 217 592 c 1,10,-1
 214 596 l 1,11,12
 177 582 177 582 154 558.5 c 128,-1,13
 131 535 131 535 131 508 c 128,-1,14
 131 481 131 481 154 457.5 c 128,-1,15
 177 434 177 434 214 420 c 1,16,-1
 217 424 l 1,17,8
 180 459 180 459 180 508 c 128,-1,9
501 103 m 128,-1,19
 501 51 501 51 441 14.5 c 128,-1,20
 381 -22 381 -22 296 -22 c 128,-1,21
 211 -22 211 -22 151 14.5 c 128,-1,22
 91 51 91 51 91 103 c 128,-1,23
 91 155 91 155 151 192 c 128,-1,24
 211 229 211 229 296 229 c 128,-1,25
 381 229 381 229 441 192 c 128,-1,18
 501 155 501 155 501 103 c 128,-1,19
180 103 m 128,-1,27
 180 152 180 152 217 187 c 1,28,-1
 214 191 l 1,29,30
 177 177 177 177 154 153.5 c 128,-1,31
 131 130 131 130 131 103 c 128,-1,32
 131 76 131 76 154 52.5 c 128,-1,33
 177 29 177 29 214 15 c 1,34,-1
 217 19 l 1,35,26
 180 54 180 54 180 103 c 128,-1,27
EndSplineSet
EndChar

StartChar: semicolon
Encoding: 59 59 30
Width: 595
GlyphClass: 2
Flags: W
LayerCount: 2
Fore
SplineSet
181 103 m 128,-1,1
 181 152 181 152 218 187 c 1,2,-1
 215 191 l 1,3,4
 178 177 178 177 155 153.5 c 128,-1,5
 132 130 132 130 132 103 c 128,-1,6
 132 76 132 76 155 52.5 c 128,-1,7
 178 29 178 29 215 15 c 1,8,-1
 218 19 l 1,9,0
 181 54 181 54 181 103 c 128,-1,1
151.5 192 m 128,-1,11
 212 229 212 229 300 229 c 128,-1,12
 388 229 388 229 441.5 182.5 c 128,-1,13
 495 136 495 136 495 70 c 0,14,15
 495 -13 495 -13 408 -80 c 0,16,17
 366 -112 366 -112 293.5 -131.5 c 128,-1,18
 221 -151 221 -151 129 -151 c 1,19,-1
 129 -114 l 1,20,21
 206 -114 206 -114 267 -100 c 0,22,23
 382 -72 382 -72 396 -5 c 1,24,25
 345 -22 345 -22 297 -22 c 0,26,27
 212 -22 212 -22 151.5 14.5 c 128,-1,28
 91 51 91 51 91 103 c 128,-1,10
 91 155 91 155 151.5 192 c 128,-1,11
508 508 m 128,-1,30
 508 456 508 456 448 419.5 c 128,-1,31
 388 383 388 383 303 383 c 128,-1,32
 218 383 218 383 158 419.5 c 128,-1,33
 98 456 98 456 98 508 c 128,-1,34
 98 560 98 560 158 597 c 128,-1,35
 218 634 218 634 303 634 c 128,-1,36
 388 634 388 634 448 597 c 128,-1,29
 508 560 508 560 508 508 c 128,-1,30
187 508 m 128,-1,38
 187 557 187 557 224 592 c 1,39,-1
 221 596 l 1,40,41
 184 582 184 582 161 558.5 c 128,-1,42
 138 535 138 535 138 508 c 128,-1,43
 138 481 138 481 161 457.5 c 128,-1,44
 184 434 184 434 221 420 c 1,45,-1
 224 424 l 1,46,37
 187 459 187 459 187 508 c 128,-1,38
EndSplineSet
EndChar

StartChar: less
Encoding: 60 60 31
Width: 740
GlyphClass: 2
Flags: W
LayerCount: 2
Fore
SplineSet
619 158 m 1,0,-1
 585 87 l 1,1,-1
 107 309 l 1,2,-1
 107 369 l 1,3,-1
 585 591 l 1,4,-1
 619 520 l 1,5,-1
 217 339 l 1,6,-1
 619 158 l 1,0,-1
EndSplineSet
EndChar

StartChar: equal
Encoding: 61 61 32
Width: 740
GlyphClass: 2
Flags: W
LayerCount: 2
Fore
SplineSet
640 268 m 1,0,-1
 640 188 l 1,1,-1
 100 188 l 1,2,-1
 100 268 l 1,3,-1
 640 268 l 1,0,-1
640 488 m 1,4,-1
 640 408 l 1,5,-1
 100 408 l 1,6,-1
 100 488 l 1,7,-1
 640 488 l 1,4,-1
EndSplineSet
EndChar

StartChar: greater
Encoding: 62 62 33
Width: 740
GlyphClass: 2
Flags: W
LayerCount: 2
Fore
SplineSet
107 520 m 1,0,-1
 141 591 l 1,1,-1
 619 369 l 1,2,-1
 619 309 l 1,3,-1
 141 87 l 1,4,-1
 107 158 l 1,5,-1
 509 339 l 1,6,-1
 107 520 l 1,0,-1
EndSplineSet
EndChar

StartChar: question
Encoding: 63 63 34
Width: 1092
GlyphClass: 2
Flags: W
LayerCount: 2
Fore
SplineSet
724 113 m 128,-1,1
 724 55 724 55 657.5 14.5 c 128,-1,2
 591 -26 591 -26 496 -26 c 128,-1,3
 401 -26 401 -26 333.5 14.5 c 128,-1,4
 266 55 266 55 266 113 c 128,-1,5
 266 171 266 171 333.5 211.5 c 128,-1,6
 401 252 401 252 496 252 c 128,-1,7
 591 252 591 252 657.5 211.5 c 128,-1,0
 724 171 724 171 724 113 c 128,-1,1
982 609 m 0,8,9
 982 531 982 531 903 463.5 c 128,-1,10
 824 396 824 396 693.5 356.5 c 128,-1,11
 563 317 563 317 417 317 c 0,12,13
 404 317 404 317 338 319 c 1,14,-1
 338 364 l 1,15,16
 400 362 400 362 436 362 c 0,17,18
 509 362 509 362 549.5 403.5 c 128,-1,19
 590 445 590 445 590 553 c 0,20,21
 590 683 590 683 562 717 c 0,22,23
 548 734 548 734 536 739.5 c 128,-1,24
 524 745 524 745 506 745 c 0,25,26
 405 745 405 745 283 675 c 128,-1,27
 161 605 161 605 139 536 c 1,28,-1
 97 536 l 1,29,-1
 97 800 l 1,30,-1
 139 800 l 1,31,-1
 139 735 l 1,32,33
 308 783 308 783 502 783 c 0,34,35
 982 783 982 783 982 609 c 0,8,9
389 113 m 128,-1,37
 389 166 389 166 426 205 c 1,38,-1
 423 210 l 1,39,40
 386 195 386 195 363 169 c 128,-1,41
 340 143 340 143 340 113 c 128,-1,42
 340 83 340 83 363 56.5 c 128,-1,43
 386 30 386 30 423 16 c 1,44,-1
 426 21 l 1,45,36
 389 60 389 60 389 113 c 128,-1,37
608 743 m 1,46,47
 652 673 652 673 652 567 c 128,-1,48
 652 461 652 461 608 384 c 1,49,-1
 614 375 l 1,50,51
 635 385 635 385 655 402 c 128,-1,52
 675 419 675 419 695.5 465 c 128,-1,53
 716 511 716 511 716 563.5 c 128,-1,54
 716 616 716 616 705 650 c 128,-1,55
 694 684 694 684 676 704 c 0,56,57
 645 739 645 739 614 751 c 1,58,-1
 608 743 l 1,46,47
EndSplineSet
EndChar

StartChar: at
Encoding: 64 64 35
Width: 1278
GlyphClass: 2
Flags: W
LayerCount: 2
Fore
SplineSet
353.5 656 m 128,-1,1
 458 694 458 694 571 694 c 128,-1,2
 684 694 684 694 754.5 686.5 c 128,-1,3
 825 679 825 679 890 659 c 0,4,5
 1021 618 1021 618 1021 497 c 2,6,-1
 1021 18 l 1,7,-1
 775 18 l 1,8,-1
 751 70 l 1,9,10
 669 -1 669 -1 573 -1 c 128,-1,11
 477 -1 477 -1 419.5 60.5 c 128,-1,12
 362 122 362 122 362 205.5 c 128,-1,13
 362 289 362 289 423.5 349 c 128,-1,14
 485 409 485 409 600 409 c 0,15,16
 688 409 688 409 735 406 c 1,17,-1
 735 496 l 2,18,19
 735 644 735 644 587 644 c 0,20,21
 515 644 515 644 455 608.5 c 128,-1,22
 395 573 395 573 356.5 514.5 c 128,-1,23
 318 456 318 456 297 383 c 128,-1,24
 276 310 276 310 276 233 c 128,-1,25
 276 156 276 156 297 87 c 128,-1,26
 318 18 318 18 358 -38.5 c 128,-1,27
 398 -95 398 -95 465.5 -128.5 c 128,-1,28
 533 -162 533 -162 618 -162 c 0,29,30
 772 -162 772 -162 903.5 -98 c 128,-1,31
 1035 -34 1035 -34 1111.5 76.5 c 128,-1,32
 1188 187 1188 187 1188 317 c 1,33,-1
 1248 317 l 1,34,35
 1248 171 1248 171 1163.5 47 c 128,-1,36
 1079 -77 1079 -77 934 -149.5 c 128,-1,37
 789 -222 789 -222 618 -222 c 0,38,39
 481 -222 481 -222 370 -182 c 128,-1,40
 259 -142 259 -142 191 -75.5 c 128,-1,41
 123 -9 123 -9 86.5 73 c 128,-1,42
 50 155 50 155 50 243 c 128,-1,43
 50 331 50 331 84.5 410.5 c 128,-1,44
 119 490 119 490 184 554 c 128,-1,0
 249 618 249 618 353.5 656 c 128,-1,1
174 244 m 128,-1,46
 174 355 174 355 214 451.5 c 128,-1,47
 254 548 254 548 317 596 c 1,48,-1
 314 604 l 1,49,50
 223 564 223 564 166.5 460 c 128,-1,51
 110 356 110 356 110 244 c 128,-1,52
 110 132 110 132 167 26.5 c 128,-1,53
 224 -79 224 -79 315 -118 c 1,54,-1
 318 -110 l 1,55,56
 255 -61 255 -61 214.5 36 c 128,-1,45
 174 133 174 133 174 244 c 128,-1,46
787 525 m 2,57,-1
 787 74 l 1,58,-1
 851 74 l 1,59,-1
 851 525 l 2,60,61
 851 558 851 558 819.5 598 c 128,-1,62
 788 638 788 638 726 651 c 1,63,-1
 723 641 l 1,64,65
 787 616 787 616 787 525 c 2,57,-1
694 116 m 0,66,67
 712 116 712 116 735 121 c 1,68,-1
 735 355 l 1,69,70
 722 356 722 356 695 356 c 0,71,72
 650 356 650 356 625 317.5 c 128,-1,73
 600 279 600 279 600 230.5 c 128,-1,74
 600 182 600 182 624 149 c 128,-1,75
 648 116 648 116 694 116 c 0,66,67
462 205 m 128,-1,77
 462 249 462 249 484 294.5 c 128,-1,78
 506 340 506 340 550 369 c 1,79,-1
 548 376 l 1,80,81
 484 350 484 350 448 304 c 128,-1,82
 412 258 412 258 412 205 c 128,-1,83
 412 152 412 152 448.5 105.5 c 128,-1,84
 485 59 485 59 548 34 c 1,85,-1
 550 41 l 1,86,87
 506 70 506 70 484 115.5 c 128,-1,76
 462 161 462 161 462 205 c 128,-1,77
EndSplineSet
EndChar

StartChar: A
Encoding: 65 65 36
Width: 1397
GlyphClass: 2
Flags: W
LayerCount: 2
Fore
SplineSet
1410 43 m 1,0,-1
 1410 0 l 1,1,-1
 659 0 l 1,2,-1
 659 43 l 1,3,-1
 733 43 l 2,4,5
 759 43 759 43 775.5 54.5 c 128,-1,6
 792 66 792 66 792 89 c 128,-1,7
 792 112 792 112 763 148 c 2,8,-1
 726 194 l 1,9,-1
 283 194 l 1,10,11
 254 149 254 149 254 114.5 c 128,-1,12
 254 80 254 80 275 61.5 c 128,-1,13
 296 43 296 43 329 43 c 2,14,-1
 422 43 l 1,15,-1
 422 0 l 1,16,-1
 -14 0 l 1,17,-1
 -14 43 l 1,18,19
 17 43 17 43 51 58.5 c 128,-1,20
 85 74 85 74 111 96 c 128,-1,21
 137 118 137 118 159 141 c 128,-1,22
 181 164 181 164 192.5 179 c 128,-1,23
 204 194 204 194 204 195 c 2,24,-1
 461 522 l 1,25,-1
 436 553 l 2,26,27
 412 582 412 582 385.5 594.5 c 128,-1,28
 359 607 359 607 313 607 c 2,29,-1
 234 607 l 1,30,-1
 234 650 l 1,31,-1
 806 650 l 1,32,-1
 1296 43 l 1,33,-1
 1410 43 l 1,0,-1
321 242 m 1,34,-1
 688 242 l 1,35,-1
 500 474 l 1,36,-1
 321 242 l 1,34,-1
928 43 m 1,37,-1
 1005 43 l 1,38,-1
 550 607 l 1,39,-1
 473 607 l 1,40,-1
 928 43 l 1,37,-1
EndSplineSet
EndChar

StartChar: B
Encoding: 66 66 37
Width: 1481
GlyphClass: 2
Flags: W
LayerCount: 2
Fore
SplineSet
1362 507 m 0,0,1
 1362 471 1362 471 1347 442 c 128,-1,2
 1332 413 1332 413 1308 395 c 0,3,4
 1265 363 1265 363 1228 350 c 1,5,-1
 1228 345 l 1,6,7
 1276 337 1276 337 1340 304 c 0,8,9
 1376 285 1376 285 1398.5 251.5 c 128,-1,10
 1421 218 1421 218 1421 176 c 128,-1,11
 1421 134 1421 134 1400 102 c 128,-1,12
 1379 70 1379 70 1347 51.5 c 128,-1,13
 1315 33 1315 33 1272 21 c 0,14,15
 1197 0 1197 0 1114 0 c 2,16,-1
 73 0 l 1,17,-1
 73 43 l 1,18,-1
 193 43 l 2,19,20
 242 43 242 43 271.5 69 c 128,-1,21
 301 95 301 95 301 151 c 2,22,-1
 301 497 l 2,23,24
 301 542 301 542 269.5 574.5 c 128,-1,25
 238 607 238 607 193 607 c 2,26,-1
 73 607 l 1,27,-1
 73 650 l 1,28,-1
 1035 650 l 2,29,30
 1231 650 1231 650 1300 612 c 1,31,32
 1362 576 1362 576 1362 507 c 0,0,1
776 43 m 2,33,-1
 867 43 l 2,34,35
 927 43 927 43 972.5 76.5 c 128,-1,36
 1018 110 1018 110 1018 182.5 c 128,-1,37
 1018 255 1018 255 973.5 289.5 c 128,-1,38
 929 324 929 324 856 324 c 2,39,-1
 692 324 l 1,40,-1
 692 145 l 2,41,42
 692 43 692 43 776 43 c 2,33,-1
692 508 m 2,43,-1
 692 362 l 1,44,-1
 849 362 l 2,45,46
 900 362 900 362 940 393.5 c 128,-1,47
 980 425 980 425 980 484 c 128,-1,48
 980 543 980 543 936 574.5 c 128,-1,49
 892 606 892 606 810 606 c 0,50,51
 755 606 755 606 723.5 579.5 c 128,-1,52
 692 553 692 553 692 508 c 2,43,-1
434 43 m 1,53,-1
 434 607 l 1,54,-1
 369 607 l 1,55,-1
 369 43 l 1,56,-1
 434 43 l 1,53,-1
1132 478 m 128,-1,58
 1132 517 1132 517 1102 547 c 128,-1,59
 1072 577 1072 577 1024 591 c 1,60,-1
 1021 588 l 1,61,62
 1061 538 1061 538 1061 477.5 c 128,-1,63
 1061 417 1061 417 1021 368 c 1,64,-1
 1024 364 l 1,65,66
 1072 380 1072 380 1102 409.5 c 128,-1,57
 1132 439 1132 439 1132 478 c 128,-1,58
1136.5 102 m 128,-1,68
 1172 138 1172 138 1172 184.5 c 128,-1,69
 1172 231 1172 231 1136.5 267.5 c 128,-1,70
 1101 304 1101 304 1043 323 c 1,71,-1
 1040 319 l 1,72,73
 1102 265 1102 265 1102 184.5 c 128,-1,74
 1102 104 1102 104 1041 51 c 1,75,-1
 1043 47 l 1,76,67
 1101 66 1101 66 1136.5 102 c 128,-1,68
EndSplineSet
EndChar

StartChar: C
Encoding: 67 67 38
Width: 1097
GlyphClass: 2
Flags: W
LayerCount: 2
Fore
SplineSet
666 -22 m 0,0,1
 398 -22 398 -22 216 60 c 0,2,3
 125 100 125 100 73.5 169 c 128,-1,4
 22 238 22 238 22 328 c 128,-1,5
 22 418 22 418 77 487.5 c 128,-1,6
 132 557 132 557 222 596 c 0,7,8
 404 674 404 674 630 674 c 0,9,10
 785 674 785 674 989 600 c 1,11,-1
 989 650 l 1,12,-1
 1037 650 l 1,13,-1
 1037 411 l 1,14,-1
 989 411 l 1,15,16
 946 492 946 492 840.5 561 c 128,-1,17
 735 630 735 630 625 630 c 0,18,19
 543 630 543 630 508.5 591.5 c 128,-1,20
 474 553 474 553 474 485 c 2,21,-1
 474 211 l 2,22,23
 474 109 474 109 517.5 64.5 c 128,-1,24
 561 20 561 20 658.5 20 c 128,-1,25
 756 20 756 20 831.5 39 c 128,-1,26
 907 58 907 58 947 81.5 c 128,-1,27
 987 105 987 105 1019 124 c 128,-1,28
 1051 143 1051 143 1060 143 c 0,29,30
 1084 143 1084 143 1084 123 c 0,31,32
 1084 95 1084 95 980 42 c 1,33,34
 850 -22 850 -22 666 -22 c 0,0,1
209 167.5 m 128,-1,36
 152 232 152 232 152 324 c 128,-1,37
 152 416 152 416 209 487 c 128,-1,38
 266 558 266 558 357 600 c 1,39,-1
 356 605 l 1,40,41
 234 571 234 571 157.5 493 c 128,-1,42
 81 415 81 415 81 324 c 128,-1,43
 81 233 81 233 157 162 c 128,-1,44
 233 91 233 91 356 59 c 1,45,-1
 357 64 l 1,46,35
 266 103 266 103 209 167.5 c 128,-1,36
EndSplineSet
EndChar

StartChar: D
Encoding: 68 68 39
Width: 1469
GlyphClass: 2
Flags: W
LayerCount: 2
Fore
SplineSet
70 650 m 1,0,-1
 833 650 l 2,1,2
 1079 650 1079 650 1253 580 c 0,3,4
 1342 545 1342 545 1394 482.5 c 128,-1,5
 1446 420 1446 420 1446 338.5 c 128,-1,6
 1446 257 1446 257 1409 195 c 128,-1,7
 1372 133 1372 133 1316.5 97.5 c 128,-1,8
 1261 62 1261 62 1188 39 c 0,9,10
 1063 0 1063 0 925 0 c 2,11,-1
 70 0 l 1,12,-1
 70 43 l 1,13,-1
 190 43 l 2,14,15
 239 43 239 43 269 69 c 128,-1,16
 299 95 299 95 299 152 c 2,17,-1
 299 498 l 2,18,19
 299 542 299 542 267 574.5 c 128,-1,20
 235 607 235 607 190 607 c 2,21,-1
 70 607 l 1,22,-1
 70 650 l 1,0,-1
431 43 m 1,23,-1
 431 607 l 1,24,-1
 366 607 l 1,25,-1
 366 43 l 1,26,-1
 431 43 l 1,23,-1
772 43 m 2,27,-1
 863 43 l 2,28,29
 922 43 922 43 961 86 c 0,30,31
 1030 161 1030 161 1030 324 c 0,32,33
 1030 606 1030 606 807 606 c 0,34,35
 752 606 752 606 720 579.5 c 128,-1,36
 688 553 688 553 688 508 c 2,37,-1
 688 145 l 2,38,39
 688 43 688 43 772 43 c 2,27,-1
1200 324 m 128,-1,41
 1200 504 1200 504 1034 598 c 1,42,-1
 1032 595 l 1,43,44
 1119 477 1119 477 1119 324 c 128,-1,45
 1119 171 1119 171 1032 53 c 1,46,-1
 1034 50 l 1,47,40
 1200 144 1200 144 1200 324 c 128,-1,41
EndSplineSet
EndChar

StartChar: E
Encoding: 69 69 40
Width: 1360
GlyphClass: 2
Flags: W
LayerCount: 2
Fore
SplineSet
804 605 m 0,0,1
 752 605 752 605 721.5 578 c 128,-1,2
 691 551 691 551 691 508 c 2,3,-1
 691 474 l 2,4,5
 691 372 691 372 779 372 c 0,6,7
 847 372 847 372 922.5 410 c 128,-1,8
 998 448 998 448 1022 499 c 1,9,-1
 1059 499 l 1,10,-1
 1059 194 l 1,11,-1
 1022 194 l 1,12,13
 999 247 999 247 925 279.5 c 128,-1,14
 851 312 851 312 779 312 c 0,15,16
 732 312 732 312 711.5 286 c 128,-1,17
 691 260 691 260 691 223 c 2,18,-1
 691 187 l 2,19,20
 691 110 691 110 706.5 76.5 c 128,-1,21
 722 43 722 43 777 43 c 2,22,-1
 802 43 l 2,23,24
 858 43 858 43 894 44.5 c 128,-1,25
 930 46 930 46 986 55.5 c 128,-1,26
 1042 65 1042 65 1083 81.5 c 128,-1,27
 1124 98 1124 98 1170 131.5 c 128,-1,28
 1216 165 1216 165 1251 212 c 1,29,-1
 1280 212 l 1,30,-1
 1280 0 l 1,31,-1
 73 0 l 1,32,-1
 73 43 l 1,33,-1
 193 43 l 2,34,35
 302 43 302 43 302 151 c 2,36,-1
 302 497 l 2,37,38
 302 542 302 542 270 574.5 c 128,-1,39
 238 607 238 607 193 607 c 2,40,-1
 73 607 l 1,41,-1
 73 650 l 1,42,-1
 1280 650 l 1,43,-1
 1280 420 l 1,44,-1
 1251 420 l 1,45,46
 1193 498 1193 498 1083 551.5 c 128,-1,47
 973 605 973 605 804 605 c 0,0,1
435 43 m 1,48,-1
 435 607 l 1,49,-1
 369 607 l 1,50,-1
 369 43 l 1,51,-1
 435 43 l 1,48,-1
EndSplineSet
EndChar

StartChar: F
Encoding: 70 70 41
Width: 1235
GlyphClass: 2
Flags: W
LayerCount: 2
Fore
SplineSet
910 43 m 1,0,-1
 910 0 l 1,1,-1
 73 0 l 1,2,-1
 73 43 l 1,3,-1
 193 43 l 2,4,5
 242 43 242 43 271.5 69 c 128,-1,6
 301 95 301 95 301 152 c 2,7,-1
 301 497 l 2,8,9
 301 542 301 542 269.5 574.5 c 128,-1,10
 238 607 238 607 193 607 c 2,11,-1
 73 607 l 1,12,-1
 73 650 l 1,13,-1
 1208 650 l 1,14,-1
 1208 463 l 1,15,-1
 1180 463 l 1,16,17
 1153 492 1153 492 1140 504 c 128,-1,18
 1127 516 1127 516 1092.5 540 c 128,-1,19
 1058 564 1058 564 1024 576 c 0,20,21
 934 606 934 606 804 606 c 0,22,23
 752 606 752 606 722 579 c 128,-1,24
 692 552 692 552 692 508 c 2,25,-1
 692 474 l 2,26,27
 692 372 692 372 779 372 c 0,28,29
 840 372 840 372 887 397.5 c 128,-1,30
 934 423 934 423 961 463 c 1,31,-1
 998 463 l 1,32,-1
 998 213 l 1,33,-1
 961 213 l 1,34,35
 937 268 937 268 892.5 290.5 c 128,-1,36
 848 313 848 313 779 313 c 0,37,38
 732 313 732 313 712 287 c 128,-1,39
 692 261 692 261 692 223 c 2,40,-1
 692 147 l 2,41,42
 692 81 692 81 717 62 c 128,-1,43
 742 43 742 43 810 43 c 2,44,-1
 910 43 l 1,0,-1
434 43 m 1,45,-1
 434 607 l 1,46,-1
 369 607 l 1,47,-1
 369 43 l 1,48,-1
 434 43 l 1,45,-1
EndSplineSet
EndChar

StartChar: G
Encoding: 71 71 42
Width: 1372
GlyphClass: 2
Flags: W
LayerCount: 2
Fore
SplineSet
603 391 m 1,0,-1
 1403 391 l 1,1,-1
 1403 348 l 1,2,-1
 1213 348 l 1,3,-1
 1213 0 l 1,4,-1
 1165 0 l 1,5,6
 1165 28 1165 28 1146.5 45.5 c 128,-1,7
 1128 63 1128 63 1099.5 63 c 128,-1,8
 1071 63 1071 63 1030 49.5 c 128,-1,9
 989 36 989 36 945.5 20 c 128,-1,10
 902 4 902 4 826 -9.5 c 128,-1,11
 750 -23 750 -23 652.5 -23 c 128,-1,12
 555 -23 555 -23 460 -11 c 128,-1,13
 365 1 365 1 283.5 27.5 c 128,-1,14
 202 54 202 54 144.5 94.5 c 128,-1,15
 87 135 87 135 54.5 194.5 c 128,-1,16
 22 254 22 254 22 328 c 0,17,18
 22 674 22 674 630 674 c 0,19,20
 855 674 855 674 1079 607 c 1,21,-1
 1079 650 l 1,22,-1
 1127 650 l 1,23,-1
 1127 439 l 1,24,-1
 1079 439 l 1,25,26
 1031 513 1031 513 919.5 571 c 128,-1,27
 808 629 808 629 684 629 c 0,28,29
 590 629 590 629 532 593 c 128,-1,30
 474 557 474 557 474 482 c 2,31,-1
 474 203 l 2,32,33
 474 21 474 21 669 21 c 0,34,35
 725 21 725 21 773 48 c 0,36,37
 800 64 800 64 816 96.5 c 128,-1,38
 832 129 832 129 832 175 c 2,39,-1
 832 247 l 2,40,41
 832 289 832 289 797 318.5 c 128,-1,42
 762 348 762 348 718 348 c 2,43,-1
 603 348 l 1,44,-1
 603 391 l 1,0,-1
198 179.5 m 128,-1,46
 159 250 159 250 159 334.5 c 128,-1,47
 159 419 159 419 198 489 c 128,-1,48
 237 559 237 559 301 596 c 1,49,-1
 299 601 l 1,50,51
 204 570 204 570 144.5 497.5 c 128,-1,52
 85 425 85 425 85 335 c 128,-1,53
 85 245 85 245 145 171.5 c 128,-1,54
 205 98 205 98 300 67 c 1,55,-1
 301 71 l 1,56,45
 237 109 237 109 198 179.5 c 128,-1,46
964 215 m 2,57,-1
 964 346 l 1,58,-1
 899 346 l 1,59,-1
 899 149 l 2,60,61
 899 71 899 71 914 71 c 0,62,63
 932 71 932 71 948 114.5 c 128,-1,64
 964 158 964 158 964 215 c 2,57,-1
EndSplineSet
EndChar

StartChar: H
Encoding: 72 72 43
Width: 1711
GlyphClass: 2
Flags: W
LayerCount: 2
Fore
SplineSet
1402 497 m 2,0,-1
 1402 151 l 2,1,2
 1402 95 1402 95 1432 69 c 128,-1,3
 1462 43 1462 43 1511 43 c 2,4,-1
 1632 43 l 1,5,-1
 1632 0 l 1,6,-1
 877 0 l 1,7,-1
 877 43 l 1,8,9
 972 43 972 43 994 71 c 0,10,11
 1006 86 1006 86 1009 99.5 c 128,-1,12
 1012 113 1012 113 1012 139 c 2,13,-1
 1012 274 l 2,14,15
 1012 318 1012 318 970 318 c 2,16,-1
 734 318 l 2,17,18
 692 318 692 318 692 274 c 2,19,-1
 692 136 l 2,20,21
 692 110 692 110 695 97 c 128,-1,22
 698 84 698 84 710 70 c 0,23,24
 732 43 732 43 827 43 c 1,25,-1
 827 0 l 1,26,-1
 73 0 l 1,27,-1
 73 43 l 1,28,-1
 193 43 l 2,29,30
 242 43 242 43 271.5 68.5 c 128,-1,31
 301 94 301 94 301 151 c 2,32,-1
 301 497 l 2,33,34
 301 542 301 542 269.5 574.5 c 128,-1,35
 238 607 238 607 193 607 c 2,36,-1
 73 607 l 1,37,-1
 73 650 l 1,38,-1
 827 650 l 1,39,-1
 827 607 l 1,40,41
 750 607 750 607 721 581.5 c 128,-1,42
 692 556 692 556 692 508 c 2,43,-1
 692 371 l 1,44,-1
 1012 371 l 1,45,-1
 1012 508 l 2,46,47
 1012 556 1012 556 983 581.5 c 128,-1,48
 954 607 954 607 877 607 c 1,49,-1
 877 650 l 1,50,-1
 1632 650 l 1,51,-1
 1632 607 l 1,52,-1
 1511 607 l 2,53,54
 1467 607 1467 607 1434.5 574 c 128,-1,55
 1402 541 1402 541 1402 497 c 2,0,-1
434 43 m 1,56,-1
 434 607 l 1,57,-1
 369 607 l 1,58,-1
 369 43 l 1,59,-1
 434 43 l 1,56,-1
1146 43 m 1,60,-1
 1146 607 l 1,61,-1
 1081 607 l 1,62,-1
 1081 43 l 1,63,-1
 1146 43 l 1,60,-1
EndSplineSet
EndChar

StartChar: I
Encoding: 73 73 44
Width: 1003
GlyphClass: 2
Flags: W
LayerCount: 2
Fore
SplineSet
694 497 m 2,0,-1
 694 151 l 2,1,2
 694 95 694 95 724 69 c 128,-1,3
 754 43 754 43 803 43 c 2,4,-1
 924 43 l 1,5,-1
 924 0 l 1,6,-1
 73 0 l 1,7,-1
 73 43 l 1,8,-1
 195 43 l 2,9,10
 244 43 244 43 274 69 c 128,-1,11
 304 95 304 95 304 151 c 2,12,-1
 304 497 l 2,13,14
 304 542 304 542 272 574.5 c 128,-1,15
 240 607 240 607 195 607 c 2,16,-1
 73 607 l 1,17,-1
 73 650 l 1,18,-1
 924 650 l 1,19,-1
 924 607 l 1,20,-1
 803 607 l 2,21,22
 758 607 758 607 726 574.5 c 128,-1,23
 694 542 694 542 694 497 c 2,0,-1
436 43 m 1,24,-1
 436 607 l 1,25,-1
 371 607 l 1,26,-1
 371 43 l 1,27,-1
 436 43 l 1,24,-1
EndSplineSet
EndChar

StartChar: J
Encoding: 74 74 45
Width: 1088
GlyphClass: 2
Flags: W
LayerCount: 2
Fore
SplineSet
608 208 m 2,0,-1
 608 607 l 1,1,-1
 544 607 l 1,2,-1
 544 64 l 1,3,4
 608 90 608 90 608 208 c 2,0,-1
247 650 m 1,5,-1
 1075 650 l 1,6,-1
 1075 607 l 1,7,-1
 976 607 l 2,8,9
 925 607 925 607 896 575 c 128,-1,10
 867 543 867 543 867 497 c 2,11,-1
 867 196 l 2,12,13
 867 143 867 143 846.5 104.5 c 128,-1,14
 826 66 826 66 778 36 c 0,15,16
 683 -22 683 -22 452.5 -22 c 128,-1,17
 222 -22 222 -22 35 51 c 1,18,-1
 35 0 l 1,19,-1
 -14 0 l 1,20,-1
 -14 262 l 1,21,-1
 35 262 l 1,22,23
 47 233 47 233 82 185 c 128,-1,24
 117 137 117 137 152.5 105 c 128,-1,25
 188 73 188 73 246 47 c 128,-1,26
 304 21 304 21 360 21 c 0,27,28
 477 21 477 21 477 129 c 2,29,-1
 477 497 l 2,30,31
 477 543 477 543 447.5 575 c 128,-1,32
 418 607 418 607 368 607 c 2,33,-1
 247 607 l 1,34,-1
 247 650 l 1,5,-1
EndSplineSet
EndChar

StartChar: K
Encoding: 75 75 46
Width: 1655
GlyphClass: 2
Flags: W
LayerCount: 2
Fore
SplineSet
873 0 m 1,0,-1
 73 0 l 1,1,-1
 73 43 l 1,2,-1
 193 43 l 2,3,4
 242 43 242 43 271.5 69 c 128,-1,5
 301 95 301 95 301 151 c 2,6,-1
 301 498 l 2,7,8
 301 543 301 543 269.5 575 c 128,-1,9
 238 607 238 607 193 607 c 2,10,-1
 73 607 l 1,11,-1
 73 650 l 1,12,-1
 915 650 l 1,13,-1
 915 607 l 1,14,-1
 804 607 l 2,15,16
 752 607 752 607 722 580 c 128,-1,17
 692 553 692 553 692 509 c 2,18,-1
 692 403 l 2,19,20
 692 345 692 345 750 345 c 2,21,-1
 770 345 l 2,22,23
 807 345 807 345 864 371 c 2,24,-1
 1061 460 l 2,25,26
 1125 489 1125 489 1153 512.5 c 128,-1,27
 1181 536 1181 536 1181 562.5 c 128,-1,28
 1181 589 1181 589 1150.5 598 c 128,-1,29
 1120 607 1120 607 1041 607 c 1,30,-1
 1041 650 l 1,31,-1
 1633 650 l 1,32,-1
 1633 607 l 1,33,-1
 1526 607 l 2,34,35
 1489 607 1489 607 1412 575 c 0,36,37
 1319 536 1319 536 1216 478 c 0,38,39
 1186 460 1186 460 1186 437.5 c 128,-1,40
 1186 415 1186 415 1201 397 c 2,41,-1
 1499 43 l 1,42,-1
 1633 43 l 1,43,-1
 1633 0 l 1,44,-1
 1077 0 l 1,45,-1
 813 296 l 1,46,-1
 734 296 l 2,47,48
 692 296 692 296 692 252 c 2,49,-1
 692 151 l 2,50,51
 692 95 692 95 722 69 c 128,-1,52
 752 43 752 43 801 43 c 2,53,-1
 873 43 l 1,54,-1
 873 0 l 1,0,-1
434 43 m 1,55,-1
 434 607 l 1,56,-1
 369 607 l 1,57,-1
 369 43 l 1,58,-1
 434 43 l 1,55,-1
1213 43 m 1,59,-1
 962 324 l 1,60,-1
 875 324 l 1,61,-1
 1126 43 l 1,62,-1
 1213 43 l 1,59,-1
EndSplineSet
EndChar

StartChar: L
Encoding: 76 76 47
Width: 1249
GlyphClass: 2
Flags: W
LayerCount: 2
Fore
SplineSet
692 497 m 2,0,-1
 692 151 l 2,1,2
 692 43 692 43 801 43 c 0,3,4
 885 43 885 43 984 89 c 0,5,6
 1037 114 1037 114 1094 165 c 128,-1,7
 1151 216 1151 216 1202 288 c 1,8,-1
 1236 288 l 1,9,-1
 1236 0 l 1,10,-1
 73 0 l 1,11,-1
 73 43 l 1,12,-1
 193 43 l 2,13,14
 242 43 242 43 271.5 68.5 c 128,-1,15
 301 94 301 94 301 151 c 2,16,-1
 301 497 l 2,17,18
 301 542 301 542 269.5 574.5 c 128,-1,19
 238 607 238 607 193 607 c 2,20,-1
 73 607 l 1,21,-1
 73 650 l 1,22,-1
 968 650 l 1,23,-1
 968 607 l 1,24,-1
 801 607 l 2,25,26
 756 607 756 607 724 574.5 c 128,-1,27
 692 542 692 542 692 497 c 2,0,-1
434 43 m 1,28,-1
 434 607 l 1,29,-1
 369 607 l 1,30,-1
 369 43 l 1,31,-1
 434 43 l 1,28,-1
EndSplineSet
EndChar

StartChar: M
Encoding: 77 77 48
Width: 1858
GlyphClass: 2
Flags: W
LayerCount: 2
Fore
SplineSet
1226 607 m 1,0,-1
 1226 43 l 1,1,-1
 1291 43 l 1,2,-1
 1291 607 l 1,3,-1
 1226 607 l 1,0,-1
1825 607 m 1,4,-1
 1658 607 l 2,5,6
 1609 607 1609 607 1579 587.5 c 128,-1,7
 1549 568 1549 568 1549 526 c 2,8,-1
 1549 151 l 2,9,10
 1549 95 1549 95 1579 69 c 128,-1,11
 1609 43 1609 43 1658 43 c 2,12,-1
 1825 43 l 1,13,-1
 1825 0 l 1,14,-1
 930 0 l 1,15,-1
 930 43 l 1,16,-1
 1050 43 l 2,17,18
 1099 43 1099 43 1129 69 c 128,-1,19
 1159 95 1159 95 1159 151 c 2,20,-1
 1159 559 l 1,21,-1
 853 85 l 1,22,-1
 801 85 l 1,23,-1
 415 411 l 1,24,-1
 415 277 l 2,25,26
 415 216 415 216 445 168.5 c 128,-1,27
 475 121 475 121 523 95 c 0,28,29
 619 43 619 43 730 43 c 1,30,-1
 730 0 l 1,31,-1
 35 0 l 1,32,-1
 35 43 l 1,33,34
 146 43 146 43 242 95 c 0,35,36
 290 121 290 121 320 168.5 c 128,-1,37
 350 216 350 216 350 277 c 2,38,-1
 350 382 l 2,39,40
 350 448 350 448 302 500.5 c 128,-1,41
 254 553 254 553 180 580 c 128,-1,42
 106 607 106 607 22 607 c 1,43,-1
 22 650 l 1,44,-1
 669 650 l 1,45,-1
 976 389 l 1,46,-1
 1144 650 l 1,47,-1
 1825 650 l 1,48,-1
 1825 607 l 1,4,-1
836 169 m 1,49,-1
 836 232 l 1,50,-1
 396 605 l 1,51,-1
 296 605 l 1,52,-1
 811 169 l 1,53,-1
 836 169 l 1,49,-1
EndSplineSet
EndChar

StartChar: N
Encoding: 78 78 49
Width: 1544
GlyphClass: 2
Flags: W
LayerCount: 2
Fore
SplineSet
1009 650 m 1,0,-1
 1529 650 l 1,1,-1
 1529 607 l 1,2,3
 1301 607 1301 607 1301 410 c 2,4,-1
 1301 -42 l 1,5,-1
 1211 -42 l 1,6,-1
 515 379 l 2,7,8
 490 393 490 393 465 393 c 0,9,10
 415 393 415 393 415 323 c 2,11,-1
 415 277 l 2,12,13
 415 215 415 215 445 168 c 128,-1,14
 475 121 475 121 524 95 c 0,15,16
 620 43 620 43 730 43 c 1,17,-1
 730 0 l 1,18,-1
 35 0 l 1,19,-1
 35 43 l 1,20,21
 144 43 144 43 242 95 c 0,22,23
 290 121 290 121 320 168 c 128,-1,24
 350 215 350 215 350 277 c 2,25,-1
 350 382 l 2,26,27
 350 448 350 448 302 500.5 c 128,-1,28
 254 553 254 553 180 580 c 128,-1,29
 106 607 106 607 23 607 c 1,30,-1
 23 650 l 1,31,-1
 772 650 l 1,32,-1
 1120 431 l 2,33,34
 1196 383 1196 383 1214 383 c 0,35,36
 1237 383 1237 383 1237 410 c 0,37,38
 1237 607 1237 607 1009 607 c 1,39,-1
 1009 650 l 1,0,-1
356 607 m 1,40,-1
 356 552 l 1,41,-1
 1211 35 l 1,42,-1
 1211 107 l 1,43,-1
 383 607 l 1,44,-1
 356 607 l 1,40,-1
EndSplineSet
EndChar

StartChar: O
Encoding: 79 79 50
Width: 1345
GlyphClass: 2
Flags: W
LayerCount: 2
Fore
SplineSet
1322 325 m 0,0,1
 1322 231 1322 231 1235 151 c 128,-1,2
 1148 71 1148 71 998.5 24.5 c 128,-1,3
 849 -22 849 -22 672 -22 c 128,-1,4
 495 -22 495 -22 345.5 24.5 c 128,-1,5
 196 71 196 71 109 151 c 128,-1,6
 22 231 22 231 22 325 c 0,7,8
 22 472 22 472 201 571 c 128,-1,9
 380 670 380 670 672 670 c 128,-1,10
 964 670 964 670 1143 571 c 128,-1,11
 1322 472 1322 472 1322 325 c 0,0,1
834.5 556 m 128,-1,13
 790 629 790 629 672.5 629 c 128,-1,14
 555 629 555 629 510 555.5 c 128,-1,15
 465 482 465 482 465 328.5 c 128,-1,16
 465 175 465 175 519 97 c 128,-1,17
 573 19 573 19 672 19 c 128,-1,18
 771 19 771 19 825 97 c 128,-1,19
 879 175 879 175 879 329 c 128,-1,12
 879 483 879 483 834.5 556 c 128,-1,13
149 325 m 128,-1,21
 149 414 149 414 214.5 489 c 128,-1,22
 280 564 280 564 389 607 c 1,23,-1
 388 611 l 1,24,25
 246 569 246 569 161 492.5 c 128,-1,26
 76 416 76 416 76 325 c 128,-1,27
 76 234 76 234 159.5 158.5 c 128,-1,28
 243 83 243 83 384 40 c 1,29,-1
 385 44 l 1,30,31
 277 87 277 87 213 161.5 c 128,-1,20
 149 236 149 236 149 325 c 128,-1,21
1035 325 m 128,-1,33
 1035 403 1035 403 1001 476.5 c 128,-1,34
 967 550 967 550 909 603 c 1,35,-1
 903 601 l 1,36,37
 960 460 960 460 960 325 c 128,-1,38
 960 190 960 190 903 49 c 1,39,-1
 909 47 l 1,40,41
 967 100 967 100 1001 173.5 c 128,-1,32
 1035 247 1035 247 1035 325 c 128,-1,33
EndSplineSet
EndChar

StartChar: P
Encoding: 80 80 51
Width: 1447
GlyphClass: 2
Flags: W
LayerCount: 2
Fore
SplineSet
73 650 m 1,0,-1
 1082 650 l 2,1,2
 1434 650 1434 650 1434 469 c 0,3,4
 1434 284 1434 284 1122 284 c 2,5,-1
 749 284 l 2,6,7
 721 284 721 284 707.5 268 c 128,-1,8
 694 252 694 252 694 216 c 2,9,-1
 694 151 l 2,10,11
 694 95 694 95 723.5 69 c 128,-1,12
 753 43 753 43 802 43 c 2,13,-1
 924 43 l 1,14,-1
 924 0 l 1,15,-1
 73 0 l 1,16,-1
 73 43 l 1,17,-1
 194 43 l 2,18,19
 243 43 243 43 273 69 c 128,-1,20
 303 95 303 95 303 151 c 2,21,-1
 303 497 l 2,22,23
 303 542 303 542 271 574.5 c 128,-1,24
 239 607 239 607 194 607 c 2,25,-1
 73 607 l 1,26,-1
 73 650 l 1,0,-1
436 43 m 1,27,-1
 436 607 l 1,28,-1
 370 607 l 1,29,-1
 370 43 l 1,30,-1
 436 43 l 1,27,-1
745 329 m 2,31,-1
 846 329 l 2,32,33
 926 329 926 329 980 387 c 0,34,35
 1010 420 1010 420 1010 468 c 128,-1,36
 1010 516 1010 516 980 549 c 0,37,38
 926 607 926 607 846 607 c 2,39,-1
 745 607 l 2,40,41
 724 607 724 607 709.5 592 c 128,-1,42
 695 577 695 577 695 556 c 2,43,-1
 695 379 l 2,44,45
 695 359 695 359 709.5 344 c 128,-1,46
 724 329 724 329 745 329 c 2,31,-1
1157 468 m 128,-1,48
 1157 510 1157 510 1128.5 549.5 c 128,-1,49
 1100 589 1100 589 1061 603 c 1,50,-1
 1056 600 l 1,51,52
 1088 551 1088 551 1088 468 c 128,-1,53
 1088 385 1088 385 1056 336 c 1,54,-1
 1061 333 l 1,55,56
 1100 347 1100 347 1128.5 386.5 c 128,-1,47
 1157 426 1157 426 1157 468 c 128,-1,48
EndSplineSet
EndChar

StartChar: Q
Encoding: 81 81 52
Width: 1345
GlyphClass: 2
Flags: W
LayerCount: 2
Fore
SplineSet
1322 325 m 0,0,1
 1322 238 1322 238 1246.5 162.5 c 128,-1,2
 1171 87 1171 87 1040.5 39 c 128,-1,3
 910 -9 910 -9 751 -19 c 1,4,5
 721 -58 721 -58 721 -106 c 0,6,7
 721 -132 721 -132 731 -148 c 128,-1,8
 741 -164 741 -164 759 -164 c 2,9,-1
 916 -164 l 1,10,-1
 916 -207 l 1,11,-1
 427 -207 l 1,12,-1
 427 -164 l 1,13,14
 463 -88 463 -88 638 -25 c 1,15,-1
 638 -21 l 1,16,17
 469 -16 469 -16 327.5 31 c 128,-1,18
 186 78 186 78 104 156 c 128,-1,19
 22 234 22 234 22 325 c 0,20,21
 22 473 22 473 201 572 c 128,-1,22
 380 671 380 671 672 671 c 128,-1,23
 964 671 964 671 1143 572 c 128,-1,24
 1322 473 1322 473 1322 325 c 0,0,1
510 556 m 128,-1,26
 465 483 465 483 465 329.5 c 128,-1,27
 465 176 465 176 519 98 c 128,-1,28
 573 20 573 20 672 20 c 128,-1,29
 771 20 771 20 825 98 c 128,-1,30
 879 176 879 176 879 329.5 c 128,-1,31
 879 483 879 483 834.5 556 c 128,-1,32
 790 629 790 629 672.5 629 c 128,-1,25
 555 629 555 629 510 556 c 128,-1,26
497 -164 m 1,33,-1
 558 -164 l 1,34,35
 558 -126 558 -126 657 -42 c 1,36,-1
 655 -39 l 1,37,38
 611 -55 611 -55 554 -96.5 c 128,-1,39
 497 -138 497 -138 497 -164 c 1,33,-1
149 325 m 128,-1,41
 149 414 149 414 214.5 489 c 128,-1,42
 280 564 280 564 389 607 c 1,43,-1
 388 611 l 1,44,45
 246 569 246 569 161 492.5 c 128,-1,46
 76 416 76 416 76 325 c 128,-1,47
 76 234 76 234 159.5 158.5 c 128,-1,48
 243 83 243 83 384 40 c 1,49,-1
 385 44 l 1,50,51
 277 87 277 87 213 161.5 c 128,-1,40
 149 236 149 236 149 325 c 128,-1,41
1035 325 m 128,-1,53
 1035 403 1035 403 1001 476.5 c 128,-1,54
 967 550 967 550 909 603 c 1,55,-1
 903 601 l 1,56,57
 960 460 960 460 960 325 c 128,-1,58
 960 190 960 190 903 49 c 1,59,-1
 909 47 l 1,60,61
 967 100 967 100 1001 173.5 c 128,-1,52
 1035 247 1035 247 1035 325 c 128,-1,53
EndSplineSet
EndChar

StartChar: R
Encoding: 82 82 53
Width: 1585
GlyphClass: 2
Flags: W
LayerCount: 2
Fore
SplineSet
1571 43 m 1,0,-1
 1571 0 l 1,1,-1
 978 0 l 1,2,-1
 778 256 l 2,3,4
 746 298 746 298 725 298 c 128,-1,5
 704 298 704 298 699 283 c 128,-1,6
 694 268 694 268 694 227 c 2,7,-1
 694 152 l 2,8,9
 694 95 694 95 723.5 69 c 128,-1,10
 753 43 753 43 802 43 c 2,11,-1
 877 43 l 1,12,-1
 877 0 l 1,13,-1
 73 0 l 1,14,-1
 73 43 l 1,15,-1
 194 43 l 2,16,17
 244 43 244 43 273.5 69 c 128,-1,18
 303 95 303 95 303 152 c 2,19,-1
 303 497 l 2,20,21
 303 542 303 542 271 574.5 c 128,-1,22
 239 607 239 607 194 607 c 2,23,-1
 73 607 l 1,24,-1
 73 650 l 1,25,-1
 1147 650 l 2,26,27
 1333 650 1333 650 1418 603 c 0,28,29
 1453 584 1453 584 1476 550 c 128,-1,30
 1499 516 1499 516 1499 471 c 128,-1,31
 1499 426 1499 426 1475 394.5 c 128,-1,32
 1451 363 1451 363 1415.5 345 c 128,-1,33
 1380 327 1380 327 1326 316 c 0,34,35
 1237 298 1237 298 1120 296 c 1,36,-1
 1120 291 l 1,37,38
 1145 270 1145 270 1198.5 247.5 c 128,-1,39
 1252 225 1252 225 1319 215 c 1,40,-1
 1453 43 l 1,41,-1
 1571 43 l 1,0,-1
695 556 m 2,42,-1
 695 413 l 2,43,44
 695 387 695 387 744 368 c 128,-1,45
 793 349 793 349 860 349 c 128,-1,46
 927 349 927 349 976.5 378 c 128,-1,47
 1026 407 1026 407 1026 461.5 c 128,-1,48
 1026 516 1026 516 996 549 c 0,49,50
 942 607 942 607 862 607 c 2,51,-1
 745 607 l 2,52,53
 724 607 724 607 709.5 592 c 128,-1,54
 695 577 695 577 695 556 c 2,42,-1
436 43 m 1,55,-1
 436 607 l 1,56,-1
 370 607 l 1,57,-1
 370 43 l 1,58,-1
 436 43 l 1,55,-1
1024 43 m 1,59,-1
 1107 43 l 1,60,-1
 909 298 l 1,61,-1
 826 298 l 1,62,-1
 1024 43 l 1,59,-1
1161.5 384 m 128,-1,64
 1188 421 1188 421 1188 468.5 c 128,-1,65
 1188 516 1188 516 1161 552.5 c 128,-1,66
 1134 589 1134 589 1092 601 c 1,67,-1
 1089 598 l 1,68,69
 1119 554 1119 554 1119 469 c 128,-1,70
 1119 384 1119 384 1090 339 c 1,71,-1
 1093 336 l 1,72,63
 1135 347 1135 347 1161.5 384 c 128,-1,64
EndSplineSet
EndChar

StartChar: S
Encoding: 83 83 54
Width: 1261
GlyphClass: 2
Flags: W
LayerCount: 2
Fore
SplineSet
96 447 m 0,0,1
 96 492 96 492 113 528 c 128,-1,2
 130 564 130 564 155 587 c 128,-1,3
 180 610 180 610 222.5 626.5 c 128,-1,4
 265 643 265 643 301 651.5 c 128,-1,5
 337 660 337 660 392 664 c 0,6,7
 473 670 473 670 569 670 c 128,-1,8
 665 670 665 670 812 650.5 c 128,-1,9
 959 631 959 631 1065 607 c 1,10,-1
 1083 650 l 1,11,-1
 1130 650 l 1,12,-1
 1130 439 l 1,13,-1
 1083 439 l 1,14,15
 1045 493 1045 493 864.5 561 c 128,-1,16
 684 629 684 629 557.5 629 c 128,-1,17
 431 629 431 629 431 575 c 0,18,19
 431 524 431 524 577 497 c 0,20,21
 642 485 642 485 720 473 c 128,-1,22
 798 461 798 461 876.5 441.5 c 128,-1,23
 955 422 955 422 1020 395 c 128,-1,24
 1085 368 1085 368 1125.5 319.5 c 128,-1,25
 1166 271 1166 271 1166 206 c 0,26,27
 1166 87 1166 87 1035 33 c 128,-1,28
 904 -21 904 -21 644 -21 c 0,29,30
 513 -21 513 -21 408.5 -2 c 128,-1,31
 304 17 304 17 169 58 c 1,32,-1
 141 0 l 1,33,-1
 94 0 l 1,34,-1
 94 281 l 1,35,-1
 141 281 l 1,36,37
 157 244 157 244 209 199.5 c 128,-1,38
 261 155 261 155 334 114.5 c 128,-1,39
 407 74 407 74 503 47 c 128,-1,40
 599 20 599 20 691 20 c 0,41,42
 858 20 858 20 858 70 c 0,43,44
 858 101 858 101 779.5 127.5 c 128,-1,45
 701 154 701 154 589 178.5 c 128,-1,46
 477 203 477 203 365 234 c 128,-1,47
 253 265 253 265 174.5 319.5 c 128,-1,48
 96 374 96 374 96 447 c 0,0,1
977 92 m 2,49,50
 977 150 977 150 933 183 c 0,51,52
 887 217 887 217 833.5 231.5 c 128,-1,53
 780 246 780 246 748 253.5 c 128,-1,54
 716 261 716 261 663.5 272 c 128,-1,55
 611 283 611 283 553.5 296.5 c 128,-1,56
 496 310 496 310 437 328.5 c 128,-1,57
 378 347 378 347 318 376 c 0,58,59
 195 434 195 434 177 529 c 1,60,-1
 170 530 l 1,61,62
 157 501 157 501 157 460 c 0,63,64
 157 391 157 391 240 341 c 0,65,66
 338 281 338 281 619 216 c 0,67,68
 681 201 681 201 716 193 c 128,-1,69
 751 185 751 185 791.5 174.5 c 128,-1,70
 832 164 832 164 855.5 155 c 128,-1,71
 879 146 879 146 903 133 c 0,72,73
 945 110 945 110 973 68 c 1,74,-1
 977 69 l 1,75,-1
 977 92 l 2,49,50
EndSplineSet
EndChar

StartChar: T
Encoding: 84 84 55
Width: 1104
GlyphClass: 2
Flags: W
LayerCount: 2
Fore
SplineSet
785 606 m 0,0,1
 747 606 747 606 747 557 c 2,2,-1
 747 152 l 2,3,4
 747 95 747 95 777 69 c 128,-1,5
 807 43 807 43 856 43 c 2,6,-1
 977 43 l 1,7,-1
 977 0 l 1,8,-1
 127 0 l 1,9,-1
 127 43 l 1,10,-1
 248 43 l 2,11,12
 297 43 297 43 326.5 69 c 128,-1,13
 356 95 356 95 356 152 c 2,14,-1
 356 557 l 2,15,16
 356 606 356 606 319 606 c 0,17,18
 302 606 302 606 271.5 581 c 128,-1,19
 241 556 241 556 210 521 c 0,20,21
 148 451 148 451 104 390 c 2,22,-1
 86 365 l 1,23,-1
 66 365 l 1,24,-1
 66 650 l 1,25,-1
 1055 650 l 1,26,-1
 1055 365 l 1,27,-1
 1017 365 l 1,28,29
 1001 388 1001 388 961 439 c 128,-1,30
 921 490 921 490 892.5 522 c 128,-1,31
 864 554 864 554 833 580 c 128,-1,32
 802 606 802 606 785 606 c 0,0,1
489 43 m 1,33,-1
 489 607 l 1,34,-1
 424 607 l 1,35,-1
 424 43 l 1,36,-1
 489 43 l 1,33,-1
EndSplineSet
EndChar

StartChar: U
Encoding: 85 85 56
Width: 1217
GlyphClass: 2
Flags: W
LayerCount: 2
Fore
SplineSet
757 650 m 1,0,-1
 1212 650 l 1,1,-1
 1212 607 l 1,2,3
 1169 607 1169 607 1138 600 c 128,-1,4
 1107 593 1107 593 1076 574 c 0,5,6
 1012 535 1012 535 1012 411 c 2,7,-1
 1012 220 l 2,8,9
 1012 113 1012 113 980 72 c 0,10,11
 942 24 942 24 876 4 c 0,12,13
 787 -22 787 -22 657.5 -22 c 128,-1,14
 528 -22 528 -22 438 -8.5 c 128,-1,15
 348 5 348 5 300.5 24 c 128,-1,16
 253 43 253 43 226 72.5 c 128,-1,17
 199 102 199 102 192.5 124.5 c 128,-1,18
 186 147 186 147 186 177 c 2,19,-1
 186 499 l 2,20,21
 186 556 186 556 156.5 581.5 c 128,-1,22
 127 607 127 607 78 607 c 2,23,-1
 40 607 l 1,24,-1
 40 650 l 1,25,-1
 701 650 l 1,26,-1
 701 607 l 1,27,-1
 685 607 l 2,28,29
 636 607 636 607 606.5 581.5 c 128,-1,30
 577 556 577 556 577 499 c 2,31,-1
 577 167 l 2,32,33
 577 95 577 95 603.5 63 c 128,-1,34
 630 31 630 31 699.5 31 c 128,-1,35
 769 31 769 31 821 42 c 128,-1,36
 873 53 873 53 899.5 74 c 128,-1,37
 926 95 926 95 936.5 118.5 c 128,-1,38
 947 142 947 142 947 174 c 2,39,-1
 947 411 l 2,40,41
 947 460 947 460 932.5 497.5 c 128,-1,42
 918 535 918 535 898 555 c 128,-1,43
 878 575 878 575 850 588 c 0,44,45
 806 607 806 607 757 607 c 1,46,-1
 757 650 l 1,0,-1
254 607 m 1,47,-1
 254 210 l 2,48,49
 254 122 254 122 295 96 c 0,50,51
 308 88 308 88 319 88 c 1,52,-1
 319 607 l 1,53,-1
 254 607 l 1,47,-1
EndSplineSet
EndChar

StartChar: V
Encoding: 86 86 57
Width: 1259
GlyphClass: 2
Flags: W
LayerCount: 2
Fore
SplineSet
1273 650 m 1,0,-1
 1273 607 l 1,1,-1
 1222 607 l 1,2,-1
 654 -23 l 1,3,-1
 618 -23 l 1,4,-1
 53 607 l 1,5,-1
 -14 607 l 1,6,-1
 -14 650 l 1,7,-1
 690 650 l 1,8,-1
 690 607 l 1,9,-1
 662 607 l 2,10,11
 632 607 632 607 615.5 586 c 128,-1,12
 599 565 599 565 599 533 c 0,13,14
 599 485 599 485 634 450 c 2,15,-1
 821 260 l 1,16,-1
 951 402 l 1,17,18
 981 433 981 433 981 479.5 c 128,-1,19
 981 526 981 526 931 566.5 c 128,-1,20
 881 607 881 607 805 607 c 2,21,-1
 755 607 l 1,22,-1
 755 650 l 1,23,-1
 1273 650 l 1,0,-1
221 607 m 1,24,-1
 141 607 l 1,25,-1
 651 38 l 1,26,-1
 691 83 l 1,27,-1
 221 607 l 1,24,-1
EndSplineSet
EndChar

StartChar: W
Encoding: 87 87 58
Width: 2028
GlyphClass: 2
Flags: W
LayerCount: 2
Fore
SplineSet
1459 607 m 1,0,-1
 1432 607 l 2,1,2
 1402 607 1402 607 1385.5 586 c 128,-1,3
 1369 565 1369 565 1369 533 c 0,4,5
 1369 485 1369 485 1404 450 c 2,6,-1
 1589 260 l 1,7,-1
 1720 402 l 1,8,9
 1750 433 1750 433 1750 480 c 128,-1,10
 1750 527 1750 527 1700 567 c 128,-1,11
 1650 607 1650 607 1573 607 c 2,12,-1
 1524 607 l 1,13,-1
 1524 650 l 1,14,-1
 2041 650 l 1,15,-1
 2041 607 l 1,16,-1
 1992 607 l 1,17,-1
 1423 -23 l 1,18,-1
 1387 -23 l 1,19,-1
 1021 383 l 1,20,-1
 654 -23 l 1,21,-1
 618 -23 l 1,22,-1
 53 607 l 1,23,-1
 -14 607 l 1,24,-1
 -14 650 l 1,25,-1
 690 650 l 1,26,-1
 690 607 l 1,27,-1
 662 607 l 2,28,29
 632 607 632 607 615.5 586 c 128,-1,30
 599 565 599 565 599 533 c 0,31,32
 599 485 599 485 634 450 c 2,33,-1
 821 260 l 1,34,-1
 978 433 l 1,35,-1
 822 607 l 1,36,-1
 755 607 l 1,37,-1
 755 650 l 1,38,-1
 1459 650 l 1,39,-1
 1459 607 l 1,0,-1
990 607 m 1,40,-1
 910 607 l 1,41,-1
 1420 38 l 1,42,-1
 1460 83 l 1,43,-1
 990 607 l 1,40,-1
221 607 m 1,44,-1
 141 607 l 1,45,-1
 651 38 l 1,46,-1
 691 83 l 1,47,-1
 221 607 l 1,44,-1
EndSplineSet
EndChar

StartChar: X
Encoding: 88 88 59
Width: 1373
GlyphClass: 2
Flags: W
LayerCount: 2
Fore
SplineSet
1282 43 m 2,0,-1
 1360 43 l 1,1,-1
 1360 0 l 1,2,-1
 634 0 l 1,3,-1
 634 43 l 1,4,-1
 674 43 l 2,5,6
 727 43 727 43 727 72 c 0,7,8
 727 98 727 98 677 151 c 1,9,-1
 577 254 l 1,10,-1
 508 209 l 2,11,12
 421 152 421 152 421 102 c 0,13,14
 421 75 421 75 438 59 c 128,-1,15
 455 43 455 43 481 43 c 2,16,-1
 576 43 l 1,17,-1
 576 0 l 1,18,-1
 13 0 l 1,19,-1
 13 43 l 1,20,-1
 47 43 l 2,21,22
 141 43 141 43 263 121 c 2,23,-1
 535 296 l 1,24,-1
 340 497 l 2,25,26
 296 542 296 542 233 574.5 c 128,-1,27
 170 607 170 607 125 607 c 2,28,-1
 64 607 l 1,29,-1
 64 650 l 1,30,-1
 751 650 l 1,31,-1
 751 607 l 1,32,-1
 733 607 l 2,33,34
 687 607 687 607 687 572 c 0,35,36
 687 540 687 540 730 497 c 2,37,-1
 805 420 l 1,38,-1
 833 439 l 2,39,40
 920 498 920 498 920 546 c 0,41,42
 920 573 920 573 902.5 590 c 128,-1,43
 885 607 885 607 860 607 c 2,44,-1
 841 607 l 1,45,-1
 841 649 l 1,46,-1
 1327 649 l 1,47,-1
 1327 607 l 1,48,-1
 1294 607 l 2,49,50
 1207 607 1207 607 1079 525 c 2,51,-1
 849 376 l 1,52,-1
 1067 151 l 2,53,54
 1172 43 1172 43 1282 43 c 2,0,-1
865 43 m 1,55,-1
 942 43 l 1,56,-1
 390 607 l 1,57,-1
 313 607 l 1,58,-1
 865 43 l 1,55,-1
EndSplineSet
EndChar

StartChar: Y
Encoding: 89 89 60
Width: 1309
GlyphClass: 2
Flags: W
LayerCount: 2
Fore
SplineSet
800 650 m 1,0,-1
 1323 650 l 1,1,-1
 1323 607 l 1,2,-1
 1257 607 l 1,3,-1
 818 291 l 1,4,-1
 818 151 l 2,5,6
 818 95 818 95 848 69 c 128,-1,7
 878 43 878 43 927 43 c 2,8,-1
 1048 43 l 1,9,-1
 1048 0 l 1,10,-1
 197 0 l 1,11,-1
 197 43 l 1,12,-1
 319 43 l 2,13,14
 368 43 368 43 397.5 69 c 128,-1,15
 427 95 427 95 427 151 c 2,16,-1
 427 270 l 1,17,-1
 87 607 l 1,18,-1
 -14 607 l 1,19,-1
 -14 650 l 1,20,-1
 735 650 l 1,21,-1
 735 607 l 1,22,-1
 707 607 l 2,23,24
 685 607 685 607 672 594 c 128,-1,25
 659 581 659 581 659 561 c 0,26,27
 659 527 659 527 689 498 c 2,28,-1
 818 370 l 1,29,-1
 877 418 l 2,30,31
 949 476 949 476 949 534 c 0,32,33
 949 566 949 566 923 586.5 c 128,-1,34
 897 607 897 607 850 607 c 2,35,-1
 800 607 l 1,36,-1
 800 650 l 1,0,-1
495 43 m 1,37,-1
 560 43 l 1,38,-1
 560 306 l 1,39,-1
 255 607 l 1,40,-1
 176 607 l 1,41,-1
 495 292 l 1,42,-1
 495 43 l 1,37,-1
EndSplineSet
EndChar

StartChar: Z
Encoding: 90 90 61
Width: 1173
GlyphClass: 2
Flags: W
LayerCount: 2
Fore
SplineSet
1119 607 m 1,0,-1
 1098 607 l 1,1,-1
 548 43 l 1,2,-1
 666 43 l 2,3,4
 842 43 842 43 943 109 c 0,5,6
 992 141 992 141 1018.5 165.5 c 128,-1,7
 1045 190 1045 190 1075 226 c 1,8,-1
 1104 226 l 1,9,-1
 1104 0 l 1,10,-1
 54 0 l 1,11,-1
 54 43 l 1,12,-1
 77 43 l 1,13,-1
 626 607 l 1,14,-1
 569 607 l 2,15,16
 500 607 500 607 437.5 593.5 c 128,-1,17
 375 580 375 580 333.5 562.5 c 128,-1,18
 292 545 292 545 249.5 516 c 128,-1,19
 207 487 207 487 187.5 469 c 128,-1,20
 168 451 168 451 141 424 c 1,21,-1
 112 424 l 1,22,-1
 112 650 l 1,23,-1
 1119 650 l 1,24,-1
 1119 607 l 1,0,-1
795 607 m 1,25,-1
 714 607 l 1,26,-1
 165 43 l 1,27,-1
 250 43 l 1,28,-1
 795 607 l 1,25,-1
EndSplineSet
EndChar

StartChar: bracketleft
Encoding: 91 91 62
Width: 705
GlyphClass: 2
Flags: W
LayerCount: 2
Fore
SplineSet
495 562 m 2,0,-1
 495 56 l 2,1,2
 495 0 495 0 525 -26 c 128,-1,3
 555 -52 555 -52 604 -52 c 2,4,-1
 725 -52 l 1,5,-1
 725 -95 l 1,6,-1
 150 -95 l 1,7,-1
 150 715 l 1,8,-1
 725 715 l 1,9,-1
 725 670 l 1,10,-1
 604 670 l 2,11,12
 559 670 559 670 527 638 c 128,-1,13
 495 606 495 606 495 562 c 2,0,-1
282 -52 m 1,14,-1
 282 670 l 1,15,-1
 217 670 l 1,16,-1
 217 -52 l 1,17,-1
 282 -52 l 1,14,-1
EndSplineSet
EndChar

StartChar: backslash
Encoding: 92 92 63
Width: 582
GlyphClass: 2
Flags: W
LayerCount: 2
Fore
SplineSet
532 -52 m 1,0,-1
 450 -52 l 1,1,-1
 50 670 l 1,2,-1
 132 670 l 1,3,-1
 532 -52 l 1,0,-1
EndSplineSet
EndChar

StartChar: bracketright
Encoding: 93 93 64
Width: 715
GlyphClass: 2
Flags: W
LayerCount: 2
Fore
SplineSet
220 56 m 2,0,-1
 220 562 l 2,1,2
 220 606 220 606 188 638 c 128,-1,3
 156 670 156 670 111 670 c 2,4,-1
 -10 670 l 1,5,-1
 -10 715 l 1,6,-1
 565 715 l 1,7,-1
 565 -95 l 1,8,-1
 -10 -95 l 1,9,-1
 -10 -52 l 1,10,-1
 111 -52 l 2,11,12
 160 -52 160 -52 190 -26 c 128,-1,13
 220 0 220 0 220 56 c 2,0,-1
287 670 m 1,14,-1
 287 -52 l 1,15,-1
 352 -52 l 1,16,-1
 352 670 l 1,17,-1
 287 670 l 1,14,-1
EndSplineSet
EndChar

StartChar: asciicircum
Encoding: 94 94 65
Width: 740
GlyphClass: 2
Flags: W
LayerCount: 2
Fore
SplineSet
209 189 m 1,0,-1
 143 223 l 1,1,-1
 345 595 l 1,2,-1
 395 595 l 1,3,-1
 597 223 l 1,4,-1
 531 189 l 1,5,-1
 370 491 l 1,6,-1
 209 189 l 1,0,-1
EndSplineSet
EndChar

StartChar: underscore
Encoding: 95 95 66
Width: 1010
GlyphClass: 2
Flags: W
LayerCount: 2
Fore
SplineSet
910 -20 m 1,0,-1
 910 -100 l 1,1,-1
 100 -100 l 1,2,-1
 100 -20 l 1,3,-1
 910 -20 l 1,0,-1
EndSplineSet
EndChar

StartChar: grave
Encoding: 96 96 67
Width: 650
GlyphClass: 2
Flags: W
LayerCount: 2
Fore
SplineSet
600 660 m 1,0,-1
 600 624 l 1,1,-1
 546 624 l 2,2,3
 276 624 276 624 198 642 c 0,4,5
 127 658 127 658 92 700 c 1,6,7
 59 738 59 738 53 760 c 2,8,-1
 50 770 l 1,9,-1
 341 770 l 1,10,11
 382 712 382 712 436.5 686 c 128,-1,12
 491 660 491 660 600 660 c 1,0,-1
288 663 m 1,13,-1
 288 667 l 1,14,15
 260 676 260 676 229.5 696.5 c 128,-1,16
 199 717 199 717 187 742 c 1,17,-1
 123 742 l 1,18,19
 173 669 173 669 288 663 c 1,13,-1
EndSplineSet
EndChar

StartChar: a
Encoding: 97 97 68
Width: 1188
GlyphClass: 2
Flags: W
LayerCount: 2
Fore
SplineSet
1201 43 m 1,0,-1
 1201 0 l 1,1,-1
 557 0 l 1,2,-1
 557 43 l 1,3,-1
 623 43 l 2,4,5
 644 43 644 43 657 51.5 c 128,-1,6
 670 60 670 60 670 79 c 128,-1,7
 670 98 670 98 647 127 c 2,8,-1
 616 166 l 1,9,-1
 242 166 l 1,10,11
 219 127 219 127 219 99.5 c 128,-1,12
 219 72 219 72 236 57.5 c 128,-1,13
 253 43 253 43 280 43 c 2,14,-1
 362 43 l 1,15,-1
 362 0 l 1,16,-1
 -14 0 l 1,17,-1
 -14 43 l 1,18,19
 34 43 34 43 73.5 60 c 128,-1,20
 113 77 113 77 128 94 c 2,21,-1
 144 111 l 1,22,-1
 398 436 l 1,23,-1
 370 471 l 2,24,25
 356 488 356 488 348 496 c 1,26,27
 325 515 325 515 267 515 c 2,28,-1
 197 515 l 1,29,-1
 197 558 l 1,30,-1
 688 558 l 1,31,-1
 1102 43 l 1,32,-1
 1201 43 l 1,0,-1
423 515 m 1,33,-1
 804 43 l 1,34,-1
 864 43 l 1,35,-1
 484 515 l 1,36,-1
 423 515 l 1,33,-1
426 403 m 1,37,-1
 274 207 l 1,38,-1
 583 207 l 1,39,-1
 426 403 l 1,37,-1
EndSplineSet
EndChar

StartChar: b
Encoding: 98 98 69
Width: 1256
GlyphClass: 2
Flags: W
LayerCount: 2
Fore
SplineSet
1207 215 m 128,-1,1
 1225 187 1225 187 1225 148 c 128,-1,2
 1225 109 1225 109 1198.5 77 c 128,-1,3
 1172 45 1172 45 1130 30 c 0,4,5
 1049 0 1049 0 961 0 c 2,6,-1
 73 0 l 1,7,-1
 73 43 l 1,8,-1
 178 43 l 2,9,10
 267 43 267 43 267 131 c 2,11,-1
 267 425 l 2,12,13
 267 461 267 461 240.5 488 c 128,-1,14
 214 515 214 515 178 515 c 2,15,-1
 73 515 l 1,16,-1
 73 558 l 1,17,-1
 876 558 l 2,18,19
 1035 558 1035 558 1088 538 c 0,20,21
 1148 516 1148 516 1164 480 c 0,22,23
 1174 458 1174 458 1174 424.5 c 128,-1,24
 1174 391 1174 391 1152.5 361.5 c 128,-1,25
 1131 332 1131 332 1109.5 319.5 c 128,-1,26
 1088 307 1088 307 1065 300 c 1,27,-1
 1065 296 l 1,28,29
 1111 288 1111 288 1161 259 c 0,30,0
 1189 243 1189 243 1207 215 c 128,-1,1
605 434 m 2,31,-1
 605 313 l 1,32,-1
 735 313 l 2,33,34
 778 313 778 313 811 339 c 128,-1,35
 844 365 844 365 844 414 c 128,-1,36
 844 463 844 463 807 489 c 128,-1,37
 770 515 770 515 713.5 515 c 128,-1,38
 657 515 657 515 631 493 c 128,-1,39
 605 471 605 471 605 434 c 2,31,-1
380 43 m 1,40,-1
 380 515 l 1,41,-1
 330 515 l 1,42,-1
 330 43 l 1,43,-1
 380 43 l 1,40,-1
673 43 m 2,44,-1
 751 43 l 2,45,46
 802 43 802 43 839.5 70.5 c 128,-1,47
 877 98 877 98 877 157.5 c 128,-1,48
 877 217 877 217 839.5 246 c 128,-1,49
 802 275 802 275 742 275 c 2,50,-1
 605 275 l 1,51,-1
 605 127 l 2,52,53
 605 43 605 43 673 43 c 2,44,-1
974 409 m 128,-1,55
 974 438 974 438 950 465.5 c 128,-1,56
 926 493 926 493 890 507 c 1,57,-1
 886 504 l 1,58,59
 919 457 919 457 919 409 c 128,-1,60
 919 361 919 361 886 314 c 1,61,-1
 890 310 l 1,62,63
 926 324 926 324 950 352 c 128,-1,54
 974 380 974 380 974 409 c 128,-1,55
1007 159 m 128,-1,65
 1007 196 1007 196 981 229 c 128,-1,66
 955 262 955 262 912 278 c 1,67,-1
 909 274 l 1,68,69
 953 225 953 225 953 159 c 128,-1,70
 953 93 953 93 909 44 c 1,71,-1
 912 40 l 1,72,73
 955 56 955 56 981 89 c 128,-1,64
 1007 122 1007 122 1007 159 c 128,-1,65
EndSplineSet
EndChar

StartChar: c
Encoding: 99 99 70
Width: 943
GlyphClass: 2
Flags: W
LayerCount: 2
Fore
SplineSet
571 -22 m 0,0,1
 340 -22 340 -22 187 48 c 0,2,3
 110 84 110 84 66 143.5 c 128,-1,4
 22 203 22 203 22 280.5 c 128,-1,5
 22 358 22 358 69 418 c 128,-1,6
 116 478 116 478 193 512 c 0,7,8
 347 580 347 580 541 580 c 0,9,10
 671 580 671 580 844 519 c 1,11,-1
 844 559 l 1,12,-1
 891 559 l 1,13,-1
 891 351 l 1,14,-1
 846 351 l 1,15,16
 803 411 803 411 714 474 c 128,-1,17
 625 537 625 537 537 537 c 0,18,19
 411 537 411 537 411 415 c 2,20,-1
 411 180 l 2,21,22
 411 94 411 94 447.5 56.5 c 128,-1,23
 484 19 484 19 564.5 19 c 128,-1,24
 645 19 645 19 708.5 35.5 c 128,-1,25
 772 52 772 52 807.5 71 c 128,-1,26
 843 90 843 90 871 106.5 c 128,-1,27
 899 123 899 123 907 123 c 0,28,29
 930 123 930 123 930 103 c 0,30,31
 930 78 930 78 840 32 c 1,32,33
 730 -22 730 -22 571 -22 c 0,0,1
175.5 145.5 m 128,-1,35
 132 205 132 205 132 279.5 c 128,-1,36
 132 354 132 354 175.5 413.5 c 128,-1,37
 219 473 219 473 289 513 c 1,38,-1
 287 517 l 1,39,40
 196 480 196 480 136.5 417 c 128,-1,41
 77 354 77 354 77 279 c 128,-1,42
 77 204 77 204 136.5 141.5 c 128,-1,43
 196 79 196 79 287 42 c 1,44,-1
 289 46 l 1,45,34
 219 86 219 86 175.5 145.5 c 128,-1,35
EndSplineSet
EndChar

StartChar: d
Encoding: 100 100 71
Width: 1268
GlyphClass: 2
Flags: W
LayerCount: 2
Fore
SplineSet
70 558 m 1,0,-1
 722 558 l 2,1,2
 933 558 933 558 1081 498 c 0,3,4
 1157 468 1157 468 1201.5 414.5 c 128,-1,5
 1246 361 1246 361 1246 291 c 128,-1,6
 1246 221 1246 221 1214 168 c 128,-1,7
 1182 115 1182 115 1134.5 84 c 128,-1,8
 1087 53 1087 53 1024 34 c 0,9,10
 917 0 917 0 799 0 c 2,11,-1
 70 0 l 1,12,-1
 70 43 l 1,13,-1
 175 43 l 2,14,15
 265 43 265 43 265 132 c 2,16,-1
 265 426 l 2,17,18
 265 462 265 462 238.5 488.5 c 128,-1,19
 212 515 212 515 175 515 c 2,20,-1
 70 515 l 1,21,-1
 70 558 l 1,0,-1
377 42 m 1,22,-1
 377 515 l 1,23,-1
 328 515 l 1,24,-1
 328 42 l 1,25,-1
 377 42 l 1,22,-1
670 43 m 2,26,-1
 747 43 l 2,27,28
 796 43 796 43 828 78 c 0,29,30
 886 140 886 140 886 278 c 0,31,32
 886 515 886 515 699 515 c 0,33,34
 654 515 654 515 627.5 493 c 128,-1,35
 601 471 601 471 601 435 c 2,36,-1
 601 126 l 2,37,38
 601 43 601 43 670 43 c 2,26,-1
1030 278 m 128,-1,40
 1030 349 1030 349 996 410.5 c 128,-1,41
 962 472 962 472 900 507 c 1,42,-1
 896 504 l 1,43,44
 967 411 967 411 967 278 c 128,-1,45
 967 145 967 145 896 52 c 1,46,-1
 900 49 l 1,47,48
 962 84 962 84 996 145.5 c 128,-1,39
 1030 207 1030 207 1030 278 c 128,-1,40
EndSplineSet
EndChar

StartChar: e
Encoding: 101 101 72
Width: 1184
GlyphClass: 2
Flags: W
LayerCount: 2
Fore
SplineSet
697 515 m 0,0,1
 654 515 654 515 629.5 493 c 128,-1,2
 605 471 605 471 605 435 c 2,3,-1
 605 395 l 2,4,5
 605 322 605 322 676 322 c 0,6,7
 733 322 733 322 796.5 354.5 c 128,-1,8
 860 387 860 387 880 430 c 1,9,-1
 917 430 l 1,10,-1
 917 166 l 1,11,-1
 880 166 l 1,12,13
 860 211 860 211 798 238.5 c 128,-1,14
 736 266 736 266 676 266 c 0,15,16
 605 266 605 266 605 193 c 2,17,-1
 605 126 l 2,18,19
 605 43 605 43 673 43 c 2,20,-1
 750 43 l 2,21,22
 970 43 970 43 1075 186 c 1,23,-1
 1104 186 l 1,24,-1
 1104 0 l 1,25,-1
 73 0 l 1,26,-1
 73 43 l 1,27,-1
 178 43 l 2,28,29
 267 43 267 43 267 131 c 2,30,-1
 267 426 l 2,31,32
 267 462 267 462 241 488.5 c 128,-1,33
 215 515 215 515 178 515 c 2,34,-1
 73 515 l 1,35,-1
 73 558 l 1,36,-1
 1104 558 l 1,37,-1
 1104 358 l 1,38,-1
 1075 358 l 1,39,40
 1027 424 1027 424 933.5 469.5 c 128,-1,41
 840 515 840 515 697 515 c 0,0,1
329 43 m 1,42,-1
 380 43 l 1,43,-1
 380 515 l 1,44,-1
 329 515 l 1,45,-1
 329 43 l 1,42,-1
EndSplineSet
EndChar

StartChar: f
Encoding: 102 102 73
Width: 1070
GlyphClass: 2
Flags: W
LayerCount: 2
Fore
SplineSet
673 43 m 2,0,-1
 790 43 l 1,1,-1
 790 0 l 1,2,-1
 73 0 l 1,3,-1
 73 43 l 1,4,-1
 178 43 l 2,5,6
 267 43 267 43 267 132 c 2,7,-1
 267 425 l 2,8,9
 267 462 267 462 241 488.5 c 128,-1,10
 215 515 215 515 178 515 c 2,11,-1
 73 515 l 1,12,-1
 73 558 l 1,13,-1
 1043 558 l 1,14,-1
 1043 393 l 1,15,-1
 1016 393 l 1,16,17
 994 419 994 419 974.5 436.5 c 128,-1,18
 955 454 955 454 918 474 c 0,19,20
 844 515 844 515 697 515 c 0,21,22
 654 515 654 515 629.5 492.5 c 128,-1,23
 605 470 605 470 605 435 c 2,24,-1
 605 394 l 2,25,26
 605 321 605 321 676 321 c 0,27,28
 727 321 727 321 767 343 c 128,-1,29
 807 365 807 365 830 399 c 1,30,-1
 866 399 l 1,31,-1
 866 181 l 1,32,-1
 829 181 l 1,33,34
 809 228 809 228 771.5 247 c 128,-1,35
 734 266 734 266 676 266 c 0,36,37
 605 266 605 266 605 193 c 2,38,-1
 605 127 l 2,39,40
 605 80 605 80 620 61.5 c 128,-1,41
 635 43 635 43 673 43 c 2,0,-1
330 43 m 1,42,-1
 380 43 l 1,43,-1
 380 515 l 1,44,-1
 330 515 l 1,45,-1
 330 43 l 1,42,-1
EndSplineSet
EndChar

StartChar: g
Encoding: 103 103 74
Width: 1169
GlyphClass: 2
Flags: W
LayerCount: 2
Fore
SplineSet
516 334 m 1,0,-1
 1201 334 l 1,1,-1
 1201 292 l 1,2,-1
 1039 292 l 1,3,-1
 1039 -4 l 1,4,-1
 994 -4 l 1,5,6
 994 20 994 20 979 35 c 128,-1,7
 964 50 964 50 938.5 50 c 128,-1,8
 913 50 913 50 863 32 c 0,9,10
 713 -22 713 -22 562 -22 c 128,-1,11
 411 -22 411 -22 291 8.5 c 128,-1,12
 171 39 171 39 96.5 110.5 c 128,-1,13
 22 182 22 182 22 289 c 0,14,15
 22 374 22 374 63 433 c 128,-1,16
 104 492 104 492 180 523 c 0,17,18
 318 580 318 580 529 580 c 128,-1,19
 740 580 740 580 920 527 c 1,20,-1
 920 563 l 1,21,-1
 967 563 l 1,22,-1
 967 379 l 1,23,-1
 922 379 l 1,24,25
 886 431 886 431 786.5 485.5 c 128,-1,26
 687 540 687 540 598 540 c 0,27,28
 411 540 411 540 411 416 c 2,29,-1
 411 175 l 2,30,31
 411 63 411 63 492 32 c 0,32,33
 525 20 525 20 561 20 c 128,-1,34
 597 20 597 20 618 25 c 128,-1,35
 639 30 639 30 661 43 c 128,-1,36
 683 56 683 56 696.5 83 c 128,-1,37
 710 110 710 110 710 148 c 2,38,-1
 710 209 l 2,39,40
 710 243 710 243 681 267.5 c 128,-1,41
 652 292 652 292 616 292 c 2,42,-1
 516 292 l 1,43,-1
 516 334 l 1,0,-1
823 182 m 2,44,-1
 823 291 l 1,45,-1
 772 291 l 1,46,-1
 772 126 l 2,47,48
 772 62 772 62 783 62 c 0,49,50
 797 62 797 62 810 98 c 128,-1,51
 823 134 823 134 823 182 c 2,44,-1
166.5 162.5 m 128,-1,53
 139 221 139 221 139 287.5 c 128,-1,54
 139 354 139 354 166.5 412.5 c 128,-1,55
 194 471 194 471 245 507 c 1,56,-1
 242 512 l 1,57,58
 169 479 169 479 125 423 c 128,-1,59
 81 367 81 367 81 287.5 c 128,-1,60
 81 208 81 208 125 152 c 128,-1,61
 169 96 169 96 242 63 c 1,62,-1
 245 68 l 1,63,52
 194 104 194 104 166.5 162.5 c 128,-1,53
EndSplineSet
EndChar

StartChar: h
Encoding: 104 104 75
Width: 1482
GlyphClass: 2
Flags: W
LayerCount: 2
Fore
SplineSet
1208 426 m 2,0,-1
 1208 131 l 2,1,2
 1208 43 1208 43 1298 43 c 2,3,-1
 1403 43 l 1,4,-1
 1403 0 l 1,5,-1
 757 0 l 1,6,-1
 757 43 l 1,7,8
 839 43 839 43 857 68 c 0,9,10
 867 81 867 81 869 92.5 c 128,-1,11
 871 104 871 104 871 127 c 2,12,-1
 871 240 l 2,13,14
 871 274 871 274 838 274 c 2,15,-1
 638 274 l 2,16,17
 605 274 605 274 605 240 c 2,18,-1
 605 127 l 2,19,20
 605 103 605 103 607 92 c 128,-1,21
 609 81 609 81 619 68 c 0,22,23
 637 43 637 43 719 43 c 1,24,-1
 719 0 l 1,25,-1
 73 0 l 1,26,-1
 73 43 l 1,27,-1
 178 43 l 2,28,29
 267 43 267 43 267 132 c 2,30,-1
 267 426 l 2,31,32
 267 462 267 462 241 488.5 c 128,-1,33
 215 515 215 515 178 515 c 2,34,-1
 73 515 l 1,35,-1
 73 558 l 1,36,-1
 719 558 l 1,37,-1
 719 515 l 1,38,39
 654 515 654 515 629.5 494.5 c 128,-1,40
 605 474 605 474 605 435 c 2,41,-1
 605 317 l 1,42,-1
 871 317 l 1,43,-1
 871 435 l 2,44,45
 871 474 871 474 846.5 494.5 c 128,-1,46
 822 515 822 515 757 515 c 1,47,-1
 757 558 l 1,48,-1
 1403 558 l 1,49,-1
 1403 515 l 1,50,-1
 1298 515 l 2,51,52
 1261 515 1261 515 1234.5 488.5 c 128,-1,53
 1208 462 1208 462 1208 426 c 2,0,-1
380 515 m 1,54,-1
 330 515 l 1,55,-1
 330 43 l 1,56,-1
 380 43 l 1,57,-1
 380 515 l 1,54,-1
985 515 m 1,58,-1
 935 515 l 1,59,-1
 935 43 l 1,60,-1
 985 43 l 1,61,-1
 985 515 l 1,58,-1
EndSplineSet
EndChar

StartChar: i
Encoding: 105 105 76
Width: 881
GlyphClass: 2
Flags: W
LayerCount: 2
Fore
SplineSet
606 425 m 2,0,-1
 606 131 l 2,1,2
 606 43 606 43 696 43 c 2,3,-1
 802 43 l 1,4,-1
 802 0 l 1,5,-1
 73 0 l 1,6,-1
 73 43 l 1,7,-1
 179 43 l 2,8,9
 269 43 269 43 269 131 c 2,10,-1
 269 425 l 2,11,12
 269 461 269 461 242.5 488 c 128,-1,13
 216 515 216 515 179 515 c 2,14,-1
 73 515 l 1,15,-1
 73 558 l 1,16,-1
 802 558 l 1,17,-1
 802 515 l 1,18,-1
 696 515 l 2,19,20
 659 515 659 515 632.5 488 c 128,-1,21
 606 461 606 461 606 425 c 2,0,-1
382 43 m 1,22,-1
 382 515 l 1,23,-1
 331 515 l 1,24,-1
 331 43 l 1,25,-1
 382 43 l 1,22,-1
EndSplineSet
EndChar

StartChar: j
Encoding: 106 106 77
Width: 930
GlyphClass: 2
Flags: W
LayerCount: 2
Fore
SplineSet
515 176 m 2,0,-1
 515 515 l 1,1,-1
 465 515 l 1,2,-1
 465 57 l 1,3,4
 482 63 482 63 498.5 96 c 128,-1,5
 515 129 515 129 515 176 c 2,0,-1
208 558 m 1,6,-1
 916 558 l 1,7,-1
 916 515 l 1,8,-1
 830 515 l 2,9,10
 793 515 793 515 766.5 488 c 128,-1,11
 740 461 740 461 740 425 c 2,12,-1
 740 166 l 2,13,14
 740 120 740 120 722.5 87 c 128,-1,15
 705 54 705 54 664 29 c 0,16,17
 582 -21 582 -21 369 -21 c 0,18,19
 269 -21 269 -21 176 0 c 128,-1,20
 83 21 83 21 33 45 c 1,21,-1
 33 0 l 1,22,-1
 -14 0 l 1,23,-1
 -14 225 l 1,24,-1
 32 225 l 1,25,26
 32 225 32 225 43 203 c 0,27,28
 50 189 50 189 76 154 c 128,-1,29
 102 119 102 119 131.5 92 c 128,-1,30
 161 65 161 65 210.5 43 c 128,-1,31
 260 21 260 21 313 21 c 0,32,33
 403 21 403 21 403 110 c 2,34,-1
 403 425 l 2,35,36
 403 461 403 461 376.5 488 c 128,-1,37
 350 515 350 515 313 515 c 2,38,-1
 208 515 l 1,39,-1
 208 558 l 1,6,-1
EndSplineSet
EndChar

StartChar: k
Encoding: 107 107 78
Width: 1426
GlyphClass: 2
Flags: W
LayerCount: 2
Fore
SplineSet
380 43 m 1,0,-1
 380 515 l 1,1,-1
 330 515 l 1,2,-1
 330 43 l 1,3,-1
 380 43 l 1,0,-1
1026 43 m 1,4,-1
 831 275 l 1,5,-1
 762 275 l 1,6,-1
 958 43 l 1,7,-1
 1026 43 l 1,4,-1
759 0 m 1,8,-1
 73 0 l 1,9,-1
 73 43 l 1,10,-1
 178 43 l 2,11,12
 267 43 267 43 267 131 c 2,13,-1
 267 426 l 2,14,15
 267 462 267 462 241 488.5 c 128,-1,16
 215 515 215 515 178 515 c 2,17,-1
 73 515 l 1,18,-1
 73 558 l 1,19,-1
 795 558 l 1,20,-1
 795 515 l 1,21,-1
 697 515 l 2,22,23
 655 515 655 515 630 493 c 128,-1,24
 605 471 605 471 605 435 c 2,25,-1
 605 346 l 2,26,27
 605 299 605 299 651 299 c 2,28,-1
 669 299 l 2,29,30
 698 299 698 299 744.5 318.5 c 128,-1,31
 791 338 791 338 812 348 c 0,32,33
 851 365 851 365 914 396 c 0,34,35
 1014 444 1014 444 1014 481 c 0,36,37
 1014 502 1014 502 989 508.5 c 128,-1,38
 964 515 964 515 896 515 c 1,39,-1
 896 558 l 1,40,-1
 1404 558 l 1,41,-1
 1404 515 l 1,42,-1
 1311 515 l 2,43,44
 1280 515 1280 515 1216 489 c 0,45,46
 1124 451 1124 451 1048 406 c 0,47,48
 1024 391 1024 391 1024 374 c 128,-1,49
 1024 357 1024 357 1036 342 c 2,50,-1
 1289 43 l 1,51,-1
 1404 43 l 1,52,-1
 1404 0 l 1,53,-1
 929 0 l 1,54,-1
 704 252 l 1,55,-1
 638 252 l 2,56,57
 605 252 605 252 605 217 c 2,58,-1
 605 131 l 2,59,60
 605 43 605 43 695 43 c 2,61,-1
 759 43 l 1,62,-1
 759 0 l 1,8,-1
EndSplineSet
EndChar

StartChar: l
Encoding: 108 108 79
Width: 1080
GlyphClass: 2
Flags: W
LayerCount: 2
Fore
SplineSet
605 425 m 2,0,-1
 605 131 l 2,1,2
 605 42 605 42 695 42 c 0,3,4
 768 42 768 42 850 80 c 0,5,6
 951 128 951 128 1035 250 c 1,7,-1
 1066 250 l 1,8,-1
 1066 0 l 1,9,-1
 73 0 l 1,10,-1
 73 43 l 1,11,-1
 178 43 l 2,12,13
 267 43 267 43 267 131 c 2,14,-1
 267 425 l 2,15,16
 267 461 267 461 240.5 488 c 128,-1,17
 214 515 214 515 178 515 c 2,18,-1
 73 515 l 1,19,-1
 73 558 l 1,20,-1
 840 558 l 1,21,-1
 840 515 l 1,22,-1
 695 515 l 2,23,24
 658 515 658 515 631.5 488 c 128,-1,25
 605 461 605 461 605 425 c 2,0,-1
330 43 m 1,26,-1
 380 43 l 1,27,-1
 380 515 l 1,28,-1
 330 515 l 1,29,-1
 330 43 l 1,26,-1
EndSplineSet
EndChar

StartChar: m
Encoding: 109 109 80
Width: 1592
GlyphClass: 2
Flags: W
LayerCount: 2
Fore
SplineSet
1050 515 m 1,0,-1
 1050 43 l 1,1,-1
 1100 43 l 1,2,-1
 1100 515 l 1,3,-1
 1050 515 l 1,0,-1
834 337 m 1,4,5
 943 505 943 505 976 558 c 1,6,-1
 1560 558 l 1,7,-1
 1560 515 l 1,8,-1
 1415 515 l 2,9,10
 1325 515 1325 515 1325 450 c 2,11,-1
 1325 131 l 2,12,13
 1325 43 1325 43 1415 43 c 2,14,-1
 1560 43 l 1,15,-1
 1560 0 l 1,16,-1
 794 0 l 1,17,-1
 794 43 l 1,18,-1
 898 43 l 2,19,20
 988 43 988 43 988 131 c 2,21,-1
 988 469 l 1,22,-1
 733 72 l 1,23,-1
 686 72 l 1,24,-1
 361 346 l 1,25,-1
 361 238 l 2,26,27
 361 187 361 187 386.5 147.5 c 128,-1,28
 412 108 412 108 453 86 c 0,29,30
 533 43 533 43 629 43 c 1,31,-1
 629 0 l 1,32,-1
 33 0 l 1,33,-1
 33 43 l 1,34,35
 129 43 129 43 209 86 c 0,36,37
 250 108 250 108 275.5 147.5 c 128,-1,38
 301 187 301 187 301 238 c 2,39,-1
 301 328 l 2,40,41
 301 410 301 410 216.5 462.5 c 128,-1,42
 132 515 132 515 22 515 c 1,43,-1
 22 558 l 1,44,-1
 575 558 l 1,45,-1
 834 337 l 1,4,5
714 149 m 1,46,-1
 714 199 l 1,47,48
 382 480 382 480 341 515 c 1,49,-1
 265 515 l 1,50,51
 332 458 332 458 696 149 c 1,52,-1
 714 149 l 1,46,-1
EndSplineSet
EndChar

StartChar: n
Encoding: 110 110 81
Width: 1324
GlyphClass: 2
Flags: W
LayerCount: 2
Fore
SplineSet
861 515 m 1,0,-1
 861 558 l 1,1,-1
 1309 558 l 1,2,-1
 1309 515 l 1,3,4
 1115 515 1115 515 1115 352 c 2,5,-1
 1115 -36 l 1,6,-1
 1034 -36 l 1,7,-1
 442 322 l 1,8,9
 418 334 418 334 401 334 c 0,10,11
 362 334 362 334 362 277 c 2,12,-1
 362 239 l 2,13,14
 362 187 362 187 387.5 147.5 c 128,-1,15
 413 108 413 108 454 86 c 0,16,17
 534 43 534 43 629 43 c 1,18,-1
 629 0 l 1,19,-1
 33 0 l 1,20,-1
 33 43 l 1,21,22
 129 43 129 43 209 86 c 0,23,24
 250 108 250 108 275.5 147.5 c 128,-1,25
 301 187 301 187 301 239 c 2,26,-1
 301 327 l 2,27,28
 301 410 301 410 217 462.5 c 128,-1,29
 133 515 133 515 23 515 c 1,30,-1
 23 558 l 1,31,-1
 664 558 l 1,32,-1
 959 372 l 1,33,-1
 971 365 l 2,34,35
 983 358 983 358 996 350 c 0,36,37
 1028 331 1028 331 1039 331 c 0,38,39
 1055 331 1055 331 1055 352 c 0,40,41
 1055 515 1055 515 861 515 c 1,0,-1
332 515 m 1,42,-1
 332 473 l 1,43,-1
 1033 38 l 1,44,-1
 1033 92 l 1,45,-1
 350 515 l 1,46,-1
 332 515 l 1,42,-1
EndSplineSet
EndChar

StartChar: o
Encoding: 111 111 82
Width: 1144
GlyphClass: 2
Flags: W
LayerCount: 2
Fore
SplineSet
1121 280 m 0,0,1
 1121 198 1121 198 1047.5 128.5 c 128,-1,2
 974 59 974 59 848 18.5 c 128,-1,3
 722 -22 722 -22 572.5 -22 c 128,-1,4
 423 -22 423 -22 296.5 18.5 c 128,-1,5
 170 59 170 59 96 128.5 c 128,-1,6
 22 198 22 198 22 280 c 0,7,8
 22 407 22 407 174 493.5 c 128,-1,9
 326 580 326 580 572 580 c 128,-1,10
 818 580 818 580 969.5 493.5 c 128,-1,11
 1121 407 1121 407 1121 280 c 0,0,1
572 536 m 128,-1,13
 471 536 471 536 432 474 c 128,-1,14
 393 412 393 412 393 282 c 128,-1,15
 393 152 393 152 439.5 86.5 c 128,-1,16
 486 21 486 21 572 21 c 128,-1,17
 658 21 658 21 704.5 86.5 c 128,-1,18
 751 152 751 152 751 282 c 128,-1,19
 751 412 751 412 712 474 c 128,-1,12
 673 536 673 536 572 536 c 128,-1,13
200.5 125.5 m 128,-1,21
 130 192 130 192 130 279.5 c 128,-1,22
 130 367 130 367 200.5 433 c 128,-1,23
 271 499 271 499 387 530 c 1,24,-1
 385 536 l 1,25,26
 239 506 239 506 150.5 438 c 128,-1,27
 62 370 62 370 62 279.5 c 128,-1,28
 62 189 62 189 150.5 121 c 128,-1,29
 239 53 239 53 384 22 c 1,30,-1
 386 29 l 1,31,20
 271 59 271 59 200.5 125.5 c 128,-1,21
767 520 m 1,32,33
 814 402 814 402 814 280 c 128,-1,34
 814 158 814 158 766 38 c 1,35,-1
 770 35 l 1,36,37
 883 132 883 132 883 279.5 c 128,-1,38
 883 427 883 427 771 523 c 1,39,-1
 767 520 l 1,32,33
EndSplineSet
EndChar

StartChar: p
Encoding: 112 112 83
Width: 1249
GlyphClass: 2
Flags: W
LayerCount: 2
Fore
SplineSet
73 558 m 1,0,-1
 933 558 l 2,1,2
 1236 558 1236 558 1236 401 c 0,3,4
 1236 242 1236 242 967 242 c 2,5,-1
 651 242 l 2,6,7
 607 242 607 242 607 186 c 2,8,-1
 607 131 l 2,9,10
 607 43 607 43 696 43 c 2,11,-1
 802 43 l 1,12,-1
 802 0 l 1,13,-1
 73 0 l 1,14,-1
 73 43 l 1,15,-1
 179 43 l 2,16,17
 269 43 269 43 269 131 c 2,18,-1
 269 425 l 2,19,20
 269 461 269 461 242.5 488 c 128,-1,21
 216 515 216 515 179 515 c 2,22,-1
 73 515 l 1,23,-1
 73 558 l 1,0,-1
331 43 m 1,24,-1
 382 43 l 1,25,-1
 382 515 l 1,26,-1
 331 515 l 1,27,-1
 331 43 l 1,24,-1
647 285 m 2,28,-1
 733 285 l 2,29,30
 800 285 800 285 844 333 c 0,31,32
 869 361 869 361 869 400 c 0,33,34
 869 458 869 458 823.5 486.5 c 128,-1,35
 778 515 778 515 733 515 c 2,36,-1
 647 515 l 2,37,38
 630 515 630 515 618.5 503 c 128,-1,39
 607 491 607 491 607 474 c 2,40,-1
 607 325 l 2,41,42
 607 308 607 308 618.5 296.5 c 128,-1,43
 630 285 630 285 647 285 c 2,28,-1
995 400 m 128,-1,45
 995 434 995 434 974 465 c 128,-1,46
 953 496 953 496 923 509 c 1,47,-1
 919 506 l 1,48,49
 941 467 941 467 941 400 c 128,-1,50
 941 333 941 333 919 294 c 1,51,-1
 923 291 l 1,52,53
 953 304 953 304 974 335 c 128,-1,44
 995 366 995 366 995 400 c 128,-1,45
EndSplineSet
EndChar

StartChar: q
Encoding: 113 113 84
Width: 1155
GlyphClass: 2
Flags: W
LayerCount: 2
Fore
SplineSet
22 278 m 0,0,1
 22 406 22 406 175 492 c 128,-1,2
 328 578 328 578 577.5 578 c 128,-1,3
 827 578 827 578 979.5 492 c 128,-1,4
 1132 406 1132 406 1132 278 c 0,5,6
 1132 166 1132 166 991 81.5 c 128,-1,7
 850 -3 850 -3 645 -19 c 1,8,9
 621 -54 621 -54 621 -82 c 0,10,11
 621 -137 621 -137 651 -137 c 2,12,-1
 787 -137 l 1,13,-1
 787 -179 l 1,14,-1
 366 -179 l 1,15,-1
 366 -139 l 1,16,17
 395 -78 395 -78 529 -23 c 1,18,-1
 528 -20 l 1,19,20
 314 -9 314 -9 168 76.5 c 128,-1,21
 22 162 22 162 22 278 c 0,0,1
441.5 475 m 128,-1,23
 404 413 404 413 404 282.5 c 128,-1,24
 404 152 404 152 449.5 86 c 128,-1,25
 495 20 495 20 578 20 c 128,-1,26
 661 20 661 20 706 86 c 128,-1,27
 751 152 751 152 751 282.5 c 128,-1,28
 751 413 751 413 713.5 475 c 128,-1,29
 676 537 676 537 577.5 537 c 128,-1,22
 479 537 479 537 441.5 475 c 128,-1,23
557 -41 m 1,30,-1
 555 -38 l 1,31,32
 515 -57 515 -57 474 -87.5 c 128,-1,33
 433 -118 433 -118 431 -137 c 1,34,-1
 478 -137 l 1,35,36
 484 -110 484 -110 557 -41 c 1,30,-1
211.5 128.5 m 128,-1,38
 141 193 141 193 141 278.5 c 128,-1,39
 141 364 141 364 211.5 428.5 c 128,-1,40
 282 493 282 493 398 522 c 1,41,-1
 396 528 l 1,42,43
 250 499 250 499 161.5 433 c 128,-1,44
 73 367 73 367 73 279 c 128,-1,45
 73 191 73 191 161.5 124.5 c 128,-1,46
 250 58 250 58 395 28 c 1,47,-1
 397 35 l 1,48,37
 282 64 282 64 211.5 128.5 c 128,-1,38
778 512 m 1,49,50
 825 397 825 397 825 279 c 128,-1,51
 825 161 825 161 777 44 c 1,52,-1
 781 41 l 1,53,54
 894 136 894 136 894 278.5 c 128,-1,55
 894 421 894 421 782 515 c 1,56,-1
 778 512 l 1,49,50
EndSplineSet
EndChar

StartChar: r
Encoding: 114 114 85
Width: 1365
GlyphClass: 2
Flags: W
LayerCount: 2
Fore
SplineSet
1352 43 m 1,0,-1
 1352 0 l 1,1,-1
 844 0 l 1,2,-1
 673 219 l 2,3,4
 647 253 647 253 630 253 c 128,-1,5
 613 253 613 253 610 241.5 c 128,-1,6
 607 230 607 230 607 195 c 2,7,-1
 607 132 l 2,8,9
 607 43 607 43 696 43 c 2,10,-1
 761 43 l 1,11,-1
 761 0 l 1,12,-1
 73 0 l 1,13,-1
 73 43 l 1,14,-1
 179 43 l 2,15,16
 269 43 269 43 269 132 c 2,17,-1
 269 425 l 2,18,19
 269 462 269 462 242.5 488.5 c 128,-1,20
 216 515 216 515 179 515 c 2,21,-1
 73 515 l 1,22,-1
 73 558 l 1,23,24
 843 559 843 559 989 559 c 0,25,26
 1291 559 1291 559 1291 401 c 0,27,28
 1291 356 1291 356 1262.5 325.5 c 128,-1,29
 1234 295 1234 295 1182 280 c 0,30,31
 1094 256 1094 256 967 254 c 1,32,-1
 967 248 l 1,33,34
 988 230 988 230 1033.5 211.5 c 128,-1,35
 1079 193 1079 193 1136 184 c 1,36,-1
 1249 43 l 1,37,-1
 1352 43 l 1,0,-1
331 43 m 1,38,-1
 382 43 l 1,39,-1
 382 515 l 1,40,-1
 331 515 l 1,41,-1
 331 43 l 1,38,-1
607 474 m 2,42,-1
 607 354 l 2,43,44
 607 333 607 333 648 317.5 c 128,-1,45
 689 302 689 302 745 302 c 128,-1,46
 801 302 801 302 842 326 c 128,-1,47
 883 350 883 350 883 404 c 128,-1,48
 883 458 883 458 837.5 486.5 c 128,-1,49
 792 515 792 515 747 515 c 2,50,-1
 647 515 l 2,51,52
 630 515 630 515 618.5 503 c 128,-1,53
 607 491 607 491 607 474 c 2,42,-1
722 253 m 1,54,-1
 886 43 l 1,55,-1
 949 43 l 1,56,57
 841 183 841 183 786 253 c 1,58,-1
 722 253 l 1,54,-1
1021 400 m 128,-1,60
 1021 434 1021 434 1000 465 c 128,-1,61
 979 496 979 496 949 509 c 1,62,-1
 945 506 l 1,63,64
 967 467 967 467 967 400 c 128,-1,65
 967 333 967 333 945 294 c 1,66,-1
 949 291 l 1,67,68
 979 304 979 304 1000 335 c 128,-1,59
 1021 366 1021 366 1021 400 c 128,-1,60
EndSplineSet
EndChar

StartChar: s
Encoding: 115 115 86
Width: 1105
GlyphClass: 2
Flags: W
LayerCount: 2
Fore
SplineSet
143 285 m 128,-1,1
 95 327 95 327 95 376.5 c 128,-1,2
 95 426 95 426 112.5 461.5 c 128,-1,3
 130 497 130 497 164.5 518 c 128,-1,4
 199 539 199 539 233 552 c 128,-1,5
 267 565 267 565 320 570 c 0,6,7
 404 578 404 578 485 578 c 0,8,9
 690 578 690 578 920 518 c 1,10,11
 921 523 921 523 935 561 c 1,12,-1
 980 561 l 1,13,-1
 980 370 l 1,14,-1
 936 370 l 1,15,16
 865 439 865 439 726 488.5 c 128,-1,17
 587 538 587 538 486.5 538 c 128,-1,18
 386 538 386 538 386 488 c 0,19,20
 386 440 386 440 548 418 c 1,21,22
 708 395 708 395 849 352 c 0,23,24
 918 330 918 330 964.5 284 c 128,-1,25
 1011 238 1011 238 1011 175 c 0,26,27
 1011 -22 1011 -22 605 -22 c 0,28,29
 386 -22 386 -22 162 45 c 1,30,-1
 139 -4 l 1,31,-1
 94 -4 l 1,32,-1
 94 240 l 1,33,-1
 139 240 l 1,34,35
 152 209 152 209 196 171 c 128,-1,36
 240 133 240 133 301.5 99 c 128,-1,37
 363 65 363 65 444.5 42 c 128,-1,38
 526 19 526 19 604 19 c 0,39,40
 742 19 742 19 742 58 c 0,41,42
 742 98 742 98 574 133 c 0,43,44
 408 167 408 167 263 218 c 0,45,0
 191 243 191 243 143 285 c 128,-1,1
152 391 m 0,46,47
 152 324 152 324 257 275.5 c 128,-1,48
 362 227 362 227 604 171 c 0,49,50
 712 146 712 146 758.5 128 c 128,-1,51
 805 110 805 110 839 72 c 1,52,53
 839 74 839 74 841.5 75 c 128,-1,54
 844 76 844 76 844 77 c 0,55,56
 844 127 844 127 806 154 c 0,57,58
 764 183 764 183 720 195 c 128,-1,59
 676 207 676 207 650 213 c 128,-1,60
 624 219 624 219 578.5 228.5 c 128,-1,61
 533 238 533 238 506 244 c 0,62,63
 176 320 176 320 172 442 c 1,64,-1
 165 442 l 1,65,66
 152 419 152 419 152 391 c 0,46,47
EndSplineSet
EndChar

StartChar: t
Encoding: 116 116 87
Width: 958
GlyphClass: 2
Flags: W
LayerCount: 2
Fore
SplineSet
677 515 m 0,0,1
 647 515 647 515 647 476 c 2,2,-1
 647 132 l 2,3,4
 647 43 647 43 737 43 c 2,5,-1
 843 43 l 1,6,-1
 843 0 l 1,7,-1
 115 0 l 1,8,-1
 115 43 l 1,9,-1
 221 43 l 2,10,11
 310 43 310 43 310 132 c 2,12,-1
 310 476 l 2,13,14
 310 515 310 515 282 515 c 0,15,16
 259 515 259 515 209.5 463.5 c 128,-1,17
 160 412 160 412 122 361 c 2,18,-1
 85 310 l 1,19,-1
 49 310 l 1,20,-1
 63 558 l 1,21,-1
 895 558 l 1,22,-1
 909 310 l 1,23,-1
 873 310 l 1,24,25
 867 318 867 318 857 332 c 128,-1,26
 847 346 847 346 819 381.5 c 128,-1,27
 791 417 791 417 767.5 444 c 128,-1,28
 744 471 744 471 717.5 493 c 128,-1,29
 691 515 691 515 677 515 c 0,0,1
422 43 m 1,30,-1
 422 515 l 1,31,-1
 373 515 l 1,32,-1
 373 43 l 1,33,-1
 422 43 l 1,30,-1
EndSplineSet
EndChar

StartChar: u
Encoding: 117 117 88
Width: 1047
GlyphClass: 2
Flags: W
LayerCount: 2
Fore
SplineSet
650 558 m 1,0,-1
 1042 558 l 1,1,-1
 1042 515 l 1,2,3
 972 515 972 515 926 488 c 0,4,5
 872 457 872 457 872 353 c 2,6,-1
 872 171 l 2,7,8
 872 81 872 81 831 46 c 0,9,10
 779 0 779 0 696 -14 c 0,11,12
 644 -22 644 -22 553.5 -22 c 128,-1,13
 463 -22 463 -22 382.5 -10 c 128,-1,14
 302 2 302 2 261 18.5 c 128,-1,15
 220 35 220 35 197 61 c 128,-1,16
 174 87 174 87 169.5 106 c 128,-1,17
 165 125 165 125 165 151 c 2,18,-1
 165 427 l 2,19,20
 165 515 165 515 76 515 c 2,21,-1
 40 515 l 1,22,-1
 40 558 l 1,23,-1
 607 558 l 1,24,-1
 607 515 l 1,25,-1
 591 515 l 2,26,27
 502 515 502 515 502 427 c 2,28,-1
 502 141 l 2,29,30
 502 78 502 78 524.5 48 c 128,-1,31
 547 18 547 18 598 18 c 0,32,33
 720 18 720 18 765.5 52.5 c 128,-1,34
 811 87 811 87 811 147 c 2,35,-1
 811 353 l 2,36,37
 811 404 811 404 794 439 c 128,-1,38
 777 474 777 474 749 489 c 0,39,40
 700 515 700 515 650 515 c 1,41,-1
 650 558 l 1,0,-1
277 515 m 1,42,-1
 228 515 l 1,43,-1
 228 177 l 2,44,45
 228 114 228 114 260 86 c 0,46,47
 267 80 267 80 277 76 c 1,48,-1
 277 515 l 1,42,-1
EndSplineSet
EndChar

StartChar: v
Encoding: 118 118 89
Width: 1072
GlyphClass: 2
Flags: W
LayerCount: 2
Fore
SplineSet
1085 558 m 1,0,-1
 1085 515 l 1,1,-1
 1040 515 l 1,2,-1
 558 -19 l 1,3,-1
 526 -19 l 1,4,-1
 45 515 l 1,5,-1
 -14 515 l 1,6,-1
 -14 558 l 1,7,-1
 590 558 l 1,8,-1
 590 515 l 1,9,-1
 564 515 l 2,10,11
 545 515 545 515 531 495 c 128,-1,12
 517 475 517 475 517 443.5 c 128,-1,13
 517 412 517 412 542 387 c 2,14,-1
 698 229 l 1,15,-1
 808 346 l 1,16,17
 832 373 832 373 832 411.5 c 128,-1,18
 832 450 832 450 790.5 482.5 c 128,-1,19
 749 515 749 515 685 515 c 2,20,-1
 640 515 l 1,21,-1
 640 558 l 1,22,-1
 1085 558 l 1,0,-1
575 61 m 1,23,-1
 167 515 l 1,24,-1
 100 515 l 1,25,-1
 541 24 l 1,26,-1
 575 61 l 1,23,-1
EndSplineSet
EndChar

StartChar: w
Encoding: 119 119 90
Width: 1725
GlyphClass: 2
Flags: W
LayerCount: 2
Fore
SplineSet
1293 558 m 1,0,-1
 1739 558 l 1,1,-1
 1739 515 l 1,2,-1
 1695 515 l 1,3,-1
 1211 -19 l 1,4,-1
 1179 -19 l 1,5,-1
 868 325 l 1,6,-1
 558 -19 l 1,7,-1
 526 -19 l 1,8,-1
 45 515 l 1,9,-1
 -14 515 l 1,10,-1
 -14 558 l 1,11,-1
 590 558 l 1,12,-1
 590 515 l 1,13,-1
 563 515 l 2,14,15
 544 515 544 515 530.5 495 c 128,-1,16
 517 475 517 475 517 443.5 c 128,-1,17
 517 412 517 412 542 387 c 2,18,-1
 698 226 l 1,19,-1
 828 370 l 1,20,-1
 698 515 l 1,21,-1
 640 515 l 1,22,-1
 640 558 l 1,23,-1
 1244 558 l 1,24,-1
 1244 515 l 1,25,-1
 1217 515 l 2,26,27
 1198 515 1198 515 1184 495.5 c 128,-1,28
 1170 476 1170 476 1170 444.5 c 128,-1,29
 1170 413 1170 413 1196 387 c 2,30,-1
 1352 229 l 1,31,-1
 1461 346 l 2,32,33
 1485 371 1485 371 1485 410 c 128,-1,34
 1485 449 1485 449 1443.5 482 c 128,-1,35
 1402 515 1402 515 1338 515 c 2,36,-1
 1293 515 l 1,37,-1
 1293 558 l 1,0,-1
542 24 m 1,38,-1
 574 61 l 1,39,-1
 167 515 l 1,40,-1
 99 515 l 1,41,-1
 542 24 l 1,38,-1
1195 24 m 1,42,-1
 1228 61 l 1,43,-1
 821 515 l 1,44,-1
 752 515 l 1,45,-1
 1195 24 l 1,42,-1
EndSplineSet
EndChar

StartChar: x
Encoding: 120 120 91
Width: 1176
GlyphClass: 2
Flags: W
LayerCount: 2
Fore
SplineSet
1093 43 m 2,0,-1
 1163 43 l 1,1,-1
 1163 0 l 1,2,-1
 540 0 l 1,3,-1
 540 43 l 1,4,-1
 577 43 l 2,5,6
 617 43 617 43 617 71 c 0,7,8
 617 91 617 91 598 110 c 2,9,-1
 495 215 l 1,10,-1
 437 177 l 2,11,12
 364 128 364 128 364 89 c 0,13,14
 364 68 364 68 380.5 55.5 c 128,-1,15
 397 43 397 43 414 43 c 2,16,-1
 497 43 l 1,17,-1
 497 0 l 1,18,-1
 13 0 l 1,19,-1
 13 43 l 1,20,-1
 44 43 l 2,21,22
 125 43 125 43 226 108 c 2,23,-1
 455 256 l 1,24,-1
 292 423 l 2,25,26
 256 460 256 460 202 487.5 c 128,-1,27
 148 515 148 515 111 515 c 2,28,-1
 56 515 l 1,29,-1
 56 558 l 1,30,-1
 645 558 l 1,31,-1
 645 515 l 1,32,-1
 627 515 l 2,33,34
 589 515 589 515 589 488 c 0,35,36
 589 466 589 466 610 445 c 2,37,-1
 689 363 l 1,38,-1
 711 379 l 2,39,40
 784 431 784 431 784 467 c 0,41,42
 784 488 784 488 767.5 501.5 c 128,-1,43
 751 515 751 515 735 515 c 2,44,-1
 716 515 l 1,45,-1
 716 557 l 1,46,-1
 1136 557 l 1,47,-1
 1136 515 l 1,48,-1
 1104 515 l 1,49,50
 1028 514 1028 514 923 446 c 2,51,-1
 730 321 l 1,52,53
 885 161 885 161 913 133 c 0,54,55
 1002 43 1002 43 1093 43 c 2,0,-1
267 515 m 1,56,-1
 727 43 l 1,57,-1
 795 43 l 1,58,-1
 335 515 l 1,59,-1
 267 515 l 1,56,-1
EndSplineSet
EndChar

StartChar: y
Encoding: 121 121 92
Width: 1115
GlyphClass: 2
Flags: W
LayerCount: 2
Fore
SplineSet
679 515 m 1,0,-1
 679 558 l 1,1,-1
 1129 558 l 1,2,-1
 1129 515 l 1,3,-1
 1071 515 l 1,4,-1
 699 249 l 1,5,-1
 699 131 l 2,6,7
 699 85 699 85 724 64 c 128,-1,8
 749 43 749 43 789 43 c 2,9,-1
 895 43 l 1,10,-1
 895 0 l 1,11,-1
 166 0 l 1,12,-1
 166 43 l 1,13,-1
 273 43 l 2,14,15
 313 43 313 43 337.5 64 c 128,-1,16
 362 85 362 85 362 131 c 2,17,-1
 362 231 l 1,18,-1
 75 515 l 1,19,-1
 -14 515 l 1,20,-1
 -14 558 l 1,21,-1
 629 558 l 1,22,-1
 629 515 l 1,23,-1
 602 515 l 2,24,25
 584 515 584 515 573.5 504.5 c 128,-1,26
 563 494 563 494 563 479 c 0,27,28
 563 451 563 451 589 427 c 1,29,-1
 697 321 l 1,30,-1
 744 360 l 2,31,32
 805 411 805 411 805 457 c 0,33,34
 805 483 805 483 784 499 c 128,-1,35
 763 515 763 515 724 515 c 2,36,-1
 679 515 l 1,0,-1
474 43 m 1,37,-1
 474 269 l 1,38,-1
 224 515 l 1,39,-1
 158 515 l 1,40,-1
 425 251 l 1,41,-1
 425 43 l 1,42,-1
 474 43 l 1,37,-1
EndSplineSet
EndChar

StartChar: z
Encoding: 122 122 93
Width: 1019
GlyphClass: 2
Flags: W
LayerCount: 2
Fore
SplineSet
965 515 m 1,0,-1
 945 515 l 1,1,-1
 483 43 l 1,2,-1
 577 43 l 2,3,4
 715 43 715 43 800 96 c 0,5,6
 843 123 843 123 867.5 143.5 c 128,-1,7
 892 164 892 164 924 197 c 1,8,-1
 952 197 l 1,9,-1
 952 0 l 1,10,-1
 54 0 l 1,11,-1
 54 43 l 1,12,-1
 76 43 l 1,13,-1
 537 515 l 1,14,-1
 495 515 l 2,15,16
 303 515 303 515 172 399 c 0,17,18
 155 384 155 384 132 361 c 1,19,-1
 104 361 l 1,20,-1
 104 558 l 1,21,-1
 965 558 l 1,22,-1
 965 515 l 1,0,-1
158 43 m 1,23,-1
 229 43 l 1,24,-1
 688 515 l 1,25,-1
 617 515 l 1,26,-1
 158 43 l 1,23,-1
EndSplineSet
EndChar

StartChar: braceleft
Encoding: 123 123 94
Width: 805
GlyphClass: 2
Flags: W
LayerCount: 2
Fore
SplineSet
43 281 m 1,0,-1
 43 339 l 1,1,2
 99 339 99 339 121.5 356.5 c 128,-1,3
 144 374 144 374 144 428 c 0,4,5
 144 501 144 501 203 575 c 0,6,7
 239 620 239 620 295.5 654.5 c 128,-1,8
 352 689 352 689 453 713 c 128,-1,9
 554 737 554 737 684 737 c 1,10,-1
 684 683 l 1,11,12
 676 683 676 683 652 677.5 c 128,-1,13
 628 672 628 672 610.5 664.5 c 128,-1,14
 593 657 593 657 571.5 641.5 c 128,-1,15
 550 626 550 626 534 606 c 1,16,17
 498 557 498 557 498 491.5 c 128,-1,18
 498 426 498 426 488.5 392 c 128,-1,19
 479 358 479 358 458 342.5 c 128,-1,20
 437 327 437 327 415.5 322.5 c 128,-1,21
 394 318 394 318 357 318 c 1,22,-1
 357 302 l 1,23,24
 394 302 394 302 415.5 297.5 c 128,-1,25
 437 293 437 293 458 278 c 0,26,27
 498 248 498 248 498 139 c 0,28,29
 498 85 498 85 517 44.5 c 128,-1,30
 536 4 536 4 564 -16 c 0,31,32
 621 -56 621 -56 665 -61 c 2,33,-1
 684 -63 l 1,34,-1
 684 -117 l 1,35,36
 554 -117 554 -117 453 -93 c 128,-1,37
 352 -69 352 -69 295.5 -34.5 c 128,-1,38
 239 0 239 0 203 45 c 0,39,40
 144 119 144 119 144 192 c 0,41,42
 144 246 144 246 121.5 263.5 c 128,-1,43
 99 281 99 281 43 281 c 1,0,-1
209 216 m 0,44,45
 209 108 209 108 271.5 40.5 c 128,-1,46
 334 -27 334 -27 481 -62 c 1,47,-1
 483 -55 l 1,48,49
 357 -7 357 -7 319.5 44.5 c 128,-1,50
 282 96 282 96 282 216 c 0,51,52
 282 298 282 298 189 310 c 1,53,54
 282 322 282 322 282 404 c 0,55,56
 282 524 282 524 319.5 575.5 c 128,-1,57
 357 627 357 627 483 675 c 1,58,-1
 481 682 l 1,59,60
 334 647 334 647 271.5 579.5 c 128,-1,61
 209 512 209 512 209 404 c 0,62,63
 209 332 209 332 163 314 c 1,64,-1
 163 306 l 1,65,66
 209 288 209 288 209 216 c 0,44,45
EndSplineSet
EndChar

StartChar: bar
Encoding: 124 124 95
Width: 365
GlyphClass: 2
Flags: W
LayerCount: 2
Fore
SplineSet
215 715 m 1,0,-1
 215 -95 l 1,1,-1
 150 -95 l 1,2,-1
 150 715 l 1,3,-1
 215 715 l 1,0,-1
EndSplineSet
EndChar

StartChar: braceright
Encoding: 125 125 96
Width: 805
GlyphClass: 2
Flags: W
LayerCount: 2
Fore
SplineSet
762 339 m 1,0,-1
 762 281 l 1,1,2
 706 281 706 281 683.5 263.5 c 128,-1,3
 661 246 661 246 661 192 c 0,4,5
 661 119 661 119 602 45 c 0,6,7
 566 0 566 0 509.5 -34.5 c 128,-1,8
 453 -69 453 -69 352 -93 c 128,-1,9
 251 -117 251 -117 121 -117 c 1,10,-1
 121 -63 l 1,11,12
 129 -63 129 -63 153 -57.5 c 128,-1,13
 177 -52 177 -52 194.5 -44.5 c 128,-1,14
 212 -37 212 -37 233.5 -21.5 c 128,-1,15
 255 -6 255 -6 270 14 c 0,16,17
 307 63 307 63 307 128.5 c 128,-1,18
 307 194 307 194 316.5 228 c 128,-1,19
 326 262 326 262 347 277.5 c 128,-1,20
 368 293 368 293 389.5 297.5 c 128,-1,21
 411 302 411 302 448 302 c 1,22,-1
 448 318 l 1,23,24
 411 318 411 318 389.5 322.5 c 128,-1,25
 368 327 368 327 347 342 c 0,26,27
 307 372 307 372 307 481 c 0,28,29
 307 535 307 535 288 575.5 c 128,-1,30
 269 616 269 616 242 636 c 1,31,32
 184 676 184 676 140 681 c 2,33,-1
 121 683 l 1,34,-1
 121 737 l 1,35,36
 251 737 251 737 352 713 c 128,-1,37
 453 689 453 689 509.5 654.5 c 128,-1,38
 566 620 566 620 602 575 c 0,39,40
 661 501 661 501 661 428 c 0,41,42
 661 374 661 374 683.5 356.5 c 128,-1,43
 706 339 706 339 762 339 c 1,0,-1
498 338 m 1,44,-1
 498 346 l 1,45,46
 452 364 452 364 452 436 c 0,47,48
 452 544 452 544 402.5 601.5 c 128,-1,49
 353 659 353 659 220 694 c 1,50,-1
 218 687 l 1,51,52
 315 654 315 654 347 604.5 c 128,-1,53
 379 555 379 555 379 436 c 0,54,55
 379 380 379 380 409.5 359 c 128,-1,56
 440 338 440 338 498 338 c 1,44,-1
498 282 m 1,57,58
 440 282 440 282 409.5 261 c 128,-1,59
 379 240 379 240 379 184 c 0,60,61
 379 65 379 65 347 15.5 c 128,-1,62
 315 -34 315 -34 218 -67 c 1,63,-1
 220 -74 l 1,64,65
 353 -39 353 -39 402.5 18.5 c 128,-1,66
 452 76 452 76 452 184 c 0,67,68
 452 256 452 256 498 274 c 1,69,-1
 498 282 l 1,57,58
EndSplineSet
EndChar

StartChar: asciitilde
Encoding: 126 126 97
Width: 740
GlyphClass: 2
Flags: W
LayerCount: 2
Fore
SplineSet
640 299 m 1,0,1
 596 344 596 344 532.5 344 c 128,-1,2
 469 344 469 344 369.5 298.5 c 128,-1,3
 270 253 270 253 204.5 253 c 128,-1,4
 139 253 139 253 100 298 c 1,5,-1
 100 378 l 1,6,7
 148 333 148 333 205 333 c 128,-1,8
 262 333 262 333 368.5 378.5 c 128,-1,9
 475 424 475 424 532.5 424 c 128,-1,10
 590 424 590 424 640 379 c 1,11,-1
 640 299 l 1,0,1
EndSplineSet
EndChar

StartChar: exclamdown
Encoding: 161 161 98
Width: 679
GlyphClass: 2
Flags: W
LayerCount: 2
Fore
SplineSet
567 465 m 128,-1,1
 567 407 567 407 500 366.5 c 128,-1,2
 433 326 433 326 337.5 326 c 128,-1,3
 242 326 242 326 175 366.5 c 128,-1,4
 108 407 108 407 108 465 c 128,-1,5
 108 523 108 523 175 563.5 c 128,-1,6
 242 604 242 604 337.5 604 c 128,-1,7
 433 604 433 604 500 563.5 c 128,-1,0
 567 523 567 523 567 465 c 128,-1,1
537 -104 m 0,8,9
 537 -162 537 -162 485 -192.5 c 128,-1,10
 433 -223 433 -223 337.5 -223 c 128,-1,11
 242 -223 242 -223 190.5 -192.5 c 128,-1,12
 139 -162 139 -162 139 -104 c 0,13,14
 139 -67 139 -67 178.5 27 c 128,-1,15
 218 121 218 121 267 201 c 128,-1,16
 316 281 316 281 338.5 281 c 128,-1,17
 361 281 361 281 409.5 201 c 128,-1,18
 458 121 458 121 497.5 27 c 128,-1,19
 537 -67 537 -67 537 -104 c 0,8,9
206 -117 m 0,20,21
 206 -140 206 -140 232 -157 c 128,-1,22
 258 -174 258 -174 298 -181 c 1,23,-1
 302 -172 l 1,24,25
 282 -165 282 -165 268 -152.5 c 128,-1,26
 254 -140 254 -140 254 -128 c 0,27,28
 255 -95 255 -95 291.5 1.5 c 128,-1,29
 328 98 328 98 368 178 c 1,30,-1
 338 226 l 1,31,32
 298 156 298 156 252 39 c 128,-1,33
 206 -78 206 -78 206 -117 c 0,20,21
236 465 m 128,-1,35
 236 519 236 519 276 557 c 1,36,-1
 273 562 l 1,37,38
 232 547 232 547 207 521 c 128,-1,39
 182 495 182 495 182 465 c 128,-1,40
 182 435 182 435 207 409 c 128,-1,41
 232 383 232 383 273 368 c 1,42,-1
 276 373 l 1,43,34
 236 411 236 411 236 465 c 128,-1,35
EndSplineSet
EndChar

StartChar: cent
Encoding: 162 162 99
Width: 943
GlyphClass: 2
Flags: W
LayerCount: 2
Fore
SplineSet
571 27 m 2,0,-1
 530 27 l 1,1,-1
 530 -110 l 1,2,-1
 480 -110 l 1,3,-1
 480 30 l 1,4,5
 348 39 348 39 248 72 c 128,-1,6
 148 105 148 105 85 171.5 c 128,-1,7
 22 238 22 238 22 330 c 0,8,9
 22 401 22 401 61.5 457.5 c 128,-1,10
 101 514 101 514 168 548 c 0,11,12
 301 617 301 617 480 627 c 1,13,-1
 480 760 l 1,14,-1
 530 760 l 1,15,-1
 530 629 l 1,16,-1
 541 629 l 2,17,18
 671 629 671 629 844 568 c 1,19,-1
 844 608 l 1,20,-1
 891 608 l 1,21,-1
 891 400 l 1,22,-1
 846 400 l 1,23,24
 803 460 803 460 714 523 c 128,-1,25
 625 586 625 586 537 586 c 0,26,27
 411 586 411 586 411 464 c 2,28,-1
 411 229 l 2,29,30
 411 143 411 143 447.5 105.5 c 128,-1,31
 484 68 484 68 564.5 68 c 128,-1,32
 645 68 645 68 708.5 84 c 128,-1,33
 772 100 772 100 807.5 120 c 128,-1,34
 843 140 843 140 871 156 c 128,-1,35
 899 172 899 172 907 172 c 0,36,37
 930 172 930 172 930 152 c 0,38,39
 930 127 930 127 840 81 c 1,40,41
 730 27 730 27 571 27 c 2,0,-1
175.5 194.5 m 128,-1,43
 132 254 132 254 132 328.5 c 128,-1,44
 132 403 132 403 175.5 462.5 c 128,-1,45
 219 522 219 522 289 562 c 1,46,-1
 287 566 l 1,47,48
 196 529 196 529 136.5 466 c 128,-1,49
 77 403 77 403 77 328 c 128,-1,50
 77 253 77 253 136.5 190.5 c 128,-1,51
 196 128 196 128 287 91 c 1,52,-1
 289 95 l 1,53,42
 219 135 219 135 175.5 194.5 c 128,-1,43
EndSplineSet
EndChar

StartChar: sterling
Encoding: 163 163 100
Width: 1109
GlyphClass: 2
Flags: W
LayerCount: 2
Fore
SplineSet
65 335 m 1,0,-1
 65 385 l 1,1,-1
 214 385 l 1,2,3
 151 451 151 451 151 508 c 0,4,5
 151 671 151 671 577 671 c 0,6,7
 662 671 662 671 748 655.5 c 128,-1,8
 834 640 834 640 878 625 c 2,9,-1
 922 610 l 1,10,-1
 922 671 l 1,11,-1
 970 671 l 1,12,-1
 970 453 l 1,13,-1
 921 453 l 1,14,15
 823 550 823 550 746.5 584.5 c 128,-1,16
 670 619 670 619 599 619 c 128,-1,17
 528 619 528 619 502 598.5 c 128,-1,18
 476 578 476 578 476 549 c 0,19,20
 476 521 476 521 512 488 c 0,21,22
 540 462 540 462 581 431 c 128,-1,23
 622 400 622 400 640 385 c 1,24,-1
 858 385 l 1,25,-1
 858 335 l 1,26,-1
 695 335 l 1,27,28
 772 256 772 256 772 175 c 0,29,30
 772 125 772 125 747 89 c 1,31,32
 836 61 836 61 915 61 c 0,33,34
 955 61 955 61 983 79.5 c 128,-1,35
 1011 98 1011 98 1022 120.5 c 128,-1,36
 1033 143 1033 143 1043.5 161.5 c 128,-1,37
 1054 180 1054 180 1063 180 c 0,38,39
 1077 180 1077 180 1085.5 157 c 128,-1,40
 1094 134 1094 134 1094 105 c 0,41,42
 1094 54 1094 54 1065 16 c 128,-1,43
 1036 -22 1036 -22 966.5 -22 c 128,-1,44
 897 -22 897 -22 717 56 c 1,45,46
 623 -22 623 -22 334 -22 c 128,-1,47
 45 -22 45 -22 45 83 c 0,48,49
 45 141 45 141 120 184 c 128,-1,50
 195 227 195 227 324 227 c 0,51,52
 356 227 356 227 387 221 c 1,53,54
 355 255 355 255 317 288 c 128,-1,55
 279 321 279 321 264 335 c 1,56,-1
 65 335 l 1,0,-1
324 185 m 0,57,58
 248 185 248 185 194.5 157.5 c 128,-1,59
 141 130 141 130 141 89 c 0,60,61
 141 62 141 62 172.5 47 c 128,-1,62
 204 32 204 32 260.5 32 c 128,-1,63
 317 32 317 32 373 60 c 128,-1,64
 429 88 429 88 429 135 c 0,65,66
 429 149 429 149 420 172 c 1,67,68
 365 185 365 185 324 185 c 0,57,58
497.5 72.5 m 128,-1,70
 536 108 536 108 536 157 c 128,-1,71
 536 206 536 206 507.5 252 c 128,-1,72
 479 298 479 298 438.5 337 c 128,-1,73
 398 376 398 376 358 412 c 0,74,75
 261 499 261 499 261 536.5 c 128,-1,76
 261 574 261 574 287 602 c 1,77,-1
 284 607 l 1,78,79
 218 581 218 581 218 523 c 0,80,81
 218 473 218 473 314 382 c 0,82,83
 353 345 353 345 392 307 c 0,84,85
 488 215 488 215 488 162.5 c 128,-1,86
 488 110 488 110 459.5 80 c 128,-1,87
 431 50 431 50 396 36 c 1,88,-1
 398 30 l 1,89,69
 459 37 459 37 497.5 72.5 c 128,-1,70
EndSplineSet
EndChar

StartChar: yen
Encoding: 165 165 101
Width: 1309
GlyphClass: 2
Flags: W
LayerCount: 2
Fore
SplineSet
1157 197 m 1,0,-1
 818 197 l 1,1,-1
 818 151 l 2,2,3
 818 95 818 95 848 69 c 128,-1,4
 878 43 878 43 927 43 c 2,5,-1
 1048 43 l 1,6,-1
 1048 0 l 1,7,-1
 197 0 l 1,8,-1
 197 43 l 1,9,-1
 319 43 l 2,10,11
 368 43 368 43 397.5 69 c 128,-1,12
 427 95 427 95 427 151 c 2,13,-1
 427 197 l 1,14,-1
 87 197 l 1,15,-1
 87 247 l 1,16,-1
 427 247 l 1,17,-1
 427 270 l 1,18,-1
 371 325 l 1,19,-1
 87 325 l 1,20,-1
 87 375 l 1,21,-1
 321 375 l 1,22,-1
 87 607 l 1,23,-1
 -14 607 l 1,24,-1
 -14 650 l 1,25,-1
 735 650 l 1,26,-1
 735 607 l 1,27,-1
 707 607 l 2,28,29
 685 607 685 607 672 594 c 128,-1,30
 659 581 659 581 659 561 c 0,31,32
 659 527 659 527 689 498 c 2,33,-1
 818 370 l 1,34,-1
 877 418 l 2,35,36
 949 476 949 476 949 534 c 0,37,38
 949 566 949 566 923 586.5 c 128,-1,39
 897 607 897 607 850 607 c 2,40,-1
 800 607 l 1,41,-1
 800 650 l 1,42,-1
 1323 650 l 1,43,-1
 1323 607 l 1,44,-1
 1257 607 l 1,45,-1
 934 375 l 1,46,-1
 1157 375 l 1,47,-1
 1157 325 l 1,48,-1
 865 325 l 1,49,-1
 818 291 l 1,50,-1
 818 247 l 1,51,-1
 1157 247 l 1,52,-1
 1157 197 l 1,0,-1
495 43 m 1,53,-1
 560 43 l 1,54,-1
 560 319 l 1,55,-1
 269 607 l 1,56,-1
 176 607 l 1,57,-1
 495 292 l 1,58,-1
 495 43 l 1,53,-1
EndSplineSet
EndChar

StartChar: brokenbar
Encoding: 166 166 102
Width: 365
GlyphClass: 2
Flags: W
LayerCount: 2
Fore
SplineSet
215 233 m 1,0,-1
 215 -95 l 1,1,-1
 150 -95 l 1,2,-1
 150 233 l 1,3,-1
 215 233 l 1,0,-1
215 715 m 1,4,-1
 215 387 l 1,5,-1
 150 387 l 1,6,-1
 150 715 l 1,7,-1
 215 715 l 1,4,-1
EndSplineSet
EndChar

StartChar: section
Encoding: 167 167 103
Width: 1105
GlyphClass: 2
Flags: W
LayerCount: 2
Fore
SplineSet
1011 398 m 0,0,1
 1011 244 1011 244 761 210 c 1,2,-1
 761 200 l 1,3,4
 875 172 875 172 943 125 c 128,-1,5
 1011 78 1011 78 1011 -2 c 0,6,7
 1011 -199 1011 -199 605 -199 c 0,8,9
 386 -199 386 -199 162 -132 c 1,10,-1
 139 -181 l 1,11,-1
 94 -181 l 1,12,-1
 94 63 l 1,13,-1
 139 63 l 1,14,15
 152 32 152 32 196 -6 c 128,-1,16
 240 -44 240 -44 301.5 -78 c 128,-1,17
 363 -112 363 -112 444.5 -135 c 128,-1,18
 526 -158 526 -158 604 -158 c 0,19,20
 742 -158 742 -158 742 -119 c 0,21,22
 742 -79 742 -79 574 -44 c 0,23,24
 408 -10 408 -10 263 41 c 0,25,26
 191 66 191 66 143 108 c 128,-1,27
 95 150 95 150 95 202 c 0,28,29
 95 379 95 379 366 397 c 1,30,-1
 366 407 l 1,31,32
 241 442 241 442 168 488 c 128,-1,33
 95 534 95 534 95 602 c 0,34,35
 95 699 95 699 164 741 c 0,36,37
 199 762 199 762 233 775 c 128,-1,38
 267 788 267 788 320 793 c 0,39,40
 404 801 404 801 485 801 c 0,41,42
 690 801 690 801 920 741 c 1,43,44
 921 746 921 746 935 784 c 1,45,-1
 980 784 l 1,46,-1
 980 593 l 1,47,-1
 936 593 l 1,48,49
 865 662 865 662 726 711.5 c 128,-1,50
 587 761 587 761 486.5 761 c 128,-1,51
 386 761 386 761 386 711 c 0,52,53
 386 663 386 663 548 640 c 0,54,55
 708 618 708 618 849 574 c 0,56,57
 918 553 918 553 964.5 507 c 128,-1,58
 1011 461 1011 461 1011 398 c 0,0,1
152 214 m 0,59,60
 152 147 152 147 257 98.5 c 128,-1,61
 362 50 362 50 604 -6 c 0,62,63
 712 -31 712 -31 758.5 -49 c 128,-1,64
 805 -67 805 -67 839 -105 c 1,65,66
 839 -104 839 -104 841.5 -103 c 128,-1,67
 844 -102 844 -102 844 -89 c 128,-1,68
 844 -76 844 -76 835.5 -57 c 128,-1,69
 827 -38 827 -38 806.5 -23.5 c 128,-1,70
 786 -9 786 -9 766.5 1 c 128,-1,71
 747 11 747 11 711.5 20.5 c 128,-1,72
 676 30 676 30 650 36 c 128,-1,73
 624 42 624 42 578.5 51.5 c 128,-1,74
 533 61 533 61 506 67 c 0,75,76
 176 143 176 143 172 265 c 1,77,-1
 165 265 l 1,78,79
 152 242 152 242 152 214 c 0,59,60
152 614 m 0,80,81
 152 547 152 547 257 498.5 c 128,-1,82
 362 450 362 450 604 394 c 0,83,84
 712 369 712 369 758.5 351 c 128,-1,85
 805 333 805 333 839 295 c 1,86,87
 839 296 839 296 841.5 297 c 128,-1,88
 844 298 844 298 844 311 c 128,-1,89
 844 324 844 324 835.5 343 c 128,-1,90
 827 362 827 362 806.5 376.5 c 128,-1,91
 786 391 786 391 766.5 401 c 128,-1,92
 747 411 747 411 711.5 420.5 c 128,-1,93
 676 430 676 430 650 436 c 128,-1,94
 624 442 624 442 578.5 451.5 c 128,-1,95
 533 461 533 461 506 467 c 0,96,97
 176 543 176 543 172 665 c 1,98,-1
 165 665 l 1,99,100
 152 642 152 642 152 614 c 0,80,81
742 281 m 0,101,102
 742 309 742 309 680.5 328.5 c 128,-1,103
 619 348 619 348 566 354.5 c 128,-1,104
 513 361 513 361 490 361 c 0,105,106
 386 361 386 361 386 311 c 0,107,108
 386 283 386 283 435 266 c 0,109,110
 504 242 504 242 604 242 c 0,111,112
 742 242 742 242 742 281 c 0,101,102
EndSplineSet
EndChar

StartChar: dieresis
Encoding: 168 168 104
Width: 885
GlyphClass: 2
Flags: W
LayerCount: 2
Fore
SplineSet
807 706 m 128,-1,1
 807 659 807 659 767 626 c 128,-1,2
 727 593 727 593 670 593 c 128,-1,3
 613 593 613 593 573 626 c 128,-1,4
 533 659 533 659 533 706 c 128,-1,5
 533 753 533 753 573 787 c 128,-1,6
 613 821 613 821 670 821 c 128,-1,7
 727 821 727 821 767 787 c 128,-1,0
 807 753 807 753 807 706 c 128,-1,1
351 706 m 128,-1,9
 351 659 351 659 311 626 c 128,-1,10
 271 593 271 593 214 593 c 128,-1,11
 157 593 157 593 117 626 c 128,-1,12
 77 659 77 659 77 706 c 128,-1,13
 77 753 77 753 117 787 c 128,-1,14
 157 821 157 821 214 821 c 128,-1,15
 271 821 271 821 311 787 c 128,-1,8
 351 753 351 753 351 706 c 128,-1,9
155 706 m 128,-1,17
 155 759 155 759 186 793 c 1,18,-1
 183 796 l 1,19,20
 152 783 152 783 133 758.5 c 128,-1,21
 114 734 114 734 114 706 c 128,-1,22
 114 678 114 678 133 653.5 c 128,-1,23
 152 629 152 629 183 616 c 1,24,-1
 186 619 l 1,25,16
 155 653 155 653 155 706 c 128,-1,17
611 706 m 128,-1,27
 611 759 611 759 642 793 c 1,28,-1
 639 796 l 1,29,30
 608 783 608 783 589 758.5 c 128,-1,31
 570 734 570 734 570 706 c 128,-1,32
 570 678 570 678 589 653.5 c 128,-1,33
 608 629 608 629 639 616 c 1,34,-1
 642 619 l 1,35,26
 611 653 611 653 611 706 c 128,-1,27
EndSplineSet
EndChar

StartChar: copyright
Encoding: 169 169 105
Width: 775
GlyphClass: 2
Flags: W
LayerCount: 2
Fore
SplineSet
45 457 m 128,-1,1
 45 567 45 567 145.5 644.5 c 128,-1,2
 246 722 246 722 388 722 c 128,-1,3
 530 722 530 722 630 644.5 c 128,-1,4
 730 567 730 567 730 457 c 128,-1,5
 730 347 730 347 630 269.5 c 128,-1,6
 530 192 530 192 388 192 c 128,-1,7
 246 192 246 192 145.5 269.5 c 128,-1,0
 45 347 45 347 45 457 c 128,-1,1
80 457 m 128,-1,9
 80 364 80 364 171 295 c 128,-1,10
 262 226 262 226 388 226 c 128,-1,11
 514 226 514 226 604.5 294.5 c 128,-1,12
 695 363 695 363 695 457 c 128,-1,13
 695 551 695 551 604.5 619.5 c 128,-1,14
 514 688 514 688 388 688 c 128,-1,15
 262 688 262 688 171 619 c 128,-1,8
 80 550 80 550 80 457 c 128,-1,9
410 322 m 0,16,17
 326 322 326 322 271.5 357 c 128,-1,18
 217 392 217 392 217 462 c 128,-1,19
 217 532 217 532 272 566.5 c 128,-1,20
 327 601 327 601 399 601 c 0,21,22
 445 601 445 601 507 571 c 1,23,-1
 507 591 l 1,24,-1
 521 591 l 1,25,-1
 521 495 l 1,26,-1
 507 495 l 1,27,28
 494 528 494 528 462.5 555.5 c 128,-1,29
 431 583 431 583 397 583 c 0,30,31
 352 583 352 583 352 525 c 2,32,-1
 352 415 l 2,33,34
 352 375 352 375 365.5 357 c 128,-1,35
 379 339 379 339 411.5 339 c 128,-1,36
 444 339 444 339 470.5 351.5 c 128,-1,37
 497 364 497 364 511 376 c 128,-1,38
 525 388 525 388 528 388 c 0,39,40
 535 388 535 388 535 380 c 0,41,42
 535 368 535 368 499.5 345 c 128,-1,43
 464 322 464 322 410 322 c 0,16,17
EndSplineSet
EndChar

StartChar: ordfeminine
Encoding: 170 170 106
Width: 793
GlyphClass: 2
Flags: W
LayerCount: 2
Fore
SplineSet
755 348 m 1,0,-1
 755 308 l 1,1,-1
 362 308 l 1,2,-1
 362 348 l 1,3,-1
 409 348 l 2,4,5
 429 348 429 348 429 361 c 0,6,7
 429 368 429 368 417 385 c 1,8,-1
 401 405 l 1,9,-1
 191 405 l 1,10,11
 180 383 180 383 180 372.5 c 128,-1,12
 180 362 180 362 188 355 c 128,-1,13
 196 348 196 348 208 348 c 2,14,-1
 264 348 l 1,15,-1
 264 308 l 1,16,-1
 29 308 l 1,17,-1
 29 348 l 1,18,19
 58 348 58 348 81 357.5 c 128,-1,20
 104 367 104 367 112 376 c 2,21,-1
 268 571 l 1,22,-1
 254 588 l 1,23,24
 238 610 238 610 200 610 c 2,25,-1
 152 610 l 1,26,-1
 152 650 l 1,27,-1
 451 650 l 1,28,-1
 693 348 l 1,29,-1
 755 348 l 1,0,-1
294 610 m 1,30,-1
 503 348 l 1,31,-1
 545 348 l 1,32,-1
 337 610 l 1,33,-1
 294 610 l 1,30,-1
294 539 m 1,34,-1
 219 444 l 1,35,-1
 370 444 l 1,36,-1
 294 539 l 1,34,-1
EndSplineSet
EndChar

StartChar: guillemotleft
Encoding: 171 171 107
Width: 678
GlyphClass: 2
Flags: W
LayerCount: 2
Fore
SplineSet
0 258 m 1,0,-1
 0 300 l 1,1,-1
 273 549 l 1,2,-1
 273 462 l 1,3,-1
 161 359 l 1,4,-1
 273 255 l 1,5,-1
 273 8 l 1,6,-1
 0 258 l 1,0,-1
235 181 m 1,7,-1
 100 303 l 1,8,-1
 66 272 l 1,9,-1
 235 119 l 1,10,-1
 235 181 l 1,7,-1
325 258 m 1,11,-1
 325 300 l 1,12,-1
 598 549 l 1,13,-1
 598 462 l 1,14,-1
 486 359 l 1,15,-1
 598 255 l 1,16,-1
 598 8 l 1,17,-1
 325 258 l 1,11,-1
560 181 m 1,18,-1
 425 303 l 1,19,-1
 391 272 l 1,20,-1
 560 119 l 1,21,-1
 560 181 l 1,18,-1
EndSplineSet
EndChar

StartChar: logicalnot
Encoding: 172 172 108
Width: 740
GlyphClass: 2
Flags: W
LayerCount: 2
Fore
SplineSet
100 378 m 1,0,-1
 640 378 l 1,1,-1
 640 108 l 1,2,-1
 562 108 l 1,3,-1
 562 298 l 1,4,-1
 100 298 l 1,5,-1
 100 378 l 1,0,-1
EndSplineSet
EndChar

StartChar: registered
Encoding: 174 174 109
Width: 775
GlyphClass: 2
Flags: W
LayerCount: 2
Fore
SplineSet
45 457 m 128,-1,1
 45 567 45 567 145.5 644.5 c 128,-1,2
 246 722 246 722 388 722 c 128,-1,3
 530 722 530 722 630 644.5 c 128,-1,4
 730 567 730 567 730 457 c 128,-1,5
 730 347 730 347 630 269.5 c 128,-1,6
 530 192 530 192 388 192 c 128,-1,7
 246 192 246 192 145.5 269.5 c 128,-1,0
 45 347 45 347 45 457 c 128,-1,1
80 457 m 128,-1,9
 80 364 80 364 171 295 c 128,-1,10
 262 226 262 226 388 226 c 128,-1,11
 514 226 514 226 604.5 294.5 c 128,-1,12
 695 363 695 363 695 457 c 128,-1,13
 695 551 695 551 604.5 619.5 c 128,-1,14
 514 688 514 688 388 688 c 128,-1,15
 262 688 262 688 171 619 c 128,-1,8
 80 550 80 550 80 457 c 128,-1,9
617 348 m 1,16,-1
 617 331 l 1,17,-1
 439 331 l 1,18,-1
 379 433 l 2,19,20
 370 450 370 450 363 450 c 0,21,22
 354 450 354 450 354 422 c 2,23,-1
 354 392 l 2,24,25
 354 348 354 348 387 348 c 2,26,-1
 409 348 l 1,27,-1
 409 331 l 1,28,-1
 168 331 l 1,29,-1
 168 348 l 1,30,-1
 204 348 l 2,31,32
 237 348 237 348 237 392 c 2,33,-1
 237 530 l 2,34,35
 237 548 237 548 227.5 561 c 128,-1,36
 218 574 218 574 204 574 c 2,37,-1
 168 574 l 1,38,-1
 168 591 l 1,39,-1
 490 591 l 2,40,41
 596 591 596 591 596 519 c 0,42,43
 596 477 596 477 558 462 c 0,44,45
 528 451 528 451 482 449 c 1,46,-1
 482 445 l 1,47,48
 499 428 499 428 538 423 c 1,49,-1
 582 348 l 1,50,-1
 617 348 l 1,16,-1
354 553 m 2,51,-1
 354 496 l 2,52,53
 354 486 354 486 369 478.5 c 128,-1,54
 384 471 384 471 404 471 c 128,-1,55
 424 471 424 471 439 482.5 c 128,-1,56
 454 494 454 494 454 519.5 c 128,-1,57
 454 545 454 545 437.5 559.5 c 128,-1,58
 421 574 421 574 405 574 c 2,59,-1
 369 574 l 2,60,61
 354 574 354 574 354 553 c 2,51,-1
EndSplineSet
EndChar

StartChar: macron
Encoding: 175 175 110
Width: 505
GlyphClass: 2
Flags: W
LayerCount: 2
Fore
SplineSet
50 630 m 1,0,-1
 50 764 l 1,1,-1
 455 764 l 1,2,-1
 455 630 l 1,3,-1
 50 630 l 1,0,-1
165 650 m 1,4,-1
 165 744 l 1,5,-1
 111 744 l 1,6,-1
 111 650 l 1,7,-1
 165 650 l 1,4,-1
EndSplineSet
EndChar

StartChar: degree
Encoding: 176 176 111
Width: 447
GlyphClass: 2
Flags: W
LayerCount: 2
Fore
SplineSet
30 644 m 128,-1,1
 30 724 30 724 86.5 781 c 128,-1,2
 143 838 143 838 223 838 c 128,-1,3
 303 838 303 838 360 781 c 128,-1,4
 417 724 417 724 417 644 c 128,-1,5
 417 564 417 564 360 507.5 c 128,-1,6
 303 451 303 451 223 451 c 128,-1,7
 143 451 143 451 86.5 507.5 c 128,-1,0
 30 564 30 564 30 644 c 128,-1,1
90 644 m 128,-1,9
 90 588 90 588 129 549.5 c 128,-1,10
 168 511 168 511 223.5 511 c 128,-1,11
 279 511 279 511 318 550 c 128,-1,12
 357 589 357 589 357 644.5 c 128,-1,13
 357 700 357 700 317.5 739 c 128,-1,14
 278 778 278 778 223 778 c 128,-1,15
 168 778 168 778 129 739 c 128,-1,8
 90 700 90 700 90 644 c 128,-1,9
EndSplineSet
EndChar

StartChar: plusminus
Encoding: 177 177 112
Width: 740
GlyphClass: 2
Flags: W
LayerCount: 2
Fore
SplineSet
330 670 m 1,0,-1
 410 670 l 1,1,-1
 410 440 l 1,2,-1
 640 440 l 1,3,-1
 640 360 l 1,4,-1
 410 360 l 1,5,-1
 410 130 l 1,6,-1
 330 130 l 1,7,-1
 330 360 l 1,8,-1
 100 360 l 1,9,-1
 100 440 l 1,10,-1
 330 440 l 1,11,-1
 330 670 l 1,0,-1
640 80 m 1,12,-1
 640 0 l 1,13,-1
 100 0 l 1,14,-1
 100 80 l 1,15,-1
 640 80 l 1,12,-1
EndSplineSet
EndChar

StartChar: twosuperior
Encoding: 178 178 113
Width: 555
GlyphClass: 2
Flags: W
LayerCount: 2
Fore
SplineSet
494 494 m 1,0,-1
 521 494 l 1,1,-1
 521 362 l 1,2,-1
 25 362 l 1,3,-1
 25 403 l 1,4,5
 112 428 112 428 206 480 c 0,6,7
 256 507 256 507 288 544 c 128,-1,8
 320 581 320 581 320 613.5 c 128,-1,9
 320 646 320 646 311.5 664.5 c 128,-1,10
 303 683 303 683 289 690 c 0,11,12
 267 701 267 701 247 701 c 0,13,14
 186 701 186 701 133.5 656.5 c 128,-1,15
 81 612 81 612 71 559 c 1,16,-1
 44 559 l 1,17,-1
 44 713 l 1,18,-1
 71 713 l 1,19,-1
 71 687 l 1,20,21
 162 729 162 729 284 729 c 0,22,23
 354 729 354 729 412 714 c 0,24,25
 524 685 524 685 524 623 c 0,26,27
 524 588 524 588 483.5 552.5 c 128,-1,28
 443 517 443 517 374 488 c 0,29,30
 247 434 247 434 103 397 c 1,31,-1
 103 391 l 1,32,33
 334 398 334 398 494 447 c 1,34,-1
 494 494 l 1,0,-1
330 705 m 1,35,36
 360 677 360 677 360 614 c 128,-1,37
 360 551 360 551 307 509 c 1,38,-1
 309 505 l 1,39,40
 365 519 365 519 390 572 c 0,41,42
 400 593 400 593 400 622 c 128,-1,43
 400 651 400 651 380 674.5 c 128,-1,44
 360 698 360 698 333 708 c 1,45,-1
 330 705 l 1,35,36
EndSplineSet
EndChar

StartChar: threesuperior
Encoding: 179 179 114
Width: 564
GlyphClass: 2
Flags: W
LayerCount: 2
Fore
SplineSet
497 636 m 0,0,1
 497 609 497 609 457.5 587.5 c 128,-1,2
 418 566 418 566 353 556 c 1,3,4
 438 547 438 547 487 521 c 128,-1,5
 536 495 536 495 536 459 c 0,6,7
 536 414 536 414 456 382 c 128,-1,8
 376 350 376 350 255.5 350 c 128,-1,9
 135 350 135 350 53 386 c 1,10,-1
 53 362 l 1,11,-1
 26 362 l 1,12,-1
 26 484 l 1,13,-1
 52 484 l 1,14,15
 68 440 68 440 127.5 409 c 128,-1,16
 187 378 187 378 254 378 c 0,17,18
 295 378 295 378 320 401.5 c 128,-1,19
 345 425 345 425 345 461 c 128,-1,20
 345 497 345 497 321 520.5 c 128,-1,21
 297 544 297 544 258 544 c 128,-1,22
 219 544 219 544 195 530.5 c 128,-1,23
 171 517 171 517 171 491 c 1,24,-1
 144 491 l 1,25,-1
 144 617 l 1,26,-1
 171 617 l 1,27,28
 171 570 171 570 242 570 c 0,29,30
 279 570 279 570 301 588 c 128,-1,31
 323 606 323 606 323 635 c 128,-1,32
 323 664 323 664 303 682.5 c 128,-1,33
 283 701 283 701 236.5 701 c 128,-1,34
 190 701 190 701 142 675 c 128,-1,35
 94 649 94 649 70 598 c 1,36,-1
 44 598 l 1,37,-1
 44 708 l 1,38,-1
 71 708 l 1,39,-1
 71 688 l 1,40,41
 170 729 170 729 269 729 c 128,-1,42
 368 729 368 729 432.5 702 c 128,-1,43
 497 675 497 675 497 636 c 0,0,1
427 460 m 0,44,45
 427 481 427 481 408.5 502.5 c 128,-1,46
 390 524 390 524 360 539 c 1,47,-1
 357 536 l 1,48,49
 385 504 385 504 385 459.5 c 128,-1,50
 385 415 385 415 357 383 c 1,51,-1
 360 380 l 1,52,53
 427 414 427 414 427 460 c 0,44,45
403 633 m 0,54,55
 403 675 403 675 339 704 c 1,56,-1
 336 701 l 1,57,58
 363 667 363 667 363 636 c 128,-1,59
 363 605 363 605 336 575 c 1,60,-1
 339 572 l 1,61,62
 403 593 403 593 403 633 c 0,54,55
EndSplineSet
EndChar

StartChar: acute
Encoding: 180 180 115
Width: 650
GlyphClass: 2
Flags: W
LayerCount: 2
Fore
SplineSet
104 624 m 2,0,-1
 50 624 l 1,1,-1
 50 660 l 1,2,3
 159 660 159 660 213.5 686 c 128,-1,4
 268 712 268 712 309 770 c 1,5,-1
 600 770 l 1,6,7
 597 757 597 757 585 736 c 128,-1,8
 573 715 573 715 558 699 c 128,-1,9
 543 683 543 683 515 666.5 c 128,-1,10
 487 650 487 650 452 642 c 0,11,12
 374 624 374 624 104 624 c 2,0,-1
248 667 m 1,13,-1
 248 663 l 1,14,15
 363 669 363 669 413 742 c 1,16,-1
 349 742 l 1,17,18
 337 717 337 717 306.5 696.5 c 128,-1,19
 276 676 276 676 248 667 c 1,13,-1
EndSplineSet
EndChar

StartChar: mu
Encoding: 181 181 116
Width: 1439
GlyphClass: 2
Flags: W
LayerCount: 2
Fore
SplineSet
540 -44 m 2,0,1
 540 -155 540 -155 669 -155 c 2,2,-1
 750 -155 l 1,3,-1
 750 -199 l 1,4,-1
 454 -199 l 2,5,6
 314 -199 314 -199 261 -154 c 0,7,8
 216 -116 216 -116 216 -41 c 2,9,-1
 216 426 l 2,10,11
 216 515 216 515 126 515 c 2,12,-1
 20 515 l 1,13,-1
 20 559 l 1,14,-1
 553 559 l 1,15,-1
 553 225 l 2,16,17
 553 103 553 103 676 103 c 0,18,19
 733 103 733 103 788 129 c 128,-1,20
 843 155 843 155 881 192 c 1,21,-1
 881 426 l 2,22,23
 881 515 881 515 791 515 c 2,24,-1
 685 515 l 1,25,-1
 685 559 l 1,26,-1
 1218 559 l 1,27,-1
 1218 132 l 2,28,29
 1218 96 1218 96 1244.5 69.5 c 128,-1,30
 1271 43 1271 43 1308 43 c 2,31,-1
 1414 43 l 1,32,-1
 1414 0 l 1,33,-1
 881 0 l 1,34,-1
 881 129 l 1,35,36
 766 27 766 27 645 27 c 0,37,38
 594 27 594 27 540 43 c 1,39,-1
 540 -44 l 2,0,1
279 426 m 2,40,-1
 279 -30 l 2,41,42
 279 -134 279 -134 382 -153 c 1,43,-1
 383 -145 l 1,44,45
 330 -118 330 -118 330 -30 c 2,46,-1
 330 426 l 2,47,48
 330 506 330 506 211 528 c 1,49,-1
 209 521 l 1,50,51
 279 496 279 496 279 426 c 2,40,-1
944 426 m 2,52,-1
 944 43 l 1,53,-1
 995 43 l 1,54,-1
 995 426 l 2,55,56
 995 506 995 506 876 528 c 1,57,-1
 874 521 l 1,58,59
 944 496 944 496 944 426 c 2,52,-1
EndSplineSet
EndChar

StartChar: paragraph
Encoding: 182 182 117
Width: 1117
GlyphClass: 2
Flags: W
LayerCount: 2
Fore
SplineSet
963 801 m 0,0,1
 1012 801 1012 801 1067 796 c 1,2,-1
 1062 756 l 1,3,4
 1046 758 1046 758 1029 758 c 0,5,6
 980 758 980 758 950 732 c 128,-1,7
 920 706 920 706 920 650 c 2,8,-1
 920 19 l 2,9,10
 920 -34 920 -34 899.5 -72.5 c 128,-1,11
 879 -111 879 -111 831 -140 c 0,12,13
 736 -199 736 -199 487 -199 c 0,14,15
 438 -199 438 -199 383 -194 c 1,16,-1
 388 -154 l 1,17,18
 404 -156 404 -156 421 -156 c 0,19,20
 470 -156 470 -156 500 -130 c 128,-1,21
 530 -104 530 -104 530 -48 c 2,22,-1
 530 193 l 1,23,24
 423 106 423 106 299 106 c 128,-1,25
 175 106 175 106 98.5 188 c 128,-1,26
 22 270 22 270 22 380 c 128,-1,27
 22 490 22 490 104 570 c 128,-1,28
 186 650 186 650 338 650 c 2,29,-1
 539 650 l 1,30,31
 563 725 563 725 662.5 763 c 128,-1,32
 762 801 762 801 963 801 c 0,0,1
463 261 m 0,33,34
 496 261 496 261 530 271 c 1,35,-1
 530 580 l 1,36,-1
 464 580 l 2,37,38
 398 580 398 580 368 530.5 c 128,-1,39
 338 481 338 481 338 415 c 128,-1,40
 338 349 338 349 369.5 305 c 128,-1,41
 401 261 401 261 463 261 c 0,33,34
661 31 m 2,42,-1
 661 715 l 1,43,44
 597 689 597 689 597 571 c 2,45,-1
 597 -113 l 1,46,47
 661 -87 661 -87 661 31 c 2,42,-1
184 260 m 128,-1,49
 155 320 155 320 155 378.5 c 128,-1,50
 155 437 155 437 184 497.5 c 128,-1,51
 213 558 213 558 272 597 c 1,52,-1
 269 606 l 1,53,54
 185 572 185 572 136.5 510.5 c 128,-1,55
 88 449 88 449 88 379.5 c 128,-1,56
 88 310 88 310 136.5 248 c 128,-1,57
 185 186 185 186 269 152 c 1,58,-1
 272 162 l 1,59,48
 213 200 213 200 184 260 c 128,-1,49
EndSplineSet
EndChar

StartChar: periodcentered
Encoding: 183 183 118
Width: 594
GlyphClass: 2
Flags: W
LayerCount: 2
Fore
SplineSet
501 306 m 128,-1,1
 501 254 501 254 441 217.5 c 128,-1,2
 381 181 381 181 296 181 c 128,-1,3
 211 181 211 181 151 217.5 c 128,-1,4
 91 254 91 254 91 306 c 128,-1,5
 91 358 91 358 151 395 c 128,-1,6
 211 432 211 432 296 432 c 128,-1,7
 381 432 381 432 441 395 c 128,-1,0
 501 358 501 358 501 306 c 128,-1,1
180 306 m 128,-1,9
 180 355 180 355 217 390 c 1,10,-1
 214 394 l 1,11,12
 177 380 177 380 154 356.5 c 128,-1,13
 131 333 131 333 131 306 c 128,-1,14
 131 279 131 279 154 255.5 c 128,-1,15
 177 232 177 232 214 218 c 1,16,-1
 217 222 l 1,17,8
 180 257 180 257 180 306 c 128,-1,9
EndSplineSet
EndChar

StartChar: cedilla
Encoding: 184 184 119
Width: 566
GlyphClass: 2
Flags: W
LayerCount: 2
Fore
SplineSet
50 -79 m 1,0,-1
 89 -79 l 1,1,2
 105 -118 105 -118 146.5 -146.5 c 128,-1,3
 188 -175 188 -175 225 -175 c 128,-1,4
 262 -175 262 -175 284 -157.5 c 128,-1,5
 306 -140 306 -140 306 -105 c 0,6,7
 306 -19 306 -19 175 0 c 1,8,-1
 175 16 l 1,9,10
 367 16 367 16 466 -52 c 0,11,12
 516 -86 516 -86 516 -133 c 0,13,14
 516 -223 516 -223 283 -223 c 0,15,16
 144 -223 144 -223 50 -188 c 1,17,-1
 50 -79 l 1,0,-1
366 -107 m 0,18,19
 366 -130 366 -130 353.5 -151 c 128,-1,20
 341 -172 341 -172 321 -182 c 1,21,-1
 324 -188 l 1,22,23
 358 -179 358 -179 387 -156.5 c 128,-1,24
 416 -134 416 -134 416 -107 c 0,25,26
 416 -54 416 -54 324 -24 c 1,27,-1
 320 -30 l 1,28,29
 366 -58 366 -58 366 -107 c 0,18,19
EndSplineSet
EndChar

StartChar: onesuperior
Encoding: 185 185 120
Width: 509
GlyphClass: 2
Flags: W
LayerCount: 2
Fore
SplineSet
477 691 m 1,0,-1
 432 691 l 2,1,2
 409 691 409 691 392.5 674.5 c 128,-1,3
 376 658 376 658 376 635 c 2,4,-1
 376 448 l 2,5,6
 376 392 376 392 432 392 c 2,7,-1
 477 392 l 1,8,-1
 477 362 l 1,9,-1
 80 362 l 1,10,-1
 80 392 l 1,11,-1
 126 392 l 2,12,13
 180 392 180 392 180 448 c 2,14,-1
 180 600 l 2,15,16
 180 631 180 631 186 661 c 2,17,-1
 188 671 l 1,18,-1
 54 578 l 1,19,-1
 27 611 l 1,20,-1
 204 722 l 1,21,-1
 477 722 l 1,22,-1
 477 691 l 1,0,-1
220 691 m 1,23,-1
 220 392 l 1,24,-1
 260 392 l 1,25,-1
 260 691 l 1,26,-1
 220 691 l 1,23,-1
EndSplineSet
EndChar

StartChar: ordmasculine
Encoding: 186 186 121
Width: 718
GlyphClass: 2
Flags: W
LayerCount: 2
Fore
SplineSet
597 616 m 128,-1,1
 688 562 688 562 688 483.5 c 128,-1,2
 688 405 688 405 591.5 350 c 128,-1,3
 495 295 495 295 359 295 c 128,-1,4
 223 295 223 295 126.5 350 c 128,-1,5
 30 405 30 405 30 483.5 c 128,-1,6
 30 562 30 562 121.5 616 c 128,-1,7
 213 670 213 670 359.5 670 c 128,-1,0
 506 670 506 670 597 616 c 128,-1,1
435 591.5 m 128,-1,9
 414 626 414 626 359.5 626 c 128,-1,10
 305 626 305 626 284 591.5 c 128,-1,11
 263 557 263 557 263 482 c 0,12,13
 263 338 263 338 359 338 c 0,14,15
 405 338 405 338 430.5 374.5 c 128,-1,16
 456 411 456 411 456 484 c 128,-1,8
 456 557 456 557 435 591.5 c 128,-1,9
123.5 574 m 128,-1,18
 75 534 75 534 75 483.5 c 128,-1,19
 75 433 75 433 125.5 393 c 128,-1,20
 176 353 176 353 256 335 c 1,21,-1
 256 340 l 1,22,23
 193 360 193 360 154 399 c 128,-1,24
 115 438 115 438 115 483.5 c 128,-1,25
 115 529 115 529 153 568 c 128,-1,26
 191 607 191 607 256 626 c 1,27,-1
 256 630 l 1,28,17
 172 614 172 614 123.5 574 c 128,-1,18
486 347 m 1,29,30
 548 413 548 413 548 485 c 128,-1,31
 548 557 548 557 482 623 c 1,32,33
 508 554 508 554 508 485 c 128,-1,34
 508 416 508 416 486 347 c 1,29,30
EndSplineSet
EndChar

StartChar: guillemotright
Encoding: 187 187 122
Width: 678
GlyphClass: 2
Flags: W
LayerCount: 2
Fore
SplineSet
353 299 m 1,0,-1
 353 257 l 1,1,-1
 80 8 l 1,2,-1
 80 95 l 1,3,-1
 192 198 l 1,4,-1
 80 302 l 1,5,-1
 80 549 l 1,6,-1
 353 299 l 1,0,-1
118 321 m 1,7,-1
 222 225 l 1,8,-1
 256 256 l 1,9,-1
 118 383 l 1,10,-1
 118 321 l 1,7,-1
678 299 m 1,11,-1
 678 257 l 1,12,-1
 405 8 l 1,13,-1
 405 95 l 1,14,-1
 517 198 l 1,15,-1
 405 302 l 1,16,-1
 405 549 l 1,17,-1
 678 299 l 1,11,-1
443 321 m 1,18,-1
 547 225 l 1,19,-1
 581 256 l 1,20,-1
 443 383 l 1,21,-1
 443 321 l 1,18,-1
EndSplineSet
EndChar

StartChar: onequarter
Encoding: 188 188 123
Width: 1165
GlyphClass: 2
Flags: W
LayerCount: 2
Fore
SplineSet
413 -22 m 1,0,-1
 361 -22 l 1,1,-1
 755 670 l 1,2,-1
 807 670 l 1,3,-1
 413 -22 l 1,0,-1
468 646 m 1,4,-1
 423 646 l 2,5,6
 400 646 400 646 383.5 629.5 c 128,-1,7
 367 613 367 613 367 590 c 2,8,-1
 367 403 l 2,9,10
 367 347 367 347 423 347 c 2,11,-1
 468 347 l 1,12,-1
 468 317 l 1,13,-1
 71 317 l 1,14,-1
 71 347 l 1,15,-1
 117 347 l 2,16,17
 171 347 171 347 171 403 c 2,18,-1
 171 555 l 2,19,20
 171 586 171 586 177 616 c 2,21,-1
 179 626 l 1,22,-1
 45 533 l 1,23,-1
 18 566 l 1,24,-1
 195 677 l 1,25,-1
 468 677 l 1,26,-1
 468 646 l 1,4,-1
211 646 m 1,27,-1
 211 347 l 1,28,-1
 251 347 l 1,29,-1
 251 646 l 1,30,-1
 211 646 l 1,27,-1
1115 97 m 1,31,-1
 1013 97 l 1,32,-1
 1013 85 l 2,33,34
 1013 29 1013 29 1067 29 c 2,35,-1
 1114 29 l 1,36,-1
 1114 0 l 1,37,-1
 716 0 l 1,38,-1
 716 29 l 1,39,-1
 762 29 l 2,40,41
 817 29 817 29 817 85 c 2,42,-1
 817 97 l 1,43,-1
 617 97 l 1,44,-1
 617 124 l 1,45,-1
 841 360 l 1,46,-1
 1114 360 l 1,47,-1
 1114 329 l 1,48,-1
 1067 329 l 2,49,50
 1045 329 1045 329 1029 312.5 c 128,-1,51
 1013 296 1013 296 1013 273 c 2,52,-1
 1013 126 l 1,53,-1
 1115 126 l 1,54,-1
 1115 97 l 1,31,-1
817 126 m 1,55,-1
 817 234 l 1,56,-1
 823 295 l 1,57,58
 798 265 798 265 749.5 210 c 128,-1,59
 701 155 701 155 676 126 c 1,60,-1
 817 126 l 1,55,-1
857 329 m 1,61,-1
 857 29 l 1,62,-1
 897 29 l 1,63,-1
 897 329 l 1,64,-1
 857 329 l 1,61,-1
EndSplineSet
EndChar

StartChar: onehalf
Encoding: 189 189 124
Width: 1165
GlyphClass: 2
Flags: W
LayerCount: 2
Fore
SplineSet
375 -22 m 1,0,-1
 323 -22 l 1,1,-1
 717 670 l 1,2,-1
 769 670 l 1,3,-1
 375 -22 l 1,0,-1
468 646 m 1,4,-1
 423 646 l 2,5,6
 400 646 400 646 383.5 629.5 c 128,-1,7
 367 613 367 613 367 590 c 2,8,-1
 367 403 l 2,9,10
 367 347 367 347 423 347 c 2,11,-1
 468 347 l 1,12,-1
 468 317 l 1,13,-1
 71 317 l 1,14,-1
 71 347 l 1,15,-1
 117 347 l 2,16,17
 171 347 171 347 171 403 c 2,18,-1
 171 555 l 2,19,20
 171 586 171 586 177 616 c 2,21,-1
 179 626 l 1,22,-1
 45 533 l 1,23,-1
 18 566 l 1,24,-1
 195 677 l 1,25,-1
 468 677 l 1,26,-1
 468 646 l 1,4,-1
211 646 m 1,27,-1
 211 347 l 1,28,-1
 251 347 l 1,29,-1
 251 646 l 1,30,-1
 211 646 l 1,27,-1
1083 132 m 1,31,-1
 1110 132 l 1,32,-1
 1110 0 l 1,33,-1
 614 0 l 1,34,-1
 614 41 l 1,35,36
 701 66 701 66 795 118 c 0,37,38
 845 145 845 145 877 182 c 128,-1,39
 909 219 909 219 909 251.5 c 128,-1,40
 909 284 909 284 900.5 302.5 c 128,-1,41
 892 321 892 321 878 328 c 0,42,43
 856 339 856 339 836 339 c 0,44,45
 775 339 775 339 722.5 294.5 c 128,-1,46
 670 250 670 250 660 197 c 1,47,-1
 633 197 l 1,48,-1
 633 351 l 1,49,-1
 660 351 l 1,50,-1
 660 325 l 1,51,52
 751 367 751 367 873 367 c 0,53,54
 943 367 943 367 1001 352 c 0,55,56
 1113 323 1113 323 1113 261 c 0,57,58
 1113 226 1113 226 1072.5 190.5 c 128,-1,59
 1032 155 1032 155 964 126 c 0,60,61
 836 72 836 72 692 35 c 1,62,-1
 692 29 l 1,63,64
 923 36 923 36 1083 85 c 1,65,-1
 1083 132 l 1,31,-1
919 343 m 1,66,67
 949 315 949 315 949 252 c 128,-1,68
 949 189 949 189 896 147 c 1,69,-1
 898 143 l 1,70,71
 954 157 954 157 979 210 c 0,72,73
 989 231 989 231 989 260 c 128,-1,74
 989 289 989 289 969 312.5 c 128,-1,75
 949 336 949 336 922 346 c 1,76,-1
 919 343 l 1,66,67
EndSplineSet
EndChar

StartChar: threequarters
Encoding: 190 190 125
Width: 1165
GlyphClass: 2
Flags: W
LayerCount: 2
Fore
SplineSet
443 -22 m 1,0,-1
 391 -22 l 1,1,-1
 785 670 l 1,2,-1
 837 670 l 1,3,-1
 443 -22 l 1,0,-1
518 591 m 0,4,5
 518 564 518 564 478.5 542.5 c 128,-1,6
 439 521 439 521 374 511 c 1,7,8
 459 502 459 502 508 476 c 128,-1,9
 557 450 557 450 557 414 c 0,10,11
 557 369 557 369 477 337 c 128,-1,12
 397 305 397 305 276.5 305 c 128,-1,13
 156 305 156 305 74 341 c 1,14,-1
 74 317 l 1,15,-1
 47 317 l 1,16,-1
 47 439 l 1,17,-1
 73 439 l 1,18,19
 89 395 89 395 148.5 364 c 128,-1,20
 208 333 208 333 275 333 c 0,21,22
 316 333 316 333 341 356.5 c 128,-1,23
 366 380 366 380 366 416 c 128,-1,24
 366 452 366 452 342 475.5 c 128,-1,25
 318 499 318 499 279 499 c 128,-1,26
 240 499 240 499 216 485.5 c 128,-1,27
 192 472 192 472 192 446 c 1,28,-1
 165 446 l 1,29,-1
 165 572 l 1,30,-1
 192 572 l 1,31,32
 192 525 192 525 263 525 c 0,33,34
 300 525 300 525 322 543 c 128,-1,35
 344 561 344 561 344 590 c 128,-1,36
 344 619 344 619 324 637.5 c 128,-1,37
 304 656 304 656 257.5 656 c 128,-1,38
 211 656 211 656 163 630 c 128,-1,39
 115 604 115 604 91 553 c 1,40,-1
 65 553 l 1,41,-1
 65 663 l 1,42,-1
 92 663 l 1,43,-1
 92 643 l 1,44,45
 191 684 191 684 290 684 c 128,-1,46
 389 684 389 684 453.5 657 c 128,-1,47
 518 630 518 630 518 591 c 0,4,5
381 335 m 1,48,49
 448 369 448 369 448 414.5 c 128,-1,50
 448 460 448 460 381 494 c 1,51,-1
 378 491 l 1,52,53
 406 459 406 459 406 414.5 c 128,-1,54
 406 370 406 370 378 338 c 1,55,-1
 381 335 l 1,48,49
424 588 m 0,56,57
 424 630 424 630 360 659 c 1,58,-1
 357 656 l 1,59,60
 384 622 384 622 384 591 c 128,-1,61
 384 560 384 560 357 530 c 1,62,-1
 360 527 l 1,63,64
 424 548 424 548 424 588 c 0,56,57
1115 97 m 1,65,-1
 1013 97 l 1,66,-1
 1013 85 l 2,67,68
 1013 29 1013 29 1067 29 c 2,69,-1
 1114 29 l 1,70,-1
 1114 0 l 1,71,-1
 716 0 l 1,72,-1
 716 29 l 1,73,-1
 762 29 l 2,74,75
 817 29 817 29 817 85 c 2,76,-1
 817 97 l 1,77,-1
 617 97 l 1,78,-1
 617 124 l 1,79,-1
 841 360 l 1,80,-1
 1114 360 l 1,81,-1
 1114 329 l 1,82,-1
 1067 329 l 2,83,84
 1045 329 1045 329 1029 312.5 c 128,-1,85
 1013 296 1013 296 1013 273 c 2,86,-1
 1013 126 l 1,87,-1
 1115 126 l 1,88,-1
 1115 97 l 1,65,-1
817 126 m 1,89,-1
 817 234 l 1,90,-1
 823 295 l 1,91,92
 798 265 798 265 749.5 210 c 128,-1,93
 701 155 701 155 676 126 c 1,94,-1
 817 126 l 1,89,-1
857 329 m 1,95,-1
 857 29 l 1,96,-1
 897 29 l 1,97,-1
 897 329 l 1,98,-1
 857 329 l 1,95,-1
EndSplineSet
EndChar

StartChar: questiondown
Encoding: 191 191 126
Width: 1092
GlyphClass: 2
Flags: W
LayerCount: 2
Fore
SplineSet
811 644 m 128,-1,1
 811 586 811 586 744.5 545.5 c 128,-1,2
 678 505 678 505 583 505 c 128,-1,3
 488 505 488 505 420.5 545.5 c 128,-1,4
 353 586 353 586 353 644 c 128,-1,5
 353 702 353 702 420.5 742.5 c 128,-1,6
 488 783 488 783 583 783 c 128,-1,7
 678 783 678 783 744.5 742.5 c 128,-1,0
 811 702 811 702 811 644 c 128,-1,1
95 148 m 0,8,9
 95 226 95 226 174 293.5 c 128,-1,10
 253 361 253 361 383.5 400.5 c 128,-1,11
 514 440 514 440 660 440 c 0,12,13
 673 440 673 440 739 438 c 1,14,-1
 739 393 l 1,15,16
 677 395 677 395 641 395 c 0,17,18
 568 395 568 395 527.5 353.5 c 128,-1,19
 487 312 487 312 487 204 c 0,20,21
 487 74 487 74 515 40 c 0,22,23
 529 23 529 23 541 17.5 c 128,-1,24
 553 12 553 12 571 12 c 0,25,26
 672 12 672 12 794 82 c 128,-1,27
 916 152 916 152 938 221 c 1,28,-1
 980 221 l 1,29,-1
 980 -43 l 1,30,-1
 938 -43 l 1,31,-1
 938 22 l 1,32,33
 769 -26 769 -26 575 -26 c 0,34,35
 95 -26 95 -26 95 148 c 0,8,9
476 644 m 128,-1,37
 476 697 476 697 513 736 c 1,38,-1
 510 741 l 1,39,40
 473 727 473 727 450 700.5 c 128,-1,41
 427 674 427 674 427 644 c 128,-1,42
 427 614 427 614 450 588 c 128,-1,43
 473 562 473 562 510 547 c 1,44,-1
 513 552 l 1,45,36
 476 591 476 591 476 644 c 128,-1,37
220 148 m 0,46,47
 220 218 220 218 280.5 279.5 c 128,-1,48
 341 341 341 341 440 377 c 1,49,-1
 436 385 l 1,50,51
 311 350 311 350 233 286.5 c 128,-1,52
 155 223 155 223 155 148 c 0,53,54
 155 51 155 51 334 17 c 1,55,-1
 336 26 l 1,56,57
 220 62 220 62 220 148 c 0,46,47
EndSplineSet
EndChar

StartChar: Agrave
Encoding: 192 192 127
Width: 1397
GlyphClass: 2
Flags: W
LayerCount: 2
Fore
SplineSet
1410 43 m 1,0,-1
 1410 0 l 1,1,-1
 659 0 l 1,2,-1
 659 43 l 1,3,-1
 733 43 l 2,4,5
 759 43 759 43 775.5 54.5 c 128,-1,6
 792 66 792 66 792 89 c 128,-1,7
 792 112 792 112 763 148 c 2,8,-1
 726 194 l 1,9,-1
 283 194 l 1,10,11
 254 149 254 149 254 114.5 c 128,-1,12
 254 80 254 80 275 61.5 c 128,-1,13
 296 43 296 43 329 43 c 2,14,-1
 422 43 l 1,15,-1
 422 0 l 1,16,-1
 -14 0 l 1,17,-1
 -14 43 l 1,18,19
 17 43 17 43 51 58.5 c 128,-1,20
 85 74 85 74 111 96 c 128,-1,21
 137 118 137 118 159 141 c 128,-1,22
 181 164 181 164 192.5 179 c 128,-1,23
 204 194 204 194 204 195 c 2,24,-1
 461 522 l 1,25,-1
 436 553 l 2,26,27
 412 582 412 582 385.5 594.5 c 128,-1,28
 359 607 359 607 313 607 c 2,29,-1
 234 607 l 1,30,-1
 234 650 l 1,31,-1
 806 650 l 1,32,-1
 1296 43 l 1,33,-1
 1410 43 l 1,0,-1
321 242 m 1,34,-1
 688 242 l 1,35,-1
 500 474 l 1,36,-1
 321 242 l 1,34,-1
928 43 m 1,37,-1
 1005 43 l 1,38,-1
 550 607 l 1,39,-1
 473 607 l 1,40,-1
 928 43 l 1,37,-1
853 752 m 1,41,-1
 853 716 l 1,42,-1
 799 716 l 2,43,44
 529 716 529 716 451 734 c 0,45,46
 380 750 380 750 345 792 c 1,47,48
 312 830 312 830 306 852 c 2,49,-1
 303 862 l 1,50,-1
 594 862 l 1,51,52
 635 804 635 804 689.5 778 c 128,-1,53
 744 752 744 752 853 752 c 1,41,-1
541 755 m 1,54,-1
 541 759 l 1,55,56
 513 768 513 768 482.5 788.5 c 128,-1,57
 452 809 452 809 440 834 c 1,58,-1
 376 834 l 1,59,60
 426 761 426 761 541 755 c 1,54,-1
EndSplineSet
EndChar

StartChar: Aacute
Encoding: 193 193 128
Width: 1397
GlyphClass: 2
Flags: W
LayerCount: 2
Fore
SplineSet
1410 43 m 1,0,-1
 1410 0 l 1,1,-1
 659 0 l 1,2,-1
 659 43 l 1,3,-1
 733 43 l 2,4,5
 759 43 759 43 775.5 54.5 c 128,-1,6
 792 66 792 66 792 89 c 128,-1,7
 792 112 792 112 763 148 c 2,8,-1
 726 194 l 1,9,-1
 283 194 l 1,10,11
 254 149 254 149 254 114.5 c 128,-1,12
 254 80 254 80 275 61.5 c 128,-1,13
 296 43 296 43 329 43 c 2,14,-1
 422 43 l 1,15,-1
 422 0 l 1,16,-1
 -14 0 l 1,17,-1
 -14 43 l 1,18,19
 17 43 17 43 51 58.5 c 128,-1,20
 85 74 85 74 111 96 c 128,-1,21
 137 118 137 118 159 141 c 128,-1,22
 181 164 181 164 192.5 179 c 128,-1,23
 204 194 204 194 204 195 c 2,24,-1
 461 522 l 1,25,-1
 436 553 l 2,26,27
 412 582 412 582 385.5 594.5 c 128,-1,28
 359 607 359 607 313 607 c 2,29,-1
 234 607 l 1,30,-1
 234 650 l 1,31,-1
 806 650 l 1,32,-1
 1296 43 l 1,33,-1
 1410 43 l 1,0,-1
321 242 m 1,34,-1
 688 242 l 1,35,-1
 500 474 l 1,36,-1
 321 242 l 1,34,-1
928 43 m 1,37,-1
 1005 43 l 1,38,-1
 550 607 l 1,39,-1
 473 607 l 1,40,-1
 928 43 l 1,37,-1
357 716 m 2,41,-1
 303 716 l 1,42,-1
 303 752 l 1,43,44
 412 752 412 752 466.5 778 c 128,-1,45
 521 804 521 804 562 862 c 1,46,-1
 853 862 l 1,47,48
 850 849 850 849 838 828 c 128,-1,49
 826 807 826 807 811 791 c 128,-1,50
 796 775 796 775 768 758.5 c 128,-1,51
 740 742 740 742 705 734 c 0,52,53
 627 716 627 716 357 716 c 2,41,-1
501 759 m 1,54,-1
 501 755 l 1,55,56
 616 761 616 761 666 834 c 1,57,-1
 602 834 l 1,58,59
 590 809 590 809 559.5 788.5 c 128,-1,60
 529 768 529 768 501 759 c 1,54,-1
EndSplineSet
EndChar

StartChar: Acircumflex
Encoding: 194 194 129
Width: 1397
GlyphClass: 2
Flags: W
LayerCount: 2
Fore
SplineSet
1410 43 m 1,0,-1
 1410 0 l 1,1,-1
 659 0 l 1,2,-1
 659 43 l 1,3,-1
 733 43 l 2,4,5
 759 43 759 43 775.5 54.5 c 128,-1,6
 792 66 792 66 792 89 c 128,-1,7
 792 112 792 112 763 148 c 2,8,-1
 726 194 l 1,9,-1
 283 194 l 1,10,11
 254 149 254 149 254 114.5 c 128,-1,12
 254 80 254 80 275 61.5 c 128,-1,13
 296 43 296 43 329 43 c 2,14,-1
 422 43 l 1,15,-1
 422 0 l 1,16,-1
 -14 0 l 1,17,-1
 -14 43 l 1,18,19
 17 43 17 43 51 58.5 c 128,-1,20
 85 74 85 74 111 96 c 128,-1,21
 137 118 137 118 159 141 c 128,-1,22
 181 164 181 164 192.5 179 c 128,-1,23
 204 194 204 194 204 195 c 2,24,-1
 461 522 l 1,25,-1
 436 553 l 2,26,27
 412 582 412 582 385.5 594.5 c 128,-1,28
 359 607 359 607 313 607 c 2,29,-1
 234 607 l 1,30,-1
 234 650 l 1,31,-1
 806 650 l 1,32,-1
 1296 43 l 1,33,-1
 1410 43 l 1,0,-1
321 242 m 1,34,-1
 688 242 l 1,35,-1
 500 474 l 1,36,-1
 321 242 l 1,34,-1
928 43 m 1,37,-1
 1005 43 l 1,38,-1
 550 607 l 1,39,-1
 473 607 l 1,40,-1
 928 43 l 1,37,-1
362 862 m 1,41,-1
 686 862 l 1,42,-1
 819 716 l 1,43,-1
 732 716 l 1,44,-1
 629 828 l 1,45,-1
 525 716 l 1,46,-1
 228 716 l 1,47,-1
 362 862 l 1,41,-1
476 837 m 1,48,-1
 414 837 l 1,49,-1
 339 754 l 1,50,-1
 401 754 l 1,51,-1
 476 837 l 1,48,-1
EndSplineSet
EndChar

StartChar: Atilde
Encoding: 195 195 130
Width: 1397
GlyphClass: 2
Flags: W
LayerCount: 2
Fore
SplineSet
1410 43 m 1,0,-1
 1410 0 l 1,1,-1
 659 0 l 1,2,-1
 659 43 l 1,3,-1
 733 43 l 2,4,5
 759 43 759 43 775.5 54.5 c 128,-1,6
 792 66 792 66 792 89 c 128,-1,7
 792 112 792 112 763 148 c 2,8,-1
 726 194 l 1,9,-1
 283 194 l 1,10,11
 254 149 254 149 254 114.5 c 128,-1,12
 254 80 254 80 275 61.5 c 128,-1,13
 296 43 296 43 329 43 c 2,14,-1
 422 43 l 1,15,-1
 422 0 l 1,16,-1
 -14 0 l 1,17,-1
 -14 43 l 1,18,19
 17 43 17 43 51 58.5 c 128,-1,20
 85 74 85 74 111 96 c 128,-1,21
 137 118 137 118 159 141 c 128,-1,22
 181 164 181 164 192.5 179 c 128,-1,23
 204 194 204 194 204 195 c 2,24,-1
 461 522 l 1,25,-1
 436 553 l 2,26,27
 412 582 412 582 385.5 594.5 c 128,-1,28
 359 607 359 607 313 607 c 2,29,-1
 234 607 l 1,30,-1
 234 650 l 1,31,-1
 806 650 l 1,32,-1
 1296 43 l 1,33,-1
 1410 43 l 1,0,-1
321 242 m 1,34,-1
 688 242 l 1,35,-1
 500 474 l 1,36,-1
 321 242 l 1,34,-1
928 43 m 1,37,-1
 1005 43 l 1,38,-1
 550 607 l 1,39,-1
 473 607 l 1,40,-1
 928 43 l 1,37,-1
824 789 m 1,41,42
 777 774 777 774 707 774 c 128,-1,43
 637 774 637 774 548.5 796 c 128,-1,44
 460 818 460 818 412.5 818 c 128,-1,45
 365 818 365 818 331 788 c 1,46,-1
 334 784 l 1,47,48
 357 789 357 789 384 789 c 128,-1,49
 411 789 411 789 513.5 764 c 128,-1,50
 616 739 616 739 694 739 c 128,-1,51
 772 739 772 739 826 785 c 1,52,-1
 824 789 l 1,41,42
761 718 m 128,-1,54
 726 705 726 705 665 705 c 128,-1,55
 604 705 604 705 507.5 729.5 c 128,-1,56
 411 754 411 754 349 754 c 0,57,58
 302 754 302 754 287 717 c 1,59,-1
 259 717 l 1,60,61
 263 766 263 766 324.5 822.5 c 128,-1,62
 386 879 386 879 476 879 c 128,-1,63
 566 879 566 879 652 861 c 128,-1,64
 738 843 738 843 790.5 843 c 128,-1,65
 843 843 843 843 864 878 c 1,66,-1
 897 878 l 1,67,68
 892 838 892 838 867.5 804 c 128,-1,69
 843 770 843 770 819.5 750.5 c 128,-1,53
 796 731 796 731 761 718 c 128,-1,54
EndSplineSet
EndChar

StartChar: Adieresis
Encoding: 196 196 131
Width: 1397
GlyphClass: 2
Flags: W
LayerCount: 2
Fore
SplineSet
1410 43 m 1,0,-1
 1410 0 l 1,1,-1
 659 0 l 1,2,-1
 659 43 l 1,3,-1
 733 43 l 2,4,5
 759 43 759 43 775.5 54.5 c 128,-1,6
 792 66 792 66 792 89 c 128,-1,7
 792 112 792 112 763 148 c 2,8,-1
 726 194 l 1,9,-1
 283 194 l 1,10,11
 254 149 254 149 254 114.5 c 128,-1,12
 254 80 254 80 275 61.5 c 128,-1,13
 296 43 296 43 329 43 c 2,14,-1
 422 43 l 1,15,-1
 422 0 l 1,16,-1
 -14 0 l 1,17,-1
 -14 43 l 1,18,19
 17 43 17 43 51 58.5 c 128,-1,20
 85 74 85 74 111 96 c 128,-1,21
 137 118 137 118 159 141 c 128,-1,22
 181 164 181 164 192.5 179 c 128,-1,23
 204 194 204 194 204 195 c 2,24,-1
 461 522 l 1,25,-1
 436 553 l 2,26,27
 412 582 412 582 385.5 594.5 c 128,-1,28
 359 607 359 607 313 607 c 2,29,-1
 234 607 l 1,30,-1
 234 650 l 1,31,-1
 806 650 l 1,32,-1
 1296 43 l 1,33,-1
 1410 43 l 1,0,-1
321 242 m 1,34,-1
 688 242 l 1,35,-1
 500 474 l 1,36,-1
 321 242 l 1,34,-1
928 43 m 1,37,-1
 1005 43 l 1,38,-1
 550 607 l 1,39,-1
 473 607 l 1,40,-1
 928 43 l 1,37,-1
943 798 m 128,-1,42
 943 751 943 751 903 718 c 128,-1,43
 863 685 863 685 806 685 c 128,-1,44
 749 685 749 685 709 718 c 128,-1,45
 669 751 669 751 669 798 c 128,-1,46
 669 845 669 845 709 879 c 128,-1,47
 749 913 749 913 806 913 c 128,-1,48
 863 913 863 913 903 879 c 128,-1,41
 943 845 943 845 943 798 c 128,-1,42
487 798 m 128,-1,50
 487 751 487 751 447 718 c 128,-1,51
 407 685 407 685 350 685 c 128,-1,52
 293 685 293 685 253 718 c 128,-1,53
 213 751 213 751 213 798 c 128,-1,54
 213 845 213 845 253 879 c 128,-1,55
 293 913 293 913 350 913 c 128,-1,56
 407 913 407 913 447 879 c 128,-1,49
 487 845 487 845 487 798 c 128,-1,50
291 798 m 128,-1,58
 291 851 291 851 322 885 c 1,59,-1
 319 888 l 1,60,61
 288 875 288 875 269 850.5 c 128,-1,62
 250 826 250 826 250 798 c 128,-1,63
 250 770 250 770 269 745.5 c 128,-1,64
 288 721 288 721 319 708 c 1,65,-1
 322 711 l 1,66,57
 291 745 291 745 291 798 c 128,-1,58
747 798 m 128,-1,68
 747 851 747 851 778 885 c 1,69,-1
 775 888 l 1,70,71
 744 875 744 875 725 850.5 c 128,-1,72
 706 826 706 826 706 798 c 128,-1,73
 706 770 706 770 725 745.5 c 128,-1,74
 744 721 744 721 775 708 c 1,75,-1
 778 711 l 1,76,67
 747 745 747 745 747 798 c 128,-1,68
EndSplineSet
EndChar

StartChar: Aring
Encoding: 197 197 132
Width: 1397
GlyphClass: 2
Flags: W
LayerCount: 2
Fore
SplineSet
1410 43 m 1,0,-1
 1410 0 l 1,1,-1
 659 0 l 1,2,-1
 659 43 l 1,3,-1
 733 43 l 2,4,5
 759 43 759 43 775.5 54.5 c 128,-1,6
 792 66 792 66 792 89 c 128,-1,7
 792 112 792 112 763 148 c 2,8,-1
 726 194 l 1,9,-1
 283 194 l 1,10,11
 254 149 254 149 254 114.5 c 128,-1,12
 254 80 254 80 275 61.5 c 128,-1,13
 296 43 296 43 329 43 c 2,14,-1
 422 43 l 1,15,-1
 422 0 l 1,16,-1
 -14 0 l 1,17,-1
 -14 43 l 1,18,19
 17 43 17 43 51 58.5 c 128,-1,20
 85 74 85 74 111 96 c 128,-1,21
 137 118 137 118 159 141 c 128,-1,22
 181 164 181 164 192.5 179 c 128,-1,23
 204 194 204 194 204 195 c 2,24,-1
 461 522 l 1,25,-1
 436 553 l 2,26,27
 412 582 412 582 385.5 594.5 c 128,-1,28
 359 607 359 607 313 607 c 2,29,-1
 234 607 l 1,30,-1
 234 650 l 1,31,-1
 806 650 l 1,32,-1
 1296 43 l 1,33,-1
 1410 43 l 1,0,-1
321 242 m 1,34,-1
 688 242 l 1,35,-1
 500 474 l 1,36,-1
 321 242 l 1,34,-1
928 43 m 1,37,-1
 1005 43 l 1,38,-1
 550 607 l 1,39,-1
 473 607 l 1,40,-1
 928 43 l 1,37,-1
530 798 m 128,-1,42
 530 757 530 757 544 728 c 128,-1,43
 558 699 558 699 578 699 c 128,-1,44
 598 699 598 699 612 728 c 128,-1,45
 626 757 626 757 626 798 c 128,-1,46
 626 839 626 839 612 868 c 128,-1,47
 598 897 598 897 578 897 c 128,-1,48
 558 897 558 897 544 868 c 128,-1,41
 530 839 530 839 530 798 c 128,-1,42
690.5 891 m 128,-1,50
 737 852 737 852 737 797.5 c 128,-1,51
 737 743 737 743 690.5 705.5 c 128,-1,52
 644 668 644 668 578.5 668 c 128,-1,53
 513 668 513 668 467 706 c 128,-1,54
 421 744 421 744 421 798 c 128,-1,55
 421 852 421 852 467.5 891 c 128,-1,56
 514 930 514 930 579 930 c 128,-1,49
 644 930 644 930 690.5 891 c 128,-1,50
493 798 m 128,-1,58
 493 852 493 852 524 888 c 1,59,-1
 521 891 l 1,60,61
 491 877 491 877 472 851.5 c 128,-1,62
 453 826 453 826 453 798 c 128,-1,63
 453 770 453 770 472 744.5 c 128,-1,64
 491 719 491 719 521 705 c 1,65,-1
 524 708 l 1,66,57
 493 744 493 744 493 798 c 128,-1,58
EndSplineSet
EndChar

StartChar: AE
Encoding: 198 198 133
Width: 1833
GlyphClass: 2
Flags: W
LayerCount: 2
Fore
SplineSet
234 650 m 1,0,-1
 1753 650 l 1,1,-1
 1753 420 l 1,2,-1
 1724 420 l 1,3,4
 1666 498 1666 498 1556 551.5 c 128,-1,5
 1446 605 1446 605 1277 605 c 0,6,7
 1225 605 1225 605 1194.5 578 c 128,-1,8
 1164 551 1164 551 1164 508 c 2,9,-1
 1164 474 l 2,10,11
 1164 372 1164 372 1252 372 c 0,12,13
 1320 372 1320 372 1395.5 410 c 128,-1,14
 1471 448 1471 448 1495 499 c 1,15,-1
 1532 499 l 1,16,-1
 1532 194 l 1,17,-1
 1495 194 l 1,18,19
 1472 247 1472 247 1398 279.5 c 128,-1,20
 1324 312 1324 312 1252 312 c 0,21,22
 1205 312 1205 312 1184.5 286 c 128,-1,23
 1164 260 1164 260 1164 223 c 2,24,-1
 1164 187 l 2,25,26
 1164 110 1164 110 1179.5 76.5 c 128,-1,27
 1195 43 1195 43 1250 43 c 2,28,-1
 1275 43 l 2,29,30
 1331 43 1331 43 1367 44.5 c 128,-1,31
 1403 46 1403 46 1459 55.5 c 128,-1,32
 1515 65 1515 65 1556 81.5 c 128,-1,33
 1597 98 1597 98 1643 131.5 c 128,-1,34
 1689 165 1689 165 1724 212 c 1,35,-1
 1753 212 l 1,36,-1
 1753 0 l 1,37,-1
 546 0 l 1,38,-1
 546 43 l 1,39,-1
 666 43 l 2,40,41
 775 43 775 43 775 151 c 2,42,-1
 775 312 l 1,43,-1
 375 312 l 1,44,-1
 283 194 l 2,45,46
 254 157 254 157 254 118.5 c 128,-1,47
 254 80 254 80 275 61.5 c 128,-1,48
 296 43 296 43 329 43 c 2,49,-1
 422 43 l 1,50,-1
 422 0 l 1,51,-1
 -14 0 l 1,52,-1
 -14 43 l 1,53,54
 17 43 17 43 51 58.5 c 128,-1,55
 85 74 85 74 111 96 c 128,-1,56
 137 118 137 118 159 141 c 128,-1,57
 181 164 181 164 192.5 179 c 128,-1,58
 204 194 204 194 204 195 c 2,59,-1
 461 522 l 1,60,-1
 436 553 l 2,61,62
 412 582 412 582 385.5 594.5 c 128,-1,63
 359 607 359 607 313 607 c 2,64,-1
 234 607 l 1,65,-1
 234 650 l 1,0,-1
666 607 m 2,66,-1
 604 607 l 1,67,-1
 421 372 l 1,68,-1
 775 372 l 1,69,-1
 775 507 l 2,70,71
 775 607 775 607 666 607 c 2,66,-1
908 43 m 1,72,-1
 908 607 l 1,73,-1
 842 607 l 1,74,-1
 842 43 l 1,75,-1
 908 43 l 1,72,-1
EndSplineSet
EndChar

StartChar: Ccedilla
Encoding: 199 199 134
Width: 1097
GlyphClass: 2
Flags: W
LayerCount: 2
Fore
SplineSet
315 -79 m 1,0,-1
 354 -79 l 1,1,2
 370 -118 370 -118 411.5 -146.5 c 128,-1,3
 453 -175 453 -175 490 -175 c 128,-1,4
 527 -175 527 -175 549 -157.5 c 128,-1,5
 571 -140 571 -140 571 -105 c 0,6,7
 571 -40 571 -40 494 -13 c 1,8,9
 285 11 285 11 159 91 c 0,10,11
 94 132 94 132 58 192.5 c 128,-1,12
 22 253 22 253 22 335.5 c 128,-1,13
 22 418 22 418 77 487.5 c 128,-1,14
 132 557 132 557 222 596 c 0,15,16
 404 674 404 674 630 674 c 0,17,18
 785 674 785 674 989 600 c 1,19,-1
 989 650 l 1,20,-1
 1037 650 l 1,21,-1
 1037 411 l 1,22,-1
 989 411 l 1,23,24
 946 492 946 492 840.5 561 c 128,-1,25
 735 630 735 630 625 630 c 0,26,27
 543 630 543 630 508.5 591.5 c 128,-1,28
 474 553 474 553 474 485 c 2,29,-1
 474 211 l 2,30,31
 474 109 474 109 517.5 64.5 c 128,-1,32
 561 20 561 20 658.5 20 c 128,-1,33
 756 20 756 20 831.5 39 c 128,-1,34
 907 58 907 58 947 81.5 c 128,-1,35
 987 105 987 105 1019 124 c 128,-1,36
 1051 143 1051 143 1060 143 c 0,37,38
 1084 143 1084 143 1084 123 c 0,39,40
 1084 95 1084 95 970.5 37.5 c 128,-1,41
 857 -20 857 -20 675 -22 c 1,42,43
 781 -63 781 -63 781 -133 c 0,44,45
 781 -223 781 -223 548 -223 c 0,46,47
 409 -223 409 -223 315 -188 c 1,48,-1
 315 -79 l 1,0,-1
209 167.5 m 128,-1,50
 152 232 152 232 152 324 c 128,-1,51
 152 416 152 416 209 487 c 128,-1,52
 266 558 266 558 357 600 c 1,53,-1
 356 605 l 1,54,55
 234 571 234 571 157.5 493 c 128,-1,56
 81 415 81 415 81 324 c 128,-1,57
 81 233 81 233 157 162 c 128,-1,58
 233 91 233 91 356 59 c 1,59,-1
 357 64 l 1,60,49
 266 103 266 103 209 167.5 c 128,-1,50
631 -107 m 0,61,62
 631 -130 631 -130 618.5 -151 c 128,-1,63
 606 -172 606 -172 586 -182 c 1,64,-1
 589 -188 l 1,65,66
 623 -179 623 -179 652 -156.5 c 128,-1,67
 681 -134 681 -134 681 -107 c 0,68,69
 681 -54 681 -54 589 -24 c 1,70,-1
 585 -30 l 1,71,72
 631 -58 631 -58 631 -107 c 0,61,62
EndSplineSet
EndChar

StartChar: Egrave
Encoding: 200 200 135
Width: 1360
GlyphClass: 2
Flags: W
LayerCount: 2
Fore
SplineSet
804 605 m 0,0,1
 752 605 752 605 721.5 578 c 128,-1,2
 691 551 691 551 691 508 c 2,3,-1
 691 474 l 2,4,5
 691 372 691 372 779 372 c 0,6,7
 847 372 847 372 922.5 410 c 128,-1,8
 998 448 998 448 1022 499 c 1,9,-1
 1059 499 l 1,10,-1
 1059 194 l 1,11,-1
 1022 194 l 1,12,13
 999 247 999 247 925 279.5 c 128,-1,14
 851 312 851 312 779 312 c 0,15,16
 732 312 732 312 711.5 286 c 128,-1,17
 691 260 691 260 691 223 c 2,18,-1
 691 187 l 2,19,20
 691 110 691 110 706.5 76.5 c 128,-1,21
 722 43 722 43 777 43 c 2,22,-1
 802 43 l 2,23,24
 858 43 858 43 894 44.5 c 128,-1,25
 930 46 930 46 986 55.5 c 128,-1,26
 1042 65 1042 65 1083 81.5 c 128,-1,27
 1124 98 1124 98 1170 131.5 c 128,-1,28
 1216 165 1216 165 1251 212 c 1,29,-1
 1280 212 l 1,30,-1
 1280 0 l 1,31,-1
 73 0 l 1,32,-1
 73 43 l 1,33,-1
 193 43 l 2,34,35
 302 43 302 43 302 151 c 2,36,-1
 302 497 l 2,37,38
 302 542 302 542 270 574.5 c 128,-1,39
 238 607 238 607 193 607 c 2,40,-1
 73 607 l 1,41,-1
 73 650 l 1,42,-1
 1280 650 l 1,43,-1
 1280 420 l 1,44,-1
 1251 420 l 1,45,46
 1193 498 1193 498 1083 551.5 c 128,-1,47
 973 605 973 605 804 605 c 0,0,1
435 43 m 1,48,-1
 435 607 l 1,49,-1
 369 607 l 1,50,-1
 369 43 l 1,51,-1
 435 43 l 1,48,-1
955 752 m 1,52,-1
 955 716 l 1,53,-1
 901 716 l 2,54,55
 631 716 631 716 553 734 c 0,56,57
 482 750 482 750 447 792 c 1,58,59
 414 830 414 830 408 852 c 2,60,-1
 405 862 l 1,61,-1
 696 862 l 1,62,63
 737 804 737 804 791.5 778 c 128,-1,64
 846 752 846 752 955 752 c 1,52,-1
643 755 m 1,65,-1
 643 759 l 1,66,67
 615 768 615 768 584.5 788.5 c 128,-1,68
 554 809 554 809 542 834 c 1,69,-1
 478 834 l 1,70,71
 528 761 528 761 643 755 c 1,65,-1
EndSplineSet
EndChar

StartChar: Eacute
Encoding: 201 201 136
Width: 1360
GlyphClass: 2
Flags: W
LayerCount: 2
Fore
SplineSet
804 605 m 0,0,1
 752 605 752 605 721.5 578 c 128,-1,2
 691 551 691 551 691 508 c 2,3,-1
 691 474 l 2,4,5
 691 372 691 372 779 372 c 0,6,7
 847 372 847 372 922.5 410 c 128,-1,8
 998 448 998 448 1022 499 c 1,9,-1
 1059 499 l 1,10,-1
 1059 194 l 1,11,-1
 1022 194 l 1,12,13
 999 247 999 247 925 279.5 c 128,-1,14
 851 312 851 312 779 312 c 0,15,16
 732 312 732 312 711.5 286 c 128,-1,17
 691 260 691 260 691 223 c 2,18,-1
 691 187 l 2,19,20
 691 110 691 110 706.5 76.5 c 128,-1,21
 722 43 722 43 777 43 c 2,22,-1
 802 43 l 2,23,24
 858 43 858 43 894 44.5 c 128,-1,25
 930 46 930 46 986 55.5 c 128,-1,26
 1042 65 1042 65 1083 81.5 c 128,-1,27
 1124 98 1124 98 1170 131.5 c 128,-1,28
 1216 165 1216 165 1251 212 c 1,29,-1
 1280 212 l 1,30,-1
 1280 0 l 1,31,-1
 73 0 l 1,32,-1
 73 43 l 1,33,-1
 193 43 l 2,34,35
 302 43 302 43 302 151 c 2,36,-1
 302 497 l 2,37,38
 302 542 302 542 270 574.5 c 128,-1,39
 238 607 238 607 193 607 c 2,40,-1
 73 607 l 1,41,-1
 73 650 l 1,42,-1
 1280 650 l 1,43,-1
 1280 420 l 1,44,-1
 1251 420 l 1,45,46
 1193 498 1193 498 1083 551.5 c 128,-1,47
 973 605 973 605 804 605 c 0,0,1
435 43 m 1,48,-1
 435 607 l 1,49,-1
 369 607 l 1,50,-1
 369 43 l 1,51,-1
 435 43 l 1,48,-1
459 716 m 2,52,-1
 405 716 l 1,53,-1
 405 752 l 1,54,55
 514 752 514 752 568.5 778 c 128,-1,56
 623 804 623 804 664 862 c 1,57,-1
 955 862 l 1,58,59
 952 849 952 849 940 828 c 128,-1,60
 928 807 928 807 913 791 c 128,-1,61
 898 775 898 775 870 758.5 c 128,-1,62
 842 742 842 742 807 734 c 0,63,64
 729 716 729 716 459 716 c 2,52,-1
603 759 m 1,65,-1
 603 755 l 1,66,67
 718 761 718 761 768 834 c 1,68,-1
 704 834 l 1,69,70
 692 809 692 809 661.5 788.5 c 128,-1,71
 631 768 631 768 603 759 c 1,65,-1
EndSplineSet
EndChar

StartChar: Ecircumflex
Encoding: 202 202 137
Width: 1360
GlyphClass: 2
Flags: W
LayerCount: 2
Fore
SplineSet
804 605 m 0,0,1
 752 605 752 605 721.5 578 c 128,-1,2
 691 551 691 551 691 508 c 2,3,-1
 691 474 l 2,4,5
 691 372 691 372 779 372 c 0,6,7
 847 372 847 372 922.5 410 c 128,-1,8
 998 448 998 448 1022 499 c 1,9,-1
 1059 499 l 1,10,-1
 1059 194 l 1,11,-1
 1022 194 l 1,12,13
 999 247 999 247 925 279.5 c 128,-1,14
 851 312 851 312 779 312 c 0,15,16
 732 312 732 312 711.5 286 c 128,-1,17
 691 260 691 260 691 223 c 2,18,-1
 691 187 l 2,19,20
 691 110 691 110 706.5 76.5 c 128,-1,21
 722 43 722 43 777 43 c 2,22,-1
 802 43 l 2,23,24
 858 43 858 43 894 44.5 c 128,-1,25
 930 46 930 46 986 55.5 c 128,-1,26
 1042 65 1042 65 1083 81.5 c 128,-1,27
 1124 98 1124 98 1170 131.5 c 128,-1,28
 1216 165 1216 165 1251 212 c 1,29,-1
 1280 212 l 1,30,-1
 1280 0 l 1,31,-1
 73 0 l 1,32,-1
 73 43 l 1,33,-1
 193 43 l 2,34,35
 302 43 302 43 302 151 c 2,36,-1
 302 497 l 2,37,38
 302 542 302 542 270 574.5 c 128,-1,39
 238 607 238 607 193 607 c 2,40,-1
 73 607 l 1,41,-1
 73 650 l 1,42,-1
 1280 650 l 1,43,-1
 1280 420 l 1,44,-1
 1251 420 l 1,45,46
 1193 498 1193 498 1083 551.5 c 128,-1,47
 973 605 973 605 804 605 c 0,0,1
435 43 m 1,48,-1
 435 607 l 1,49,-1
 369 607 l 1,50,-1
 369 43 l 1,51,-1
 435 43 l 1,48,-1
604 862 m 1,52,-1
 928 862 l 1,53,-1
 1061 716 l 1,54,-1
 974 716 l 1,55,-1
 871 828 l 1,56,-1
 767 716 l 1,57,-1
 470 716 l 1,58,-1
 604 862 l 1,52,-1
718 837 m 1,59,-1
 656 837 l 1,60,-1
 581 754 l 1,61,-1
 643 754 l 1,62,-1
 718 837 l 1,59,-1
EndSplineSet
EndChar

StartChar: Edieresis
Encoding: 203 203 138
Width: 1360
GlyphClass: 2
Flags: W
LayerCount: 2
Fore
SplineSet
804 605 m 0,0,1
 752 605 752 605 721.5 578 c 128,-1,2
 691 551 691 551 691 508 c 2,3,-1
 691 474 l 2,4,5
 691 372 691 372 779 372 c 0,6,7
 847 372 847 372 922.5 410 c 128,-1,8
 998 448 998 448 1022 499 c 1,9,-1
 1059 499 l 1,10,-1
 1059 194 l 1,11,-1
 1022 194 l 1,12,13
 999 247 999 247 925 279.5 c 128,-1,14
 851 312 851 312 779 312 c 0,15,16
 732 312 732 312 711.5 286 c 128,-1,17
 691 260 691 260 691 223 c 2,18,-1
 691 187 l 2,19,20
 691 110 691 110 706.5 76.5 c 128,-1,21
 722 43 722 43 777 43 c 2,22,-1
 802 43 l 2,23,24
 858 43 858 43 894 44.5 c 128,-1,25
 930 46 930 46 986 55.5 c 128,-1,26
 1042 65 1042 65 1083 81.5 c 128,-1,27
 1124 98 1124 98 1170 131.5 c 128,-1,28
 1216 165 1216 165 1251 212 c 1,29,-1
 1280 212 l 1,30,-1
 1280 0 l 1,31,-1
 73 0 l 1,32,-1
 73 43 l 1,33,-1
 193 43 l 2,34,35
 302 43 302 43 302 151 c 2,36,-1
 302 497 l 2,37,38
 302 542 302 542 270 574.5 c 128,-1,39
 238 607 238 607 193 607 c 2,40,-1
 73 607 l 1,41,-1
 73 650 l 1,42,-1
 1280 650 l 1,43,-1
 1280 420 l 1,44,-1
 1251 420 l 1,45,46
 1193 498 1193 498 1083 551.5 c 128,-1,47
 973 605 973 605 804 605 c 0,0,1
435 43 m 1,48,-1
 435 607 l 1,49,-1
 369 607 l 1,50,-1
 369 43 l 1,51,-1
 435 43 l 1,48,-1
1115 798 m 128,-1,53
 1115 751 1115 751 1075 718 c 128,-1,54
 1035 685 1035 685 978 685 c 128,-1,55
 921 685 921 685 881 718 c 128,-1,56
 841 751 841 751 841 798 c 128,-1,57
 841 845 841 845 881 879 c 128,-1,58
 921 913 921 913 978 913 c 128,-1,59
 1035 913 1035 913 1075 879 c 128,-1,52
 1115 845 1115 845 1115 798 c 128,-1,53
659 798 m 128,-1,61
 659 751 659 751 619 718 c 128,-1,62
 579 685 579 685 522 685 c 128,-1,63
 465 685 465 685 425 718 c 128,-1,64
 385 751 385 751 385 798 c 128,-1,65
 385 845 385 845 425 879 c 128,-1,66
 465 913 465 913 522 913 c 128,-1,67
 579 913 579 913 619 879 c 128,-1,60
 659 845 659 845 659 798 c 128,-1,61
463 798 m 128,-1,69
 463 851 463 851 494 885 c 1,70,-1
 491 888 l 1,71,72
 460 875 460 875 441 850.5 c 128,-1,73
 422 826 422 826 422 798 c 128,-1,74
 422 770 422 770 441 745.5 c 128,-1,75
 460 721 460 721 491 708 c 1,76,-1
 494 711 l 1,77,68
 463 745 463 745 463 798 c 128,-1,69
919 798 m 128,-1,79
 919 851 919 851 950 885 c 1,80,-1
 947 888 l 1,81,82
 916 875 916 875 897 850.5 c 128,-1,83
 878 826 878 826 878 798 c 128,-1,84
 878 770 878 770 897 745.5 c 128,-1,85
 916 721 916 721 947 708 c 1,86,-1
 950 711 l 1,87,78
 919 745 919 745 919 798 c 128,-1,79
EndSplineSet
EndChar

StartChar: Igrave
Encoding: 204 204 139
Width: 1003
GlyphClass: 2
Flags: W
LayerCount: 2
Fore
SplineSet
694 497 m 2,0,-1
 694 151 l 2,1,2
 694 95 694 95 724 69 c 128,-1,3
 754 43 754 43 803 43 c 2,4,-1
 924 43 l 1,5,-1
 924 0 l 1,6,-1
 73 0 l 1,7,-1
 73 43 l 1,8,-1
 195 43 l 2,9,10
 244 43 244 43 274 69 c 128,-1,11
 304 95 304 95 304 151 c 2,12,-1
 304 497 l 2,13,14
 304 542 304 542 272 574.5 c 128,-1,15
 240 607 240 607 195 607 c 2,16,-1
 73 607 l 1,17,-1
 73 650 l 1,18,-1
 924 650 l 1,19,-1
 924 607 l 1,20,-1
 803 607 l 2,21,22
 758 607 758 607 726 574.5 c 128,-1,23
 694 542 694 542 694 497 c 2,0,-1
436 43 m 1,24,-1
 436 607 l 1,25,-1
 371 607 l 1,26,-1
 371 43 l 1,27,-1
 436 43 l 1,24,-1
776 752 m 1,28,-1
 776 716 l 1,29,-1
 722 716 l 2,30,31
 452 716 452 716 374 734 c 0,32,33
 303 750 303 750 268 792 c 1,34,35
 235 830 235 830 229 852 c 2,36,-1
 226 862 l 1,37,-1
 517 862 l 1,38,39
 558 804 558 804 612.5 778 c 128,-1,40
 667 752 667 752 776 752 c 1,28,-1
464 755 m 1,41,-1
 464 759 l 1,42,43
 436 768 436 768 405.5 788.5 c 128,-1,44
 375 809 375 809 363 834 c 1,45,-1
 299 834 l 1,46,47
 349 761 349 761 464 755 c 1,41,-1
EndSplineSet
EndChar

StartChar: Iacute
Encoding: 205 205 140
Width: 1003
GlyphClass: 2
Flags: W
LayerCount: 2
Fore
SplineSet
694 497 m 2,0,-1
 694 151 l 2,1,2
 694 95 694 95 724 69 c 128,-1,3
 754 43 754 43 803 43 c 2,4,-1
 924 43 l 1,5,-1
 924 0 l 1,6,-1
 73 0 l 1,7,-1
 73 43 l 1,8,-1
 195 43 l 2,9,10
 244 43 244 43 274 69 c 128,-1,11
 304 95 304 95 304 151 c 2,12,-1
 304 497 l 2,13,14
 304 542 304 542 272 574.5 c 128,-1,15
 240 607 240 607 195 607 c 2,16,-1
 73 607 l 1,17,-1
 73 650 l 1,18,-1
 924 650 l 1,19,-1
 924 607 l 1,20,-1
 803 607 l 2,21,22
 758 607 758 607 726 574.5 c 128,-1,23
 694 542 694 542 694 497 c 2,0,-1
436 43 m 1,24,-1
 436 607 l 1,25,-1
 371 607 l 1,26,-1
 371 43 l 1,27,-1
 436 43 l 1,24,-1
280 716 m 2,28,-1
 226 716 l 1,29,-1
 226 752 l 1,30,31
 335 752 335 752 389.5 778 c 128,-1,32
 444 804 444 804 485 862 c 1,33,-1
 776 862 l 1,34,35
 773 849 773 849 761 828 c 128,-1,36
 749 807 749 807 734 791 c 128,-1,37
 719 775 719 775 691 758.5 c 128,-1,38
 663 742 663 742 628 734 c 0,39,40
 550 716 550 716 280 716 c 2,28,-1
424 759 m 1,41,-1
 424 755 l 1,42,43
 539 761 539 761 589 834 c 1,44,-1
 525 834 l 1,45,46
 513 809 513 809 482.5 788.5 c 128,-1,47
 452 768 452 768 424 759 c 1,41,-1
EndSplineSet
EndChar

StartChar: Icircumflex
Encoding: 206 206 141
Width: 1003
GlyphClass: 2
Flags: W
LayerCount: 2
Fore
SplineSet
694 497 m 2,0,-1
 694 151 l 2,1,2
 694 95 694 95 724 69 c 128,-1,3
 754 43 754 43 803 43 c 2,4,-1
 924 43 l 1,5,-1
 924 0 l 1,6,-1
 73 0 l 1,7,-1
 73 43 l 1,8,-1
 195 43 l 2,9,10
 244 43 244 43 274 69 c 128,-1,11
 304 95 304 95 304 151 c 2,12,-1
 304 497 l 2,13,14
 304 542 304 542 272 574.5 c 128,-1,15
 240 607 240 607 195 607 c 2,16,-1
 73 607 l 1,17,-1
 73 650 l 1,18,-1
 924 650 l 1,19,-1
 924 607 l 1,20,-1
 803 607 l 2,21,22
 758 607 758 607 726 574.5 c 128,-1,23
 694 542 694 542 694 497 c 2,0,-1
436 43 m 1,24,-1
 436 607 l 1,25,-1
 371 607 l 1,26,-1
 371 43 l 1,27,-1
 436 43 l 1,24,-1
340 862 m 1,28,-1
 664 862 l 1,29,-1
 797 716 l 1,30,-1
 710 716 l 1,31,-1
 607 828 l 1,32,-1
 503 716 l 1,33,-1
 206 716 l 1,34,-1
 340 862 l 1,28,-1
454 837 m 1,35,-1
 392 837 l 1,36,-1
 317 754 l 1,37,-1
 379 754 l 1,38,-1
 454 837 l 1,35,-1
EndSplineSet
EndChar

StartChar: Idieresis
Encoding: 207 207 142
Width: 1003
GlyphClass: 2
Flags: W
LayerCount: 2
Fore
SplineSet
694 497 m 2,0,-1
 694 151 l 2,1,2
 694 95 694 95 724 69 c 128,-1,3
 754 43 754 43 803 43 c 2,4,-1
 924 43 l 1,5,-1
 924 0 l 1,6,-1
 73 0 l 1,7,-1
 73 43 l 1,8,-1
 195 43 l 2,9,10
 244 43 244 43 274 69 c 128,-1,11
 304 95 304 95 304 151 c 2,12,-1
 304 497 l 2,13,14
 304 542 304 542 272 574.5 c 128,-1,15
 240 607 240 607 195 607 c 2,16,-1
 73 607 l 1,17,-1
 73 650 l 1,18,-1
 924 650 l 1,19,-1
 924 607 l 1,20,-1
 803 607 l 2,21,22
 758 607 758 607 726 574.5 c 128,-1,23
 694 542 694 542 694 497 c 2,0,-1
436 43 m 1,24,-1
 436 607 l 1,25,-1
 371 607 l 1,26,-1
 371 43 l 1,27,-1
 436 43 l 1,24,-1
866 798 m 128,-1,29
 866 751 866 751 826 718 c 128,-1,30
 786 685 786 685 729 685 c 128,-1,31
 672 685 672 685 632 718 c 128,-1,32
 592 751 592 751 592 798 c 128,-1,33
 592 845 592 845 632 879 c 128,-1,34
 672 913 672 913 729 913 c 128,-1,35
 786 913 786 913 826 879 c 128,-1,28
 866 845 866 845 866 798 c 128,-1,29
410 798 m 128,-1,37
 410 751 410 751 370 718 c 128,-1,38
 330 685 330 685 273 685 c 128,-1,39
 216 685 216 685 176 718 c 128,-1,40
 136 751 136 751 136 798 c 128,-1,41
 136 845 136 845 176 879 c 128,-1,42
 216 913 216 913 273 913 c 128,-1,43
 330 913 330 913 370 879 c 128,-1,36
 410 845 410 845 410 798 c 128,-1,37
214 798 m 128,-1,45
 214 851 214 851 245 885 c 1,46,-1
 242 888 l 1,47,48
 211 875 211 875 192 850.5 c 128,-1,49
 173 826 173 826 173 798 c 128,-1,50
 173 770 173 770 192 745.5 c 128,-1,51
 211 721 211 721 242 708 c 1,52,-1
 245 711 l 1,53,44
 214 745 214 745 214 798 c 128,-1,45
670 798 m 128,-1,55
 670 851 670 851 701 885 c 1,56,-1
 698 888 l 1,57,58
 667 875 667 875 648 850.5 c 128,-1,59
 629 826 629 826 629 798 c 128,-1,60
 629 770 629 770 648 745.5 c 128,-1,61
 667 721 667 721 698 708 c 1,62,-1
 701 711 l 1,63,54
 670 745 670 745 670 798 c 128,-1,55
EndSplineSet
EndChar

StartChar: Eth
Encoding: 208 208 143
Width: 1469
GlyphClass: 2
Flags: W
LayerCount: 2
Fore
SplineSet
70 650 m 1,0,-1
 833 650 l 2,1,2
 1079 650 1079 650 1253 580 c 0,3,4
 1342 545 1342 545 1394 482.5 c 128,-1,5
 1446 420 1446 420 1446 338.5 c 128,-1,6
 1446 257 1446 257 1409 195 c 128,-1,7
 1372 133 1372 133 1316.5 97.5 c 128,-1,8
 1261 62 1261 62 1188 39 c 0,9,10
 1063 0 1063 0 925 0 c 2,11,-1
 70 0 l 1,12,-1
 70 43 l 1,13,-1
 190 43 l 2,14,15
 239 43 239 43 269 69 c 128,-1,16
 299 95 299 95 299 152 c 2,17,-1
 299 285 l 1,18,-1
 148 285 l 1,19,-1
 148 365 l 1,20,-1
 299 365 l 1,21,-1
 299 498 l 2,22,23
 299 542 299 542 267 574.5 c 128,-1,24
 235 607 235 607 190 607 c 2,25,-1
 70 607 l 1,26,-1
 70 650 l 1,0,-1
772 43 m 2,27,-1
 863 43 l 2,28,29
 922 43 922 43 961 86 c 0,30,31
 1030 161 1030 161 1030 324 c 0,32,33
 1030 606 1030 606 807 606 c 0,34,35
 752 606 752 606 720 579.5 c 128,-1,36
 688 553 688 553 688 508 c 2,37,-1
 688 365 l 1,38,-1
 876 365 l 1,39,-1
 876 285 l 1,40,-1
 688 285 l 1,41,-1
 688 145 l 2,42,43
 688 43 688 43 772 43 c 2,27,-1
431 43 m 1,44,-1
 431 607 l 1,45,-1
 366 607 l 1,46,-1
 366 43 l 1,47,-1
 431 43 l 1,44,-1
1200 324 m 128,-1,49
 1200 504 1200 504 1034 598 c 1,50,-1
 1032 595 l 1,51,52
 1119 477 1119 477 1119 324 c 128,-1,53
 1119 171 1119 171 1032 53 c 1,54,-1
 1034 50 l 1,55,48
 1200 144 1200 144 1200 324 c 128,-1,49
EndSplineSet
EndChar

StartChar: Ntilde
Encoding: 209 209 144
Width: 1561
GlyphClass: 2
Flags: W
LayerCount: 2
Fore
SplineSet
1009 650 m 1,0,-1
 1529 650 l 1,1,-1
 1529 607 l 1,2,3
 1301 607 1301 607 1301 410 c 2,4,-1
 1301 -42 l 1,5,-1
 1211 -42 l 1,6,-1
 515 379 l 2,7,8
 490 393 490 393 465 393 c 0,9,10
 415 393 415 393 415 323 c 2,11,-1
 415 277 l 2,12,13
 415 215 415 215 445 168 c 128,-1,14
 475 121 475 121 524 95 c 0,15,16
 620 43 620 43 730 43 c 1,17,-1
 730 0 l 1,18,-1
 35 0 l 1,19,-1
 35 43 l 1,20,21
 144 43 144 43 242 95 c 0,22,23
 290 121 290 121 320 168 c 128,-1,24
 350 215 350 215 350 277 c 2,25,-1
 350 382 l 2,26,27
 350 448 350 448 302 500.5 c 128,-1,28
 254 553 254 553 180 580 c 128,-1,29
 106 607 106 607 23 607 c 1,30,-1
 23 650 l 1,31,-1
 772 650 l 1,32,-1
 1120 431 l 2,33,34
 1196 383 1196 383 1214 383 c 0,35,36
 1237 383 1237 383 1237 410 c 0,37,38
 1237 607 1237 607 1009 607 c 1,39,-1
 1009 650 l 1,0,-1
356 607 m 1,40,-1
 356 552 l 1,41,-1
 1211 35 l 1,42,-1
 1211 107 l 1,43,-1
 383 607 l 1,44,-1
 356 607 l 1,40,-1
1026 789 m 1,45,46
 979 774 979 774 909 774 c 128,-1,47
 839 774 839 774 750.5 796 c 128,-1,48
 662 818 662 818 614.5 818 c 128,-1,49
 567 818 567 818 533 788 c 1,50,-1
 536 784 l 1,51,52
 559 789 559 789 586 789 c 128,-1,53
 613 789 613 789 715.5 764 c 128,-1,54
 818 739 818 739 896 739 c 128,-1,55
 974 739 974 739 1028 785 c 1,56,-1
 1026 789 l 1,45,46
963 718 m 128,-1,58
 928 705 928 705 867 705 c 128,-1,59
 806 705 806 705 709.5 729.5 c 128,-1,60
 613 754 613 754 551 754 c 0,61,62
 504 754 504 754 489 717 c 1,63,-1
 461 717 l 1,64,65
 465 766 465 766 526.5 822.5 c 128,-1,66
 588 879 588 879 678 879 c 128,-1,67
 768 879 768 879 854 861 c 128,-1,68
 940 843 940 843 992.5 843 c 128,-1,69
 1045 843 1045 843 1066 878 c 1,70,-1
 1099 878 l 1,71,72
 1094 838 1094 838 1069.5 804 c 128,-1,73
 1045 770 1045 770 1021.5 750.5 c 128,-1,57
 998 731 998 731 963 718 c 128,-1,58
EndSplineSet
EndChar

StartChar: Ograve
Encoding: 210 210 145
Width: 1345
GlyphClass: 2
Flags: W
LayerCount: 2
Fore
SplineSet
1322 325 m 0,0,1
 1322 231 1322 231 1235 151 c 128,-1,2
 1148 71 1148 71 998.5 24.5 c 128,-1,3
 849 -22 849 -22 672 -22 c 128,-1,4
 495 -22 495 -22 345.5 24.5 c 128,-1,5
 196 71 196 71 109 151 c 128,-1,6
 22 231 22 231 22 325 c 0,7,8
 22 472 22 472 201 571 c 128,-1,9
 380 670 380 670 672 670 c 128,-1,10
 964 670 964 670 1143 571 c 128,-1,11
 1322 472 1322 472 1322 325 c 0,0,1
834.5 556 m 128,-1,13
 790 629 790 629 672.5 629 c 128,-1,14
 555 629 555 629 510 555.5 c 128,-1,15
 465 482 465 482 465 328.5 c 128,-1,16
 465 175 465 175 519 97 c 128,-1,17
 573 19 573 19 672 19 c 128,-1,18
 771 19 771 19 825 97 c 128,-1,19
 879 175 879 175 879 329 c 128,-1,12
 879 483 879 483 834.5 556 c 128,-1,13
149 325 m 128,-1,21
 149 414 149 414 214.5 489 c 128,-1,22
 280 564 280 564 389 607 c 1,23,-1
 388 611 l 1,24,25
 246 569 246 569 161 492.5 c 128,-1,26
 76 416 76 416 76 325 c 128,-1,27
 76 234 76 234 159.5 158.5 c 128,-1,28
 243 83 243 83 384 40 c 1,29,-1
 385 44 l 1,30,31
 277 87 277 87 213 161.5 c 128,-1,20
 149 236 149 236 149 325 c 128,-1,21
1035 325 m 128,-1,33
 1035 403 1035 403 1001 476.5 c 128,-1,34
 967 550 967 550 909 603 c 1,35,-1
 903 601 l 1,36,37
 960 460 960 460 960 325 c 128,-1,38
 960 190 960 190 903 49 c 1,39,-1
 909 47 l 1,40,41
 967 100 967 100 1001 173.5 c 128,-1,32
 1035 247 1035 247 1035 325 c 128,-1,33
947 752 m 1,42,-1
 947 716 l 1,43,-1
 893 716 l 2,44,45
 623 716 623 716 545 734 c 0,46,47
 474 750 474 750 439 792 c 1,48,49
 406 830 406 830 400 852 c 2,50,-1
 397 862 l 1,51,-1
 688 862 l 1,52,53
 729 804 729 804 783.5 778 c 128,-1,54
 838 752 838 752 947 752 c 1,42,-1
635 755 m 1,55,-1
 635 759 l 1,56,57
 607 768 607 768 576.5 788.5 c 128,-1,58
 546 809 546 809 534 834 c 1,59,-1
 470 834 l 1,60,61
 520 761 520 761 635 755 c 1,55,-1
EndSplineSet
EndChar

StartChar: Oacute
Encoding: 211 211 146
Width: 1345
GlyphClass: 2
Flags: W
LayerCount: 2
Fore
SplineSet
1322 325 m 0,0,1
 1322 231 1322 231 1235 151 c 128,-1,2
 1148 71 1148 71 998.5 24.5 c 128,-1,3
 849 -22 849 -22 672 -22 c 128,-1,4
 495 -22 495 -22 345.5 24.5 c 128,-1,5
 196 71 196 71 109 151 c 128,-1,6
 22 231 22 231 22 325 c 0,7,8
 22 472 22 472 201 571 c 128,-1,9
 380 670 380 670 672 670 c 128,-1,10
 964 670 964 670 1143 571 c 128,-1,11
 1322 472 1322 472 1322 325 c 0,0,1
834.5 556 m 128,-1,13
 790 629 790 629 672.5 629 c 128,-1,14
 555 629 555 629 510 555.5 c 128,-1,15
 465 482 465 482 465 328.5 c 128,-1,16
 465 175 465 175 519 97 c 128,-1,17
 573 19 573 19 672 19 c 128,-1,18
 771 19 771 19 825 97 c 128,-1,19
 879 175 879 175 879 329 c 128,-1,12
 879 483 879 483 834.5 556 c 128,-1,13
149 325 m 128,-1,21
 149 414 149 414 214.5 489 c 128,-1,22
 280 564 280 564 389 607 c 1,23,-1
 388 611 l 1,24,25
 246 569 246 569 161 492.5 c 128,-1,26
 76 416 76 416 76 325 c 128,-1,27
 76 234 76 234 159.5 158.5 c 128,-1,28
 243 83 243 83 384 40 c 1,29,-1
 385 44 l 1,30,31
 277 87 277 87 213 161.5 c 128,-1,20
 149 236 149 236 149 325 c 128,-1,21
1035 325 m 128,-1,33
 1035 403 1035 403 1001 476.5 c 128,-1,34
 967 550 967 550 909 603 c 1,35,-1
 903 601 l 1,36,37
 960 460 960 460 960 325 c 128,-1,38
 960 190 960 190 903 49 c 1,39,-1
 909 47 l 1,40,41
 967 100 967 100 1001 173.5 c 128,-1,32
 1035 247 1035 247 1035 325 c 128,-1,33
451 716 m 2,42,-1
 397 716 l 1,43,-1
 397 752 l 1,44,45
 506 752 506 752 560.5 778 c 128,-1,46
 615 804 615 804 656 862 c 1,47,-1
 947 862 l 1,48,49
 944 849 944 849 932 828 c 128,-1,50
 920 807 920 807 905 791 c 128,-1,51
 890 775 890 775 862 758.5 c 128,-1,52
 834 742 834 742 799 734 c 0,53,54
 721 716 721 716 451 716 c 2,42,-1
595 759 m 1,55,-1
 595 755 l 1,56,57
 710 761 710 761 760 834 c 1,58,-1
 696 834 l 1,59,60
 684 809 684 809 653.5 788.5 c 128,-1,61
 623 768 623 768 595 759 c 1,55,-1
EndSplineSet
EndChar

StartChar: Ocircumflex
Encoding: 212 212 147
Width: 1345
GlyphClass: 2
Flags: W
LayerCount: 2
Fore
SplineSet
1322 325 m 0,0,1
 1322 231 1322 231 1235 151 c 128,-1,2
 1148 71 1148 71 998.5 24.5 c 128,-1,3
 849 -22 849 -22 672 -22 c 128,-1,4
 495 -22 495 -22 345.5 24.5 c 128,-1,5
 196 71 196 71 109 151 c 128,-1,6
 22 231 22 231 22 325 c 0,7,8
 22 472 22 472 201 571 c 128,-1,9
 380 670 380 670 672 670 c 128,-1,10
 964 670 964 670 1143 571 c 128,-1,11
 1322 472 1322 472 1322 325 c 0,0,1
834.5 556 m 128,-1,13
 790 629 790 629 672.5 629 c 128,-1,14
 555 629 555 629 510 555.5 c 128,-1,15
 465 482 465 482 465 328.5 c 128,-1,16
 465 175 465 175 519 97 c 128,-1,17
 573 19 573 19 672 19 c 128,-1,18
 771 19 771 19 825 97 c 128,-1,19
 879 175 879 175 879 329 c 128,-1,12
 879 483 879 483 834.5 556 c 128,-1,13
149 325 m 128,-1,21
 149 414 149 414 214.5 489 c 128,-1,22
 280 564 280 564 389 607 c 1,23,-1
 388 611 l 1,24,25
 246 569 246 569 161 492.5 c 128,-1,26
 76 416 76 416 76 325 c 128,-1,27
 76 234 76 234 159.5 158.5 c 128,-1,28
 243 83 243 83 384 40 c 1,29,-1
 385 44 l 1,30,31
 277 87 277 87 213 161.5 c 128,-1,20
 149 236 149 236 149 325 c 128,-1,21
1035 325 m 128,-1,33
 1035 403 1035 403 1001 476.5 c 128,-1,34
 967 550 967 550 909 603 c 1,35,-1
 903 601 l 1,36,37
 960 460 960 460 960 325 c 128,-1,38
 960 190 960 190 903 49 c 1,39,-1
 909 47 l 1,40,41
 967 100 967 100 1001 173.5 c 128,-1,32
 1035 247 1035 247 1035 325 c 128,-1,33
511 862 m 1,42,-1
 835 862 l 1,43,-1
 968 716 l 1,44,-1
 881 716 l 1,45,-1
 778 828 l 1,46,-1
 674 716 l 1,47,-1
 377 716 l 1,48,-1
 511 862 l 1,42,-1
625 837 m 1,49,-1
 563 837 l 1,50,-1
 488 754 l 1,51,-1
 550 754 l 1,52,-1
 625 837 l 1,49,-1
EndSplineSet
EndChar

StartChar: Otilde
Encoding: 213 213 148
Width: 1345
GlyphClass: 2
Flags: W
LayerCount: 2
Fore
SplineSet
1322 325 m 0,0,1
 1322 231 1322 231 1235 151 c 128,-1,2
 1148 71 1148 71 998.5 24.5 c 128,-1,3
 849 -22 849 -22 672 -22 c 128,-1,4
 495 -22 495 -22 345.5 24.5 c 128,-1,5
 196 71 196 71 109 151 c 128,-1,6
 22 231 22 231 22 325 c 0,7,8
 22 472 22 472 201 571 c 128,-1,9
 380 670 380 670 672 670 c 128,-1,10
 964 670 964 670 1143 571 c 128,-1,11
 1322 472 1322 472 1322 325 c 0,0,1
834.5 556 m 128,-1,13
 790 629 790 629 672.5 629 c 128,-1,14
 555 629 555 629 510 555.5 c 128,-1,15
 465 482 465 482 465 328.5 c 128,-1,16
 465 175 465 175 519 97 c 128,-1,17
 573 19 573 19 672 19 c 128,-1,18
 771 19 771 19 825 97 c 128,-1,19
 879 175 879 175 879 329 c 128,-1,12
 879 483 879 483 834.5 556 c 128,-1,13
149 325 m 128,-1,21
 149 414 149 414 214.5 489 c 128,-1,22
 280 564 280 564 389 607 c 1,23,-1
 388 611 l 1,24,25
 246 569 246 569 161 492.5 c 128,-1,26
 76 416 76 416 76 325 c 128,-1,27
 76 234 76 234 159.5 158.5 c 128,-1,28
 243 83 243 83 384 40 c 1,29,-1
 385 44 l 1,30,31
 277 87 277 87 213 161.5 c 128,-1,20
 149 236 149 236 149 325 c 128,-1,21
1035 325 m 128,-1,33
 1035 403 1035 403 1001 476.5 c 128,-1,34
 967 550 967 550 909 603 c 1,35,-1
 903 601 l 1,36,37
 960 460 960 460 960 325 c 128,-1,38
 960 190 960 190 903 49 c 1,39,-1
 909 47 l 1,40,41
 967 100 967 100 1001 173.5 c 128,-1,32
 1035 247 1035 247 1035 325 c 128,-1,33
918 789 m 1,42,43
 871 774 871 774 801 774 c 128,-1,44
 731 774 731 774 642.5 796 c 128,-1,45
 554 818 554 818 506.5 818 c 128,-1,46
 459 818 459 818 425 788 c 1,47,-1
 428 784 l 1,48,49
 451 789 451 789 478 789 c 128,-1,50
 505 789 505 789 607.5 764 c 128,-1,51
 710 739 710 739 788 739 c 128,-1,52
 866 739 866 739 920 785 c 1,53,-1
 918 789 l 1,42,43
855 718 m 128,-1,55
 820 705 820 705 759 705 c 128,-1,56
 698 705 698 705 601.5 729.5 c 128,-1,57
 505 754 505 754 443 754 c 0,58,59
 396 754 396 754 381 717 c 1,60,-1
 353 717 l 1,61,62
 357 766 357 766 418.5 822.5 c 128,-1,63
 480 879 480 879 570 879 c 128,-1,64
 660 879 660 879 746 861 c 128,-1,65
 832 843 832 843 884.5 843 c 128,-1,66
 937 843 937 843 958 878 c 1,67,-1
 991 878 l 1,68,69
 986 838 986 838 961.5 804 c 128,-1,70
 937 770 937 770 913.5 750.5 c 128,-1,54
 890 731 890 731 855 718 c 128,-1,55
EndSplineSet
EndChar

StartChar: Odieresis
Encoding: 214 214 149
Width: 1345
GlyphClass: 2
Flags: W
LayerCount: 2
Fore
SplineSet
1322 325 m 0,0,1
 1322 231 1322 231 1235 151 c 128,-1,2
 1148 71 1148 71 998.5 24.5 c 128,-1,3
 849 -22 849 -22 672 -22 c 128,-1,4
 495 -22 495 -22 345.5 24.5 c 128,-1,5
 196 71 196 71 109 151 c 128,-1,6
 22 231 22 231 22 325 c 0,7,8
 22 472 22 472 201 571 c 128,-1,9
 380 670 380 670 672 670 c 128,-1,10
 964 670 964 670 1143 571 c 128,-1,11
 1322 472 1322 472 1322 325 c 0,0,1
834.5 556 m 128,-1,13
 790 629 790 629 672.5 629 c 128,-1,14
 555 629 555 629 510 555.5 c 128,-1,15
 465 482 465 482 465 328.5 c 128,-1,16
 465 175 465 175 519 97 c 128,-1,17
 573 19 573 19 672 19 c 128,-1,18
 771 19 771 19 825 97 c 128,-1,19
 879 175 879 175 879 329 c 128,-1,12
 879 483 879 483 834.5 556 c 128,-1,13
149 325 m 128,-1,21
 149 414 149 414 214.5 489 c 128,-1,22
 280 564 280 564 389 607 c 1,23,-1
 388 611 l 1,24,25
 246 569 246 569 161 492.5 c 128,-1,26
 76 416 76 416 76 325 c 128,-1,27
 76 234 76 234 159.5 158.5 c 128,-1,28
 243 83 243 83 384 40 c 1,29,-1
 385 44 l 1,30,31
 277 87 277 87 213 161.5 c 128,-1,20
 149 236 149 236 149 325 c 128,-1,21
1035 325 m 128,-1,33
 1035 403 1035 403 1001 476.5 c 128,-1,34
 967 550 967 550 909 603 c 1,35,-1
 903 601 l 1,36,37
 960 460 960 460 960 325 c 128,-1,38
 960 190 960 190 903 49 c 1,39,-1
 909 47 l 1,40,41
 967 100 967 100 1001 173.5 c 128,-1,32
 1035 247 1035 247 1035 325 c 128,-1,33
1037 798 m 128,-1,43
 1037 751 1037 751 997 718 c 128,-1,44
 957 685 957 685 900 685 c 128,-1,45
 843 685 843 685 803 718 c 128,-1,46
 763 751 763 751 763 798 c 128,-1,47
 763 845 763 845 803 879 c 128,-1,48
 843 913 843 913 900 913 c 128,-1,49
 957 913 957 913 997 879 c 128,-1,42
 1037 845 1037 845 1037 798 c 128,-1,43
581 798 m 128,-1,51
 581 751 581 751 541 718 c 128,-1,52
 501 685 501 685 444 685 c 128,-1,53
 387 685 387 685 347 718 c 128,-1,54
 307 751 307 751 307 798 c 128,-1,55
 307 845 307 845 347 879 c 128,-1,56
 387 913 387 913 444 913 c 128,-1,57
 501 913 501 913 541 879 c 128,-1,50
 581 845 581 845 581 798 c 128,-1,51
385 798 m 128,-1,59
 385 851 385 851 416 885 c 1,60,-1
 413 888 l 1,61,62
 382 875 382 875 363 850.5 c 128,-1,63
 344 826 344 826 344 798 c 128,-1,64
 344 770 344 770 363 745.5 c 128,-1,65
 382 721 382 721 413 708 c 1,66,-1
 416 711 l 1,67,58
 385 745 385 745 385 798 c 128,-1,59
841 798 m 128,-1,69
 841 851 841 851 872 885 c 1,70,-1
 869 888 l 1,71,72
 838 875 838 875 819 850.5 c 128,-1,73
 800 826 800 826 800 798 c 128,-1,74
 800 770 800 770 819 745.5 c 128,-1,75
 838 721 838 721 869 708 c 1,76,-1
 872 711 l 1,77,68
 841 745 841 745 841 798 c 128,-1,69
EndSplineSet
EndChar

StartChar: multiply
Encoding: 215 215 150
Width: 740
GlyphClass: 2
Flags: W
LayerCount: 2
Fore
SplineSet
133 520 m 1,0,-1
 188 575 l 1,1,-1
 370 393 l 1,2,-1
 552 575 l 1,3,-1
 607 520 l 1,4,-1
 425 338 l 1,5,-1
 607 156 l 1,6,-1
 552 101 l 1,7,-1
 370 283 l 1,8,-1
 188 101 l 1,9,-1
 133 156 l 1,10,-1
 315 338 l 1,11,-1
 133 520 l 1,0,-1
EndSplineSet
EndChar

StartChar: Oslash
Encoding: 216 216 151
Width: 1345
GlyphClass: 2
Flags: W
LayerCount: 2
Fore
SplineSet
22 325 m 0,0,1
 22 472 22 472 201 571 c 128,-1,2
 380 670 380 670 672 670 c 0,3,4
 731 670 731 670 806 663 c 1,5,-1
 843 741 l 1,6,-1
 895 741 l 1,7,-1
 856 658 l 1,8,9
 1071 628 1071 628 1196.5 537 c 128,-1,10
 1322 446 1322 446 1322 325 c 0,11,12
 1322 231 1322 231 1235 151 c 128,-1,13
 1148 71 1148 71 998.5 24.5 c 128,-1,14
 849 -22 849 -22 672 -22 c 0,15,16
 606 -22 606 -22 536 -14 c 1,17,-1
 501 -89 l 1,18,-1
 449 -89 l 1,19,-1
 487 -8 l 1,20,21
 283 24 283 24 152.5 116 c 128,-1,22
 22 208 22 208 22 325 c 0,0,1
672 629 m 0,23,24
 555 629 555 629 510 555.5 c 128,-1,25
 465 482 465 482 465 321.5 c 128,-1,26
 465 161 465 161 530 82 c 1,27,-1
 779 606 l 1,28,29
 736 629 736 629 672 629 c 0,23,24
879 324 m 0,30,31
 879 511 879 511 817 577 c 1,32,-1
 566 49 l 1,33,34
 611 19 611 19 672 19 c 0,35,36
 771 19 771 19 825 97 c 128,-1,37
 879 175 879 175 879 324 c 0,30,31
149 325 m 128,-1,39
 149 414 149 414 214.5 489 c 128,-1,40
 280 564 280 564 389 607 c 1,41,-1
 388 611 l 1,42,43
 246 569 246 569 161 492.5 c 128,-1,44
 76 416 76 416 76 325 c 128,-1,45
 76 234 76 234 159.5 158.5 c 128,-1,46
 243 83 243 83 384 40 c 1,47,-1
 385 44 l 1,48,49
 277 87 277 87 213 161.5 c 128,-1,38
 149 236 149 236 149 325 c 128,-1,39
1035 325 m 128,-1,51
 1035 403 1035 403 1001 476.5 c 128,-1,52
 967 550 967 550 909 603 c 1,53,-1
 903 601 l 1,54,55
 960 460 960 460 960 325 c 128,-1,56
 960 190 960 190 903 49 c 1,57,-1
 909 47 l 1,58,59
 967 100 967 100 1001 173.5 c 128,-1,50
 1035 247 1035 247 1035 325 c 128,-1,51
EndSplineSet
EndChar

StartChar: Ugrave
Encoding: 217 217 152
Width: 1217
GlyphClass: 2
Flags: W
LayerCount: 2
Fore
SplineSet
757 650 m 1,0,-1
 1212 650 l 1,1,-1
 1212 607 l 1,2,3
 1169 607 1169 607 1138 600 c 128,-1,4
 1107 593 1107 593 1076 574 c 0,5,6
 1012 535 1012 535 1012 411 c 2,7,-1
 1012 220 l 2,8,9
 1012 113 1012 113 980 72 c 0,10,11
 942 24 942 24 876 4 c 0,12,13
 787 -22 787 -22 657.5 -22 c 128,-1,14
 528 -22 528 -22 438 -8.5 c 128,-1,15
 348 5 348 5 300.5 24 c 128,-1,16
 253 43 253 43 226 72.5 c 128,-1,17
 199 102 199 102 192.5 124.5 c 128,-1,18
 186 147 186 147 186 177 c 2,19,-1
 186 499 l 2,20,21
 186 556 186 556 156.5 581.5 c 128,-1,22
 127 607 127 607 78 607 c 2,23,-1
 40 607 l 1,24,-1
 40 650 l 1,25,-1
 701 650 l 1,26,-1
 701 607 l 1,27,-1
 685 607 l 2,28,29
 636 607 636 607 606.5 581.5 c 128,-1,30
 577 556 577 556 577 499 c 2,31,-1
 577 167 l 2,32,33
 577 95 577 95 603.5 63 c 128,-1,34
 630 31 630 31 699.5 31 c 128,-1,35
 769 31 769 31 821 42 c 128,-1,36
 873 53 873 53 899.5 74 c 128,-1,37
 926 95 926 95 936.5 118.5 c 128,-1,38
 947 142 947 142 947 174 c 2,39,-1
 947 411 l 2,40,41
 947 460 947 460 932.5 497.5 c 128,-1,42
 918 535 918 535 898 555 c 128,-1,43
 878 575 878 575 850 588 c 0,44,45
 806 607 806 607 757 607 c 1,46,-1
 757 650 l 1,0,-1
893 752 m 1,47,-1
 893 716 l 1,48,-1
 839 716 l 2,49,50
 569 716 569 716 491 734 c 0,51,52
 420 750 420 750 385 792 c 1,53,54
 352 830 352 830 346 852 c 2,55,-1
 343 862 l 1,56,-1
 634 862 l 1,57,58
 675 804 675 804 729.5 778 c 128,-1,59
 784 752 784 752 893 752 c 1,47,-1
254 607 m 1,60,-1
 254 210 l 2,61,62
 254 122 254 122 295 96 c 0,63,64
 308 88 308 88 319 88 c 1,65,-1
 319 607 l 1,66,-1
 254 607 l 1,60,-1
581 755 m 1,67,-1
 581 759 l 1,68,69
 553 768 553 768 522.5 788.5 c 128,-1,70
 492 809 492 809 480 834 c 1,71,-1
 416 834 l 1,72,73
 466 761 466 761 581 755 c 1,67,-1
EndSplineSet
EndChar

StartChar: Uacute
Encoding: 218 218 153
Width: 1217
GlyphClass: 2
Flags: W
LayerCount: 2
Fore
SplineSet
757 650 m 1,0,-1
 1212 650 l 1,1,-1
 1212 607 l 1,2,3
 1169 607 1169 607 1138 600 c 128,-1,4
 1107 593 1107 593 1076 574 c 0,5,6
 1012 535 1012 535 1012 411 c 2,7,-1
 1012 220 l 2,8,9
 1012 113 1012 113 980 72 c 0,10,11
 942 24 942 24 876 4 c 0,12,13
 787 -22 787 -22 657.5 -22 c 128,-1,14
 528 -22 528 -22 438 -8.5 c 128,-1,15
 348 5 348 5 300.5 24 c 128,-1,16
 253 43 253 43 226 72.5 c 128,-1,17
 199 102 199 102 192.5 124.5 c 128,-1,18
 186 147 186 147 186 177 c 2,19,-1
 186 499 l 2,20,21
 186 556 186 556 156.5 581.5 c 128,-1,22
 127 607 127 607 78 607 c 2,23,-1
 40 607 l 1,24,-1
 40 650 l 1,25,-1
 701 650 l 1,26,-1
 701 607 l 1,27,-1
 685 607 l 2,28,29
 636 607 636 607 606.5 581.5 c 128,-1,30
 577 556 577 556 577 499 c 2,31,-1
 577 167 l 2,32,33
 577 95 577 95 603.5 63 c 128,-1,34
 630 31 630 31 699.5 31 c 128,-1,35
 769 31 769 31 821 42 c 128,-1,36
 873 53 873 53 899.5 74 c 128,-1,37
 926 95 926 95 936.5 118.5 c 128,-1,38
 947 142 947 142 947 174 c 2,39,-1
 947 411 l 2,40,41
 947 460 947 460 932.5 497.5 c 128,-1,42
 918 535 918 535 898 555 c 128,-1,43
 878 575 878 575 850 588 c 0,44,45
 806 607 806 607 757 607 c 1,46,-1
 757 650 l 1,0,-1
427 716 m 2,47,-1
 373 716 l 1,48,-1
 373 752 l 1,49,50
 482 752 482 752 536.5 778 c 128,-1,51
 591 804 591 804 632 862 c 1,52,-1
 923 862 l 1,53,54
 920 849 920 849 908 828 c 128,-1,55
 896 807 896 807 881 791 c 128,-1,56
 866 775 866 775 838 758.5 c 128,-1,57
 810 742 810 742 775 734 c 0,58,59
 697 716 697 716 427 716 c 2,47,-1
254 607 m 1,60,-1
 254 210 l 2,61,62
 254 122 254 122 295 96 c 0,63,64
 308 88 308 88 319 88 c 1,65,-1
 319 607 l 1,66,-1
 254 607 l 1,60,-1
571 759 m 1,67,-1
 571 755 l 1,68,69
 686 761 686 761 736 834 c 1,70,-1
 672 834 l 1,71,72
 660 809 660 809 629.5 788.5 c 128,-1,73
 599 768 599 768 571 759 c 1,67,-1
EndSplineSet
EndChar

